<svg xmlns="http://www.w3.org/2000/svg" width="103" height="31" viewBox="0 0 103 31">
    <g fill="#677381" fill-rule="nonzero" opacity=".5">
        <path d="M24.183 22.794h3.203c.565 0 1.193 0 1.758.323.628.388.817.904.817 1.42 0 .776-.44 1.293-1.13 1.486-.19.065-.44.13-.692.13.252 0 .503.064.754.129.69.193 1.382.71 1.382 1.679 0 .258-.063.581-.189.84-.502 1.033-1.758 1.033-2.763 1.033h-3.078v-.259h.817v-6.523h-.817v-.258h-.062zm2.26.258v2.971h.817c.754 0 1.193-.258 1.193-1.485 0-1.356-.44-1.55-1.193-1.55h-.816v.064zm0 3.294v3.294h1.005c.314 0 .691-.065 1.005-.452.189-.323.189-.71.189-1.163 0-.516-.063-.968-.251-1.291-.314-.388-.691-.388-1.005-.388h-.942zM30.452 22.923h.88c.376 0 .753-.064 1.067-.129v6.91h.628v.259h-2.575v-.258h.691v-6.523h-.69v-.259zM36.735 25.53h1.947v3.939h.628v.258h-1.884v-.646c-.377.388-.753.775-1.57.775-1.193 0-1.193-.775-1.193-1.42v-2.584h-.628v-.258h1.884v3.1c0 .323.063.775.502.775.126 0 .252-.065.44-.13.565-.387.565-.968.565-1.42v-2.067h-.69v-.323zM43.554 28.694c-.251.452-.691 1.292-1.884 1.292-1.382 0-2.261-1.034-2.261-2.26 0-1.228.879-2.197 2.135-2.197.565 0 1.068.194 1.445.646.376.452.44.904.502 1.356h-2.763v.775c0 .388.062 1.357 1.004 1.357.817 0 1.257-.71 1.508-1.098l.314.129zm-1.256-2.131c0-.323-.063-.84-.691-.84-.691 0-.754.452-.754.904v.517h1.508v-.581h-.063zM49.414 24.796H49.1c-.126-.452-.377-1.744-1.759-1.744-1.256 0-1.507 1.098-1.633 1.486-.188.71-.188 1.485-.188 2.196 0 2.066.44 3.164 1.633 3.164a1.7 1.7 0 0 0 .816-.193c.817-.388 1.005-1.163 1.194-1.615h.314l-.126 2.002H49.1l-.314-.452c-.189.194-.628.581-1.633.581-2.261 0-3.266-1.808-3.266-3.616 0-2.26 1.633-3.81 3.391-3.81.88 0 1.32.387 1.57.58l.189-.452h.251l.126 1.873zM50.157 25.659c.628 0 1.318 0 1.946-.065v.84c.126-.194.189-.323.314-.453.252-.258.503-.452.88-.452.628 0 .879.452.879.84 0 .258-.126.71-.628.71-.377 0-.628-.323-.628-.58 0-.195.063-.324.126-.388 0-.065.062-.065.062-.13 0-.064-.062-.129-.125-.129-.126 0-.44.388-.44.388-.314.452-.377.969-.377 1.356v1.938h.817v.258h-2.7v-.258h.69v-3.682h-.69v-.193h-.126zM59.157 28.63c-.126.387-.691 1.356-2.136 1.356-1.57 0-2.386-1.098-2.386-2.26 0-1.55 1.319-2.197 2.324-2.197.879 0 2.198.517 2.26 2.132.126.387.063.71-.062.968m-1.32-2.26c-.125-.388-.439-.581-.816-.581-.942 0-1.005 1.033-1.005 1.937 0 1.163.126 1.421.189 1.55.126.259.377.517.816.517.942 0 .942-1.098.942-2.067 0-1.098-.062-1.227-.125-1.356M62.898 26.886h-.251c-.063-.259-.126-.517-.44-.71-.189-.13-.503-.26-.754-.26-.44 0-.69.26-.69.582 0 .13.062.323.188.388.063.064.44.193.69.258l.315.065c.44.129 1.193.387 1.193 1.291 0 .646-.44 1.55-1.507 1.55-.44 0-.817-.194-.88-.258-.125-.065-.25-.13-.314-.13-.188 0-.188.194-.125.26h-.314v-1.55h.314c.063.322.125.71.44 1.032.25.259.565.388.879.388.502 0 .816-.323.816-.646 0-.517-.69-.646-1.13-.775-.628-.194-1.32-.452-1.32-1.42 0-.647.378-1.357 1.32-1.357.314 0 .628.13.753.194.126.064.126.064.251.064.189 0 .189-.129.189-.323h.251v1.357h.126zM66.543 26.886h-.314c-.063-.259-.126-.517-.44-.71-.188-.13-.502-.26-.753-.26-.44 0-.691.26-.691.582 0 .13.063.323.188.388.063.064.44.193.691.258l.314.065c.44.129 1.194.387 1.194 1.291 0 .646-.44 1.55-1.508 1.55-.44 0-.816-.194-.879-.258-.126-.065-.251-.13-.314-.13-.188 0-.188.194-.126.26h-.314v-1.55h.314c.063.322.126.71.44 1.032.251.259.565.388.88.388.502 0 .816-.323.816-.646 0-.517-.691-.646-1.13-.775-.629-.194-1.32-.452-1.32-1.42 0-.647.377-1.357 1.32-1.357.313 0 .627.13.753.194.125.064.125.064.251.064.188 0 .188-.129.188-.323h.252v1.357h.188zM97.216 29.936c-.69 0-1.193-.516-1.193-1.227 0-.71.503-1.227 1.193-1.227.691 0 1.194.517 1.194 1.227 0 .71-.503 1.227-1.194 1.227zm0 .259c.754 0 1.382-.646 1.382-1.421s-.628-1.421-1.382-1.421c-.753 0-1.381.646-1.381 1.42 0 .776.628 1.422 1.381 1.422zm-.314-1.357h.314l.44.71h.251l-.502-.71c.251 0 .502-.129.502-.452s-.125-.452-.565-.452h-.628v1.68h.188v-.776zm0-.193v-.517h.44c.189 0 .377 0 .377.258 0 .323-.314.259-.565.259h-.252z"/>
        <path d="M102.648 8.396h-8.102V0h-13v8.396h-8.103v13.369h8.102v8.33h13v-8.33h8.103z"/>
        <path d="M95.289 11.807c-2.01 0-3.831.323-4.9.388-1.13.064-2.009.71-1.255 2.196.816 1.485 3.391 6.523 3.517 6.716 1.884-1.485 3.077-3.875 3.077-6.523.063-.968-.125-1.937-.44-2.777m-2.323 7.427s-2.45-4.843-2.764-5.36c-.25-.517 0-.581.314-.581.252 0 3.957-.323 3.957-.323.503 2.777-.314 4.714-1.507 6.264m-7.976-7.04c-1.068-.064-2.827-.387-4.774-.387-.314.905-.502 1.809-.502 2.842 0 2.583 1.193 4.908 3.015 6.458.502-.968 2.763-5.295 3.454-6.652.816-1.55-.063-2.196-1.193-2.26m.188 1.744c-.251.516-2.763 5.36-2.763 5.36-1.194-1.55-2.01-3.552-1.508-6.265 0 0 3.706.323 3.957.323.314 0 .565.065.314.582m1.884-3.23c.314-.322.377-.84-.125-1.42-.754-.97-.126-1.938.69-1.873.817.064 1.508.904.691 1.873-.44.58-.44 1.033-.125 1.42.25.259.69.453 1.193.453h5.527c-.565-1.292-.754-1.615-1.759-2.52-1.319-1.162-3.768-2.26-5.527-2.26a7.673 7.673 0 0 0-5.652 2.455c-.69.71-1.193 1.485-1.633 2.39h5.401c.628-.065 1.068-.195 1.32-.518m2.7-2.841c1.256.258 2.324 1.291 3.266 2.26h-3.706c0-.71.817-.84.44-2.26m-4.082 0c-.377 1.485.44 1.55.44 2.26h-3.706c.816-1.162 2.01-2.002 3.266-2.26m2.01 7.362c-.315 0-.503.194-.692.582-.188.322-3.077 4.65-3.768 5.683a8.007 8.007 0 0 0 4.522 1.42 8.1 8.1 0 0 0 4.46-1.356s-3.58-5.36-3.832-5.747c-.188-.388-.377-.582-.69-.582m0 6.459c-1.131 0-2.136-.194-2.89-.646 0 0 2.638-4.327 2.89-4.327.25 0 2.888 4.327 2.888 4.327-.753.452-1.758.646-2.889.646M49.193 9.175c-.691-.646-1.696-.97-2.89-.97-1.067 0-2.072.518-2.888 1.357-.817.904-1.32 2.196-1.32 3.552 0 1.356.503 2.584 1.32 3.488a4.313 4.313 0 0 0 3.077 1.291c2.261 0 3.517-1.743 3.768-3.293v-.065H49.632v.065c-.188 1.291-1.256 2.648-2.889 2.648-1.319 0-2.072-.97-2.135-2.584v-2.196H50.449v-.064c0-1.421-.44-2.519-1.256-3.23zm-1.194 2.583h-3.391v-.969c0-.646.188-1.162.502-1.485.314-.323.691-.452 1.13-.452 1.068 0 1.697.71 1.697 2.002v.904h.062zM30.714 15.61h-.691v.065c-.062.452-.314 1.162-1.193 1.162-.69 0-1.005-.452-1.005-1.42V8.893h2.198V8.248h-2.135V5.47h-.063c-.502.064-1.507.129-2.072.129h-.126v2.648h-1.444V8.894h1.444v5.683c0 2.067.88 3.164 2.575 3.164 1.947 0 2.387-1.55 2.45-2.002l.062-.129zM22.484 16.871v-5.747c0-.905-.251-1.68-.816-2.196-.503-.517-1.32-.84-2.136-.84-1.193 0-2.135.517-2.826 1.42V8.347H13.19V8.928h1.319v7.879h-2.45L6.972 1.888v-.064H6.343v.064L1.382 16.871H0V17.453h4.145V16.87H2.261l1.382-4.262h4.459l1.382 4.262H7.537V17.453h10.551V16.807h-1.382v-4.392c0-2.648 1.382-3.552 2.261-3.552.88 0 1.319.581 1.319 1.744v6.2H19.03V17.453H23.866V16.807h-1.382v.064zM5.715 5.828l2.073 6.07H3.83l1.884-6.07z"/>
        <path d="M40.187 16.807v-5.813c0-1.356-.817-2.97-3.078-2.97-1.758 0-2.637.904-3.077 1.356V1.824h-3.454v.645h1.319v14.338H30.452V17.453h4.962V16.807h-1.382V12.35c0-1.55.502-2.39.942-2.842.44-.452.942-.646 1.507-.646 1.194 0 1.445 1.033 1.445 1.873v6.07h-1.382v.647h4.962V16.807h-1.319zM66.235 16.99h-1.382v-6.2c0-1.615-1.068-2.584-2.764-2.584-1.632 0-2.512.84-2.951 1.42-.44-.903-1.32-1.42-2.513-1.42-1.13 0-2.198.452-2.889 1.227V8.464H50.157v.581H51.6v7.88h-1.444v.645h4.835v-.645h-1.256v-4.392c.063-1.292.126-2.067.566-2.713.376-.516 1.005-.84 1.57-.84.753 0 1.005.582 1.005.647.188.387.188.968.188 1.614v5.684h-1.319v.645h4.773v-.645h-1.256v-4.392c.063-1.292.126-2.067.565-2.713.377-.516 1.005-.84 1.57-.84.754 0 1.005.582 1.005.647.189.387.189.968.189 1.614v5.684h-1.256v.645H66.235v-.645.064zM69.456 18.083c-.691 0-1.194-.516-1.194-1.227 0-.71.503-1.227 1.194-1.227.69 0 1.193.517 1.193 1.227-.063.71-.565 1.227-1.193 1.227zm0 .259c.753 0 1.381-.646 1.381-1.421S70.21 15.5 69.456 15.5c-.754 0-1.382.646-1.382 1.42-.063.711.565 1.422 1.382 1.422zm-.314-1.421h.314l.44.71h.25l-.502-.71c.251 0 .502-.13.502-.452 0-.323-.125-.452-.565-.452h-.69v1.679h.188v-.775h.063zm0-.194v-.517h.44c.188 0 .376 0 .376.259 0 .323-.314.258-.565.258h-.251z"/>
    </g>
</svg>
