<svg xmlns="http://www.w3.org/2000/svg" width="244" height="488" viewBox="0 0 244 488">
    <defs>
        <linearGradient id="a" x1="0%" y1="0%" y2="100%">
            <stop offset="0%" stop-color="#3023AE"/>
            <stop offset="100%" stop-color="#0069EF"/>
        </linearGradient>
    </defs>
    <path fill="url(#a)" fill-rule="evenodd" d="M244 488C109.243 488 0 378.757 0 244S109.243 0 244 0s244 109.243 244 244-109.243 244-244 244zm1.251-127.63c63.578 0 115.118-51.54 115.118-115.119 0-63.578-51.54-115.118-115.118-115.118-63.578 0-115.118 51.54-115.118 115.118 0 63.578 51.54 115.118 115.118 115.118zm1.252-70.073c-24.188 0-43.795-19.607-43.795-43.794 0-24.188 19.607-43.795 43.795-43.795 24.187 0 43.794 19.607 43.794 43.795 0 24.187-19.607 43.794-43.794 43.794z"/>
</svg>
