<svg xmlns="http://www.w3.org/2000/svg" width="244" height="244" viewBox="0 0 244 244">
    <path fill="#444" fill-rule="evenodd" d="M122 244C54.621 244 0 189.379 0 122 0 54.621 54.621 0 122 0c67.379 0 122 54.621 122 122 0 67.379-54.621 122-122 122zm.626-63.815c31.789 0 57.559-25.77 57.559-57.56 0-31.788-25.77-57.558-57.56-57.558-31.788 0-57.558 25.77-57.558 57.559 0 31.789 25.77 57.559 57.559 57.559zm.625-35.036c-12.093 0-21.897-9.804-21.897-21.898 0-12.093 9.804-21.897 21.897-21.897 12.094 0 21.898 9.804 21.898 21.897 0 12.094-9.804 21.898-21.898 21.898z" opacity=".3"/>
</svg>
