<svg xmlns="http://www.w3.org/2000/svg" width="28" height="32" viewBox="0 0 28 32">
    <g fill="#FFF" fill-rule="nonzero">
        <path d="M6 30h16v2H6zM22 28.306l1-7.9v-.1c0-1.3-1-2.3-2.3-2.3H7.3c-1.3-.1-2.3 1-2.3 2.2l1 8.1v.6h2v-.7l-1-8c0-.2.2-.3.3-.3h13.3c.2 0 .3.1.3.3l-1 7.9v.8h2l.1-.6z"/>
        <path d="M25.6 29c-.1.1-.2.2-.4.3l-1.6.8.9 1.8 1.6-.8.9-.6c.6-.6 1-1.5 1-2.4v-.8c0-.2 0-.4-.1-.6L26.3 18c-.3-1.7-1.5-3.1-3.1-3.8l-5.7-2.3v-.8l2-2.1V4.4c0-.8-.4-1.6-1-2.2L16.8.7C16.4.3 15.7 0 15 0h-2c-.7 0-1.4.3-1.9.7L9.4 2.2c-.6.5-1 1.3-1 2.2V9l2 2.1v.8l-5.7 2.3c-1.6.6-2.8 2.1-3.1 3.8L0 26.7V28c0 .9.4 1.8 1 2.4.3.3.6.5.9.6l1.6.8.9-1.8-1.6-.8C2.3 29 2 28.5 2 28v-.8-.3l1.6-8.7c.2-1 .9-1.9 1.8-2.3l7-2.8v-3l-2-2.1V4.4c0-.3.1-.5.3-.7l1.7-1.5c.2-.1.4-.2.6-.2h2c.2 0 .4.1.6.2l1.7 1.5c.2.2.3.4.3.7v3.8l-2 2.1v3l7 2.8c1 .4 1.7 1.2 1.8 2.3L26 27v1c0 .4-.1.7-.4 1z"/>
    </g>
</svg>
