<svg xmlns="http://www.w3.org/2000/svg" width="32" height="33" viewBox="0 0 32 33">
    <g fill="#FFF" fill-rule="nonzero">
        <path d="M22.1 29l9.3-5.7c.6-.4.8-1.2.4-1.8l-.3-.3c-1.4-1.3-3.5-1.5-5.2-.6l-5.5 2.5h-2c.4-.6.5-1.3.5-2v-2H7.9c-1.2 0-2.4.5-3.3 1.4L0 26.1v6.1h5.5L22.1 29zM2 30.2v-3.3l4.1-5c.5-.5 1.1-.7 1.8-.7h9.5c0 1.1-1 2-2.1 2H11v2h10.4l6-2.7c.6-.4 1.4-.5 2.1-.2l-8 4.9-16.2 3H2zM2 14c0-.2.2-.5.4-.5L7 11.3V8.7L5.3 6.9V3.8c0-.2.1-.3.2-.4l1.4-1.3c.1 0 .3-.1.4-.1h1.8c.1 0 .3 0 .4.1l1.4 1.3c.1.1.2.3.2.4v3.9l1.7 1.8v.5l-3.3 1.6c-1 .4-1.7 1.3-1.7 2.4v3.2h2V14c0-.2.2-.5.4-.5l4.6-2.2V8.7l-1.7-1.8V3.8c0-.2.1-.3.2-.4l1.4-1.3c.2 0 .3-.1.4-.1H17c.1 0 .3 0 .4.1l1.4 1.3c.1.1.2.2.2.4v3.1l-1.6 1.8v2.6l4.2 2.1.1.1c.2.1.4.3.4.5v5.1h2V14c0-1.1-.7-2-1.6-2.4l-3-1.6v-.5l1.6-1.8V3.8c0-.2.1-.3.2-.4l1.4-1.3c-.1-.1.1-.1.2-.1h1.8c.1 0 .3 0 .4.1l1.4 1.3c.1.1.2.3.2.4v3.1L25 8.7v2.6l4.5 2.1h.1c.2.1.4.3.4.5v5h2v-5c0-1.1-.7-2-1.7-2.4L27.1 10v-.5l1.7-1.8V3.8c0-.7-.3-1.5-.9-1.9L26.5.6c-.6-.4-1.2-.6-1.8-.6h-1.8c-.6 0-1.2.2-1.7.6l-1.3 1.2L18.6.6c-.4-.4-1-.6-1.6-.6h-1.8c-.6 0-1.2.2-1.7.6l-1.3 1.2L10.9.6C10.3.2 9.7 0 9.1 0H7.3c-.6 0-1.2.2-1.7.6L4.2 1.9c-.6.5-.9 1.2-.9 1.9v3.9L5 9.5v.5l-3.3 1.6C.7 12 0 12.9 0 14v5h2v-5z"/>
    </g>
</svg>
