<svg xmlns="http://www.w3.org/2000/svg" width="1583" height="259" viewBox="0 0 1583 259">
    <g fill="#227A18" fill-rule="nonzero" opacity=".5">
        <path d="M1399.531 210.67L1387.544 181 1369 188.492l11.987 29.67 18.544-7.492zm-5.385.019l-.6-1.484.774-1.822 1.484-.6 1.124 2.782-2.782 1.124zm-13.926.234l-6.743-16.69 2.225-.899 1.437-3.385-.9-2.225 5.564-2.247.899 2.225 3.292 1.474 2.318-.936 6.742 16.689-2.225.899-1.436 3.385.899 2.225-5.564 2.247-.899-2.225-3.384-1.437-2.225.9zm7.342-24.538l-1.483.6-1.823-.774-.599-1.484 2.782-1.123 1.123 2.781zm-13.177 2.088l.6 1.484-.774 1.822-1.484.6-1.123-2.782 2.781-1.124zm6.584 24.304l1.483-.6 1.823.774.6 1.484-2.782 1.123-1.124-2.781z"/>
        <path d="M1387.796 200.312l-.927.374.75 1.855.927-.375a2.006 2.006 0 0 0 1.105-2.604l-.375-.927.927-.374-.749-1.855-.927.375-.375-.927a2.006 2.006 0 0 0-2.603-1.106l-1.855.75a2.006 2.006 0 0 0-1.105 2.603l1.499 3.709-1.855.75-1.498-3.71.927-.374-.75-1.855-.926.375a2.006 2.006 0 0 0-1.106 2.604l.375.927-.927.374.749 1.855.927-.375.375.927a2.006 2.006 0 0 0 2.603 1.106l1.855-.75a2.006 2.006 0 0 0 1.105-2.603l-1.498-3.709 1.854-.75 1.498 3.71zM1270.682 49.254L1255.659 21 1238 30.39l15.023 28.254 17.659-9.39zm-5.354.582l-.75-1.413.578-1.893 1.413-.751 1.408 2.648-2.649 1.409zm-13.825 1.688l-8.45-15.893 2.118-1.127 1.075-3.516-1.126-2.119 5.297-2.817 1.127 2.12 3.428 1.121 2.207-1.173 8.45 15.893-2.118 1.126-1.075 3.517 1.126 2.119-5.297 2.817-1.127-2.12-3.516-1.075-2.12 1.127zm4.737-25.17l-1.412.75-1.894-.578-.75-1.413 2.648-1.408 1.408 2.649zm-12.886 3.454l.75 1.413-.578 1.893-1.413.751-1.408-2.649 2.649-1.408zm9.088 23.482l1.412-.751 1.894.579.75 1.413-2.648 1.408-1.408-2.649z"/>
        <path d="M1257.929 40.18l-.883.469.939 1.766.883-.47a2.006 2.006 0 0 0 .827-2.705l-.47-.883.883-.469-.939-1.766-.883.47-.47-.883a2.006 2.006 0 0 0-2.704-.827l-1.766.939a2.006 2.006 0 0 0-.827 2.704l1.878 3.532-1.766.94-1.878-3.533.883-.47-.939-1.765-.883.47a2.006 2.006 0 0 0-.827 2.704l.47.883-.883.47.939 1.766.883-.47.47.883a2.006 2.006 0 0 0 2.704.827l1.766-.939a2.006 2.006 0 0 0 .827-2.705l-1.878-3.531 1.766-.94 1.878 3.532zM1432.678 105.117l-31.98-1.117-.698 19.988 31.98 1.117.698-19.988zm-2.173 4.927l-1.599-.056-1.35-1.448.056-1.599 2.998.105-.105 2.998zm-5.45 12.818l-17.99-.629.084-2.398-2.507-2.69-2.399-.083.21-5.996 2.398.083 2.686-2.407.087-2.499 17.989.628-.084 2.399 2.508 2.689 2.398.084-.209 5.996-2.399-.084-2.689 2.508-.083 2.399zm-19.43-16.689l-.056 1.6-1.448 1.35-1.599-.056.105-2.998 2.998.104zm-3.452 12.888l1.6.056 1.35 1.448-.056 1.599-2.998-.105.104-2.998zm24.88 3.87l.056-1.599 1.448-1.35 1.6.056-.105 2.998-2.999-.105z"/>
        <path d="M1418.443 111.624l-.035 1 1.999.07.035-1c.038-1.1-.83-2.03-1.93-2.069l-.999-.035.035-1-1.999-.069-.035 1-.999-.035c-1.1-.039-2.03.83-2.069 1.929l-.07 1.998c-.038 1.1.83 2.03 1.93 2.069l3.997.14-.07 1.998-3.997-.14.035-.999-2-.07-.034 1c-.038 1.1.83 2.03 1.929 2.068l1 .035-.036 1 2 .07.034-1 1 .035c1.099.038 2.03-.83 2.068-1.929l.07-1.999c.038-1.099-.83-2.03-1.93-2.068l-3.997-.14.07-1.999 3.998.14zM806.472 240.737l26.212-18.354L821.213 206 795 224.354l11.472 16.383zm-1.23-5.242l1.31-.918 1.95.344.918 1.31-2.457 1.721-1.721-2.457zm-3.36-13.517l14.744-10.325 1.377 1.966 3.62.639 1.967-1.377 3.441 4.915-1.966 1.377-.696 3.539 1.434 2.048-14.745 10.324-1.376-1.966-3.621-.638-1.966 1.376-3.442-4.915 1.966-1.376.639-3.621-1.377-1.966zm25.56 1.635l-.918-1.311.344-1.95 1.31-.918 1.72 2.458-2.457 1.72zm-5-12.37l-1.31.918-1.95-.344-.918-1.31 2.458-1.722 1.72 2.458zm-22.2 11.882l.919 1.31-.344 1.95-1.31.918-1.722-2.457 2.458-1.721z"/>
        <path d="M813.925 226.973l-.574-.819-1.638 1.147.573.82a2.006 2.006 0 0 0 2.786.49l.819-.573.574.82 1.638-1.148-.574-.82.82-.573a2.006 2.006 0 0 0 .49-2.785l-1.147-1.638a2.006 2.006 0 0 0-2.785-.492l-3.277 2.295-1.147-1.639 3.277-2.294.573.82 1.639-1.148-.574-.819a2.006 2.006 0 0 0-2.785-.491l-.82.573-.573-.819-1.638 1.147.573.82-.819.573a2.006 2.006 0 0 0-.491 2.786l1.147 1.638a2.006 2.006 0 0 0 2.785.491l3.277-2.294 1.147 1.638-3.276 2.294zM615.893 143.616l23.019-22.23L625.019 107 602 129.23l13.893 14.386zm-2.034-4.986l1.15-1.112 1.98.035 1.112 1.15-2.158 2.085-2.084-2.158zm-5.434-12.825l12.948-12.504 1.667 1.727 3.676.064 1.727-1.667 4.168 4.316-1.727 1.667-.133 3.604 1.736 1.799-12.948 12.504-1.667-1.727-3.676-.064-1.727 1.667-4.168-4.316 1.727-1.667.064-3.676-1.667-1.727zm25.501-2.384l-1.111-1.15.034-1.98 1.151-1.112 2.084 2.158-2.158 2.084zm-6.873-11.435l-1.15 1.111-1.98-.034-1.112-1.151 2.159-2.084 2.083 2.158zm-20.067 15.208l1.111 1.151-.034 1.98-1.151 1.111-2.084-2.158 2.158-2.084z"/>
        <path d="M621.101 128.855l-.694-.72-1.439 1.39.695.72a2.006 2.006 0 0 0 2.828.049l.719-.695.695.72 1.438-1.39-.694-.719.719-.695a2.006 2.006 0 0 0 .05-2.828l-1.39-1.438a2.006 2.006 0 0 0-2.828-.05l-2.877 2.779-1.39-1.439 2.878-2.778.694.719 1.44-1.39-.696-.719a2.006 2.006 0 0 0-2.828-.05l-.719.696-.695-.72-1.438 1.39.694.719-.719.695a2.006 2.006 0 0 0-.05 2.828l1.39 1.438a2.006 2.006 0 0 0 2.828.05l2.877-2.779 1.39 1.439-2.878 2.778zM1010 45h32V25h-32v20zm2-5h1.6l1.4 1.4V43h-3v-3zm5-13h18v2.4l2.6 2.6h2.4v6h-2.4l-2.6 2.5V43h-18v-2.4l-2.6-2.6h-2.4v-6h2.4l2.6-2.6V27zm20 16v-1.6l1.4-1.4h1.6v3h-3zm3-13h-1.6l-1.4-1.4V27h3v3zm-25-3v1.6l-1.4 1.4h-1.6v-3h3z"/>
        <path d="M1024 38v-1h-2v1c0 1.1.9 2 2 2h1v1h2v-1h1c1.1 0 2-.9 2-2v-2c0-1.1-.9-2-2-2h-4v-2h4v1h2v-1c0-1.1-.9-2-2-2h-1v-1h-2v1h-1c-1.1 0-2 .9-2 2v2c0 1.1.9 2 2 2h4v2h-4z"/>
        <g>
            <path d="M514.99 201.327l-26.53-17.895-11.183 16.581 26.529 17.894 11.184-16.58zm-4.454 3.026l-1.327-.894-.378-1.944.895-1.326 2.487 1.677-1.677 2.487zm-11.415 7.982l-14.923-10.066 1.342-1.99-.701-3.609-1.99-1.342 3.355-4.974 1.99 1.342 3.553-.619 1.398-2.072 14.923 10.065-1.342 1.99.701 3.61 1.99 1.341-3.355 4.975-1.99-1.342-3.61.701-1.341 1.99zm-7.634-24.449l-.895 1.327-1.943.378-1.327-.895 1.678-2.487 2.487 1.677zm-9.756 9.1l1.326.895.378 1.944-.895 1.326-2.487-1.678 1.678-2.487zm19.048 16.467l.895-1.326 1.943-.378 1.327.895-1.678 2.487-2.487-1.678z"/>
            <path d="M499.469 199.301l-.56.83 1.659 1.118.559-.83a2.006 2.006 0 0 0-.54-2.776l-.829-.56.56-.828-1.659-1.119-.559.83-.83-.56a2.006 2.006 0 0 0-2.776.54l-1.118 1.658a2.006 2.006 0 0 0 .54 2.777l3.316 2.236-1.118 1.658-3.317-2.236.56-.83-1.658-1.118-.56.83a2.006 2.006 0 0 0 .54 2.776l.829.559-.56.829 1.659 1.118.56-.829.828.56a2.006 2.006 0 0 0 2.777-.54l1.118-1.658a2.006 2.006 0 0 0-.54-2.777l-3.316-2.237 1.119-1.658 3.316 2.237z"/>
        </g>
        <g>
            <path d="M1548 11.472l18.354 26.212 16.383-11.471L1564.383 0 1548 11.472zm5.243-1.23l.918 1.31-.344 1.95-1.31.918-1.722-2.457 2.458-1.721zm13.517-3.36l10.324 14.744-1.966 1.377-.638 3.62 1.376 1.967-4.915 3.441-1.376-1.966-3.54-.696-2.047 1.434-10.325-14.745 1.966-1.376.639-3.621-1.377-1.966 4.915-3.442 1.377 1.966 3.62.639 1.967-1.377zm-1.635 25.56l1.31-.918 1.95.344.918 1.31-2.457 1.72-1.721-2.457zm12.37-5l-.918-1.31.344-1.95 1.31-.918 1.721 2.458-2.457 1.72zm-11.882-22.2l-1.311.919-1.95-.344-.918-1.31 2.458-1.722 1.72 2.458z"/>
            <path d="M1561.764 18.925l.82-.574-1.148-1.638-.819.573a2.006 2.006 0 0 0-.491 2.786l.573.819-.819.574 1.147 1.638.82-.574.573.82a2.006 2.006 0 0 0 2.786.49l1.638-1.147a2.006 2.006 0 0 0 .491-2.785l-2.294-3.277 1.638-1.147 2.294 3.277-.819.573 1.147 1.639.82-.574a2.006 2.006 0 0 0 .49-2.785l-.573-.82.82-.573-1.148-1.638-.82.573-.573-.819a2.006 2.006 0 0 0-2.785-.491l-1.638 1.147a2.006 2.006 0 0 0-.492 2.785l2.295 3.277-1.639 1.147-2.294-3.276z"/>
        </g>
        <g>
            <path d="M1008.528 175L994 203.512l17.82 9.08 14.528-28.512-17.82-9.08zm3.547 4.052l-.727 1.426-1.883.611-1.425-.726 1.362-2.673 2.673 1.362zm9.313 10.357l-8.172 16.038-2.138-1.09-3.497 1.137-1.09 2.138-5.346-2.724 1.09-2.138-1.048-3.452-2.227-1.135 8.172-16.038 2.138 1.09 3.497-1.137 1.09-2.138 5.346 2.724-1.09 2.138 1.136 3.497 2.139 1.09zm-23.336 10.556l1.426.727.611 1.883-.726 1.425-2.673-1.362 1.362-2.673zm10.221 8.575l.726-1.426 1.883-.611 1.426.726-1.362 2.673-2.673-1.362zm14.023-20.913l-1.426-.727-.612-1.883.727-1.425 2.673 1.362-1.362 2.673z"/>
            <path d="M1008.409 190.652l.89.454.909-1.782-.891-.454c-.98-.5-2.19-.106-2.69.874l-.454.891-.891-.454-.908 1.782.89.454-.453.891c-.5.98-.106 2.19.874 2.69l1.782.908c.98.5 2.19.106 2.69-.874l1.816-3.564 1.782.908-1.816 3.564-.891-.454-.908 1.782.891.454c.98.5 2.19.106 2.69-.874l.454-.891.891.454.908-1.782-.891-.454.454-.891c.5-.98.106-2.19-.874-2.69l-1.782-.908c-.98-.5-2.19-.106-2.69.874l-1.816 3.564-1.782-.908 1.816-3.564z"/>
        </g>
        <g>
            <path d="M.16 228.611l10.418 30.257 18.91-6.512L19.07 222.1.16 228.61zm5.379.263l.52 1.513-.867 1.78-1.513.52-.977-2.836 2.837-.977zm13.92.496l5.86 17.019-2.27.781-1.612 3.305.782 2.27-5.673 1.953-.782-2.27-3.21-1.644-2.364.814-5.86-17.02 2.27-.78 1.611-3.306-.781-2.269 5.673-1.953.781 2.27 3.305 1.61 2.27-.78zm-8.618 24.119l1.513-.52 1.78.867.52 1.513-2.836.977-.977-2.837zm13.269-1.396l-.521-1.513.868-1.78 1.513-.52.976 2.837-2.836.976zm-5.303-24.614l-1.513.52-1.78-.867-.52-1.513 2.836-.977.977 2.837z"/>
            <path d="M11.337 239.57l.945-.326-.651-1.891-.946.325a2.006 2.006 0 0 0-1.24 2.543l.326.945-.945.326.65 1.89.946-.325.326.946a2.006 2.006 0 0 0 2.542 1.24l1.891-.652a2.006 2.006 0 0 0 1.24-2.542l-1.302-3.782 1.89-.65 1.303 3.781-.946.326.652 1.89.945-.325a2.006 2.006 0 0 0 1.24-2.542l-.326-.946.946-.325-.651-1.891-.946.325-.325-.945a2.006 2.006 0 0 0-2.542-1.24l-1.891.651a2.006 2.006 0 0 0-1.24 2.542l1.302 3.782-1.891.652-1.302-3.783z"/>
        </g>
        <g>
            <path d="M1188.99 162.889L1170.18 137 1154 148.756l18.81 25.888 16.18-11.755zm-5.221 1.32l-.94-1.294.31-1.956 1.294-.94 1.763 2.427-2.427 1.763zm-13.456 3.597l-10.58-14.563 1.941-1.41.575-3.632-1.41-1.942 4.854-3.526 1.41 1.941 3.551.634 2.023-1.47 10.58 14.563-1.942 1.41-.575 3.632 1.41 1.942-4.853 3.527-1.411-1.942-3.632-.575-1.941 1.41zm1.188-25.585l-1.294.94-1.956-.31-.94-1.294 2.427-1.763 1.763 2.427zm-12.28 5.214l.94 1.294-.31 1.956-1.294.94-1.763-2.427 2.427-1.763zm12.267 21.989l1.295-.94 1.955.309.94 1.294-2.426 1.764-1.764-2.427z"/>
            <path d="M1175.097 155.677l-.809.588 1.176 1.618.809-.588a2.006 2.006 0 0 0 .442-2.794l-.587-.809.809-.588-1.176-1.618-.809.588-.588-.809a2.006 2.006 0 0 0-2.793-.442l-1.618 1.175a2.006 2.006 0 0 0-.443 2.794l2.351 3.236-1.618 1.176-2.35-3.237.808-.587-1.175-1.618-.81.587a2.006 2.006 0 0 0-.442 2.794l.588.809-.81.588 1.176 1.618.81-.588.587.81a2.006 2.006 0 0 0 2.794.442l1.618-1.176a2.006 2.006 0 0 0 .442-2.794l-2.35-3.236 1.617-1.175 2.351 3.236z"/>
        </g>
        <g>
            <path d="M852 137.32l27.713-16-10-17.32L842 120l10 17.32zm-.768-5.33l1.386-.8 1.912.513.8 1.385-2.598 1.5-1.5-2.598zm-2.17-13.758l15.589-9 1.2 2.079 3.551.951 2.079-1.2 3 5.196-2.079 1.2-1.001 3.465 1.25 2.165-15.589 9-1.2-2.078-3.551-.952-2.079 1.2-3-5.196 2.079-1.2.951-3.551-1.2-2.079zm25.32 3.856l-.8-1.385.513-1.913 1.386-.8 1.5 2.598-2.598 1.5zm-3.901-12.758l-1.386.8-1.912-.512-.8-1.386 2.598-1.5 1.5 2.598zm-23.15 9.902l.8 1.386-.513 1.912-1.386.8-1.5-2.598 2.598-1.5z"/>
            <path d="M860.624 124.258l-.5-.866-1.732 1 .5.866a2.006 2.006 0 0 0 2.732.732l.866-.5.5.866 1.732-1-.5-.866.866-.5a2.006 2.006 0 0 0 .733-2.732l-1-1.732a2.006 2.006 0 0 0-2.733-.732l-3.464 2-1-1.732 3.464-2 .5.866 1.733-1-.5-.866a2.006 2.006 0 0 0-2.733-.732l-.866.5-.5-.866-1.732 1 .5.866-.866.5a2.006 2.006 0 0 0-.732 2.732l1 1.732a2.006 2.006 0 0 0 2.732.732l3.464-2 1 1.732-3.464 2z"/>
        </g>
    </g>
</svg>
