<svg xmlns="http://www.w3.org/2000/svg" width="32" height="24" viewBox="0 0 32 24">
    <g fill="none" fill-rule="evenodd">
        <path fill="#C60B1E" fill-rule="nonzero" d="M0 0h32v24H0z"/>
        <path fill="#FFC400" fill-rule="nonzero" d="M0 6h32v12H0z"/>
        <path fill="#CCC" fill-rule="nonzero" d="M6.34 15.28h.78v-3.83h-.78v3.825z"/>
        <path stroke="#000" stroke-width=".03" d="M6.9 11.46v3.815-3.815zm.085 0v3.815-3.815zm-.645 3.815h.78v-3.82h-.78v3.825-.005z"/>
        <path fill="#AD1519" fill-rule="nonzero" d="M7.92 12.885a2.48 2.48 0 0 0-1.165-.1c-.47.08-.825.265-.795.42v.01l-.175-.41c-.03-.165.36-.375.88-.46.165-.03.32-.04.46-.035.33 0 .62.04.79.105v.47"/>
        <path stroke="#000" stroke-linejoin="round" stroke-width=".03" d="M7.92 12.885a2.48 2.48 0 0 0-1.165-.1c-.47.08-.825.265-.795.42v.01l-.175-.41c-.03-.165.36-.375.88-.46.165-.03.32-.04.46-.035.33 0 .62.04.79.105v.47"/>
        <path fill="#AD1519" fill-rule="nonzero" d="M5.855 14.1c-.02-.06.19-.18.49-.29l.39-.16c.415-.185.72-.395.68-.47v-.01c.02.02.05.4.05.4.04.065-.24.275-.62.455-.125.06-.38.15-.5.2-.22.07-.435.215-.415.265l-.075-.385"/>
        <path stroke="#000" stroke-linejoin="round" stroke-width=".03" d="M5.855 14.1c-.02-.06.19-.18.49-.29l.39-.16c.415-.185.72-.395.68-.47v-.01c.02.02.05.4.05.4.04.065-.24.275-.62.455-.125.06-.38.15-.5.2-.22.07-.435.215-.415.265l-.075-.385V14.1z"/>
        <path fill="#CCC" fill-rule="nonzero" d="M13.505 15.28h.78v-3.83h-.78v3.825z"/>
        <path stroke="#000" stroke-width=".03" d="M14.07 11.455v3.815-3.815zm.09 0v3.815-3.815zm-.65 3.825h.775v-3.83h-.78v3.825l.005.005z"/>
        <path fill="#AD1519" fill-rule="nonzero" d="M12.71 12.885a2.48 2.48 0 0 1 1.165-.1c.465.08.82.265.795.42v.01l.175-.41c.03-.165-.365-.375-.88-.46a2.675 2.675 0 0 0-.46-.035c-.335 0-.62.04-.795.105v.47"/>
        <path stroke="#000" stroke-linejoin="round" stroke-width=".03" d="M12.71 12.885a2.48 2.48 0 0 1 1.165-.1c.465.08.82.265.795.42v.01l.175-.41c.03-.165-.365-.375-.88-.46a2.675 2.675 0 0 0-.46-.035c-.335 0-.62.04-.795.105v.47"/>
        <path fill="#AD1519" fill-rule="nonzero" d="M14.77 14.1c.02-.06-.19-.18-.485-.29-.14-.05-.25-.1-.39-.16-.415-.185-.72-.395-.68-.47v-.01c-.02.02-.05.4-.05.4-.04.065.24.275.62.455.12.06.38.15.5.2.215.07.435.215.415.265l.07-.385"/>
        <path stroke="#000" stroke-linejoin="round" stroke-width=".03" d="M14.77 14.1c.02-.06-.19-.18-.485-.29-.14-.05-.25-.1-.39-.16-.415-.185-.72-.395-.68-.47v-.01c-.02.02-.05.4-.05.4-.04.065.24.275.62.455.12.06.38.15.5.2.215.07.435.215.415.265l.07-.385V14.1z"/>
        <path fill="#C8B100" fill-rule="nonzero" d="M13.195 12.72c.03-.115.07-.22.105-.33h-.025a.26.26 0 0 1-.025.005 2.64 2.64 0 0 1-.07.24c-.05-.07-.1-.135-.135-.205l-.05.01h-.05c.07.093.136.188.2.285h.025l.025-.005zm.3-.33h-.05a.4.4 0 0 1-.04 0v.31h.21v-.035h-.13l.005-.275h.005zm.335.05l.1.015v-.035l-.29-.025v.04a.965.965 0 0 1 .1 0l-.02.28h.08l.025-.27.005-.005zm.115.305c.015 0 .025 0 .04.01l.04.01.035-.145.03.06.04.105.05.01c.02 0 .035.01.05.015l-.015-.035c-.02-.05-.05-.095-.065-.145.05 0 .095-.015.105-.06.005-.03 0-.05-.035-.075-.02-.015-.06-.02-.085-.025l-.12-.025-.07.3zm.15-.26c.035.01.075.015.075.05v.025c-.015.045-.05.06-.1.045l.025-.12zm.4.35l-.01.1.04.025.045.025.025-.35a.17.17 0 0 1-.035-.015l-.305.19.025.015.02.01.085-.06.115.065-.005-.005zm-.085-.075l.1-.07-.01.115-.09-.05v.005z"/>
        <path fill="#AD1519" fill-rule="nonzero" stroke="#000" stroke-width=".03" d="M10.285 8.77c.315 0 .6.05.785.12.23.095.481.135.73.115a1.422 1.422 0 0 1 .885.355l-.075.07-.02.19-.205.235-.1.09-.25.195-.125.01-.035.105-1.58-.185-1.585.185-.04-.105-.125-.01-.245-.2-.1-.085-.205-.235-.025-.19-.075-.07a1.38 1.38 0 0 1 .375-.235 1.3 1.3 0 0 1 .51-.12c.1.01.21.005.33-.01a1.5 1.5 0 0 0 .4-.1 2.12 2.12 0 0 1 .775-.125z"/>
        <path fill="#C8B100" fill-rule="nonzero" d="M9.115 9.19l.07.05.1-.16a.37.37 0 0 1-.18-.36c.01-.205.26-.38.585-.38.165 0 .315.05.425.12 0-.03 0-.06.01-.09a.87.87 0 0 0-.435-.105c-.37 0-.66.205-.675.455a.445.445 0 0 0 .15.38l-.05.09"/>
        <path stroke="#000" stroke-width=".03" d="M9.115 9.19l.07.05.1-.16a.37.37 0 0 1-.18-.36c.01-.205.26-.38.585-.38.165 0 .315.05.425.12 0-.03 0-.06.01-.09a.87.87 0 0 0-.435-.105c-.37 0-.66.205-.675.455a.445.445 0 0 0 .15.38l-.05.09"/>
        <path fill="#C8B100" fill-rule="nonzero" d="M8.005 9.355a.44.44 0 0 1-.115-.295c0-.065.015-.13.05-.19.1-.21.42-.36.8-.36.1 0 .2.01.295.03l-.05.07a1.275 1.275 0 0 0-.245-.02c-.35 0-.64.135-.725.315a.35.35 0 0 0-.035.155c.001.109.05.211.135.28l-.13.205-.065-.05.085-.14"/>
        <path stroke="#000" stroke-width=".03" d="M8.005 9.355a.44.44 0 0 1-.115-.295c0-.065.015-.13.05-.19.1-.21.42-.36.8-.36.1 0 .2.01.295.03l-.05.07a1.275 1.275 0 0 0-.245-.02c-.35 0-.64.135-.725.315a.35.35 0 0 0-.035.155c.001.109.05.211.135.28l-.13.205-.065-.05.085-.14z"/>
        <path fill="#C8B100" fill-rule="nonzero" d="M10.3 8.22c.085 0 .16.055.175.13.015.07.02.145.02.225v.055c.005.165.03.315.065.405l-.26.25-.26-.25c.035-.09.06-.24.065-.405v-.055c0-.08.01-.155.02-.225.015-.075.09-.13.175-.13"/>
        <path stroke="#000" stroke-width=".03" d="M10.3 8.22c.085 0 .16.055.175.13.015.07.02.145.02.225v.055c.005.165.03.315.065.405l-.26.25-.26-.25c.035-.09.06-.24.065-.405v-.055c0-.08.01-.155.02-.225.015-.075.09-.13.175-.13z"/>
        <path fill="#C8B100" fill-rule="nonzero" d="M11.485 9.19l-.065.05-.1-.16a.37.37 0 0 0 .18-.315.35.35 0 0 0 0-.045c-.01-.205-.265-.38-.585-.38a.75.75 0 0 0-.425.12 1.15 1.15 0 0 0-.01-.09.87.87 0 0 1 .435-.105c.37 0 .66.205.67.455a.445.445 0 0 1-.15.38l.05.09"/>
        <path stroke="#000" stroke-width=".03" d="M11.485 9.19l-.065.05-.1-.16a.37.37 0 0 0 .18-.315.35.35 0 0 0 0-.045c-.01-.205-.265-.38-.585-.38a.75.75 0 0 0-.425.12 1.15 1.15 0 0 0-.01-.09.87.87 0 0 1 .435-.105c.37 0 .66.205.67.455a.445.445 0 0 1-.15.38l.05.09"/>
        <path fill="#C8B100" fill-rule="nonzero" d="M12.6 9.355a.44.44 0 0 0 .065-.485c-.1-.21-.42-.36-.8-.36-.105 0-.205.01-.3.03l.05.07a1.27 1.27 0 0 1 .25-.02c.35 0 .64.135.72.315a.365.365 0 0 1-.095.435l.125.205.065-.05-.085-.14"/>
        <path stroke="#000" stroke-width=".03" d="M12.6 9.355a.44.44 0 0 0 .065-.485c-.1-.21-.42-.36-.8-.36-.105 0-.205.01-.3.03l.05.07a1.27 1.27 0 0 1 .25-.02c.35 0 .64.135.72.315a.365.365 0 0 1-.095.435l.125.205.065-.05-.085-.14h.005z"/>
        <path fill="#C8B100" fill-rule="nonzero" stroke="#000" stroke-width=".03" d="M10.31 9.59l.06.01a.23.23 0 0 0 .225.3c.097 0 .185-.06.22-.15.005 0 .025-.085.035-.085.01 0 .005.09.01.085.015.115.12.19.235.19a.23.23 0 0 0 .235-.25l.075-.075.035.1a.2.2 0 0 0-.02.095.22.22 0 0 0 .225.21c.08 0 .15-.035.19-.095l.045-.06v.075c0 .075.03.14.1.15 0 0 .085.005.2-.08a1.38 1.38 0 0 0 .165-.155l.01.085s-.09.14-.19.2c-.05.03-.135.065-.2.05-.07-.01-.12-.065-.15-.13a.335.335 0 0 1-.165.05.325.325 0 0 1-.305-.185.35.35 0 0 1-.52-.015.345.345 0 0 1-.515-.06.35.35 0 0 1-.52.06.35.35 0 0 1-.52.015.325.325 0 0 1-.3.185.335.335 0 0 1-.17-.05c-.03.065-.075.12-.15.135-.06.01-.145-.025-.2-.055-.1-.06-.19-.2-.19-.2l.01-.085s.06.07.17.155c.11.09.195.08.195.08.07-.01.1-.075.1-.15v-.075l.05.06a.23.23 0 0 0 .185.1.222.222 0 0 0 .205-.315l.04-.095.075.075v.03c0 .12.1.22.23.22.12 0 .22-.075.235-.19 0 0 0-.08.01-.085.01 0 .03.085.035.08a.235.235 0 0 0 .225.155.23.23 0 0 0 .225-.3l.06-.01"/>
        <path fill="#C8B100" fill-rule="nonzero" stroke="#000" stroke-width=".03" d="M9.135 9.2a.255.255 0 0 1 .11.145s0-.015.03-.03.05-.015.05-.015l-.005.065-.015.11a.37.37 0 0 1-.035.08.095.095 0 0 0-.075-.02.09.09 0 0 0-.06.045s-.035-.03-.06-.065l-.055-.1-.035-.055s.025-.01.055 0c.03 0 .04.01.04.01a.245.245 0 0 1 .05-.17m.02.49a.09.09 0 0 1-.03-.05c0-.025 0-.045.015-.06 0 0-.045-.025-.09-.035-.035-.01-.1-.01-.115-.01h-.05l.01.025c.01.025.025.035.025.035a.25.25 0 0 0-.15.1c.05.037.113.055.175.05l-.01.04v.03l.05-.02c.015-.005.075-.025.1-.05a.336.336 0 0 0 .075-.055m.135-.025a.08.08 0 0 0 .01-.055.085.085 0 0 0-.03-.05l.07-.065a.5.5 0 0 1 .1-.045l.055-.02v.03a.285.285 0 0 1-.01.04.254.254 0 0 1 .17.05.25.25 0 0 1-.145.1.32.32 0 0 0 .035.06h-.05c-.02 0-.08 0-.115-.01a.55.55 0 0 1-.09-.035M10.23 9.59a.1.1 0 0 1-.025-.06c0-.025.005-.05.02-.065 0 0-.04-.035-.09-.05a.34.34 0 0 0-.125-.035l-.06-.01.01.03.02.045a.295.295 0 0 0-.185.085c.05.045.115.08.185.08l-.02.05-.01.03.06-.01c.02-.005.09-.02.125-.035.05-.02.095-.05.095-.05m.15 0a.095.095 0 0 0 .005-.13s.045-.035.09-.05a.4.4 0 0 1 .125-.035l.06-.015-.005.035-.02.045c.07 0 .135.04.18.085a.295.295 0 0 1-.18.08.345.345 0 0 0 .025.08l-.06-.01-.125-.035c-.05-.02-.09-.05-.09-.05m1.1-.4a.26.26 0 0 0-.11.15s-.01-.015-.035-.03c-.03-.015-.05-.015-.05-.015l.01.065c0 .015 0 .065.015.11.01.05.03.08.03.08a.1.1 0 0 1 .075-.02c.03.005.05.025.065.045l.055-.065a.42.42 0 0 0 .055-.1l.035-.055s-.02-.01-.05 0c-.035 0-.05.01-.05.01a.245.245 0 0 0-.05-.17m-.015.49a.104.104 0 0 0 .03-.05.08.08 0 0 0-.01-.06s.04-.025.085-.035c.035-.01.1-.01.115-.01h.055l-.015.025a.31.31 0 0 1-.02.035.25.25 0 0 1 .145.1.265.265 0 0 1-.175.05l.01.04v.03l-.05-.02a.366.366 0 0 1-.1-.05c-.04-.02-.07-.055-.07-.055m-.14-.025a.085.085 0 0 1-.01-.055c0-.025.015-.04.03-.05 0 0-.03-.04-.07-.065a.524.524 0 0 0-.1-.045 8.57 8.57 0 0 1-.05-.02v.03c0 .025.01.04.01.04a.26.26 0 0 0-.175.05.268.268 0 0 0 .15.1s-.015.01-.025.035l-.015.025h.05c.02 0 .085 0 .115-.01a.555.555 0 0 0 .09-.035"/>
        <path fill="#AD1519" fill-rule="nonzero" stroke="#000" stroke-width=".03" d="M8.15 9.84c.03-.025.08-.02.12.015.035.03.05.075.02.1-.025.03-.075.025-.11-.01-.04-.03-.05-.08-.025-.1m2.05-.315a.1.1 0 0 1 .1-.1c.055 0 .105.045.105.1 0 .05-.05.1-.1.1a.1.1 0 0 1-.105-.1"/>
        <path fill="#CCC" fill-rule="nonzero" d="M10.325 16.53a4.1 4.1 0 0 1-1.775-.41 1.135 1.135 0 0 1-.64-1.02v-1.6h4.82v1.6c0 .434-.249.83-.64 1.02a4.05 4.05 0 0 1-1.765.41"/>
        <path stroke="#000" stroke-width=".03" d="M10.325 16.53a4.1 4.1 0 0 1-1.775-.41 1.135 1.135 0 0 1-.64-1.02v-1.6h4.82v1.6c0 .434-.249.83-.64 1.02a4.05 4.05 0 0 1-1.765.41z"/>
        <path fill="#CCC" fill-rule="nonzero" d="M10.315 13.5h2.415v-2.675h-2.415z"/>
        <path stroke="#000" stroke-width=".03" d="M10.315 13.5h2.415v-2.675h-2.415z"/>
        <path fill="#AD1519" fill-rule="nonzero" d="M10.315 15.1c0 .63-.535 1.145-1.2 1.145-.665 0-1.21-.515-1.21-1.15v-1.6h2.41v1.6"/>
        <path fill="#AD1519" fill-rule="nonzero" d="M7.905 13.5h2.41v-2.675H7.9V13.5z"/>
        <path stroke="#000" stroke-width=".03" d="M7.905 13.5h2.41v-2.675H7.9V13.5z"/>
        <path stroke="#000" stroke-width=".03" d="M10.315 15.1c0 .63-.535 1.145-1.2 1.145-.665 0-1.21-.515-1.21-1.15v-1.6h2.41v1.6"/>
        <path fill="#AD1519" fill-rule="nonzero" d="M12.73 13.5v1.6c0 .63-.54 1.145-1.205 1.145s-1.21-.515-1.21-1.15v-1.6h2.415"/>
        <path stroke="#000" stroke-width=".03" d="M12.73 13.5v1.6c0 .63-.54 1.145-1.205 1.145s-1.21-.515-1.21-1.15v-1.6h2.415"/>
        <path fill="#C8B100" fill-rule="nonzero" d="M10.755 14.705l.005.025c0 .03-.025.05-.055.05a.05.05 0 0 1-.055-.05v-.025h-.075a.125.125 0 0 0 .09.145v.195h.08v-.195a.13.13 0 0 0 .085-.08h.22v-.06h-.3l.005-.005zm1.085.005v.06h-.2a.125.125 0 0 1-.015.03l.23.26-.06.05-.23-.265-.01.005v.435h-.08v-.435h-.01l-.24.26-.06-.05.235-.265a.105.105 0 0 1-.01-.02h-.2V14.7h.65v.01zm.13 0v.06h.22c.015.04.045.07.085.08v.195h.08v-.195a.125.125 0 0 0 .09-.12.1.1 0 0 0 0-.025h-.08l.005.025a.05.05 0 0 1-.05.05c-.035 0-.06-.02-.06-.05a.05.05 0 0 1 .005-.025h-.295v.005zm-.335 1.1a.78.78 0 0 0 .185-.05l.04.07a.88.88 0 0 1-.215.06.13.13 0 0 1-.13.1.13.13 0 0 1-.125-.1.875.875 0 0 1-.23-.06l.04-.07c.065.025.13.045.2.05a.125.125 0 0 1 .075-.065v-.335h.08v.335c.035.01.065.035.08.07v-.005zm-.55-.11l-.04.07a.83.83 0 0 1-.18-.155c-.045.01-.09 0-.125-.025a.12.12 0 0 1-.015-.175l.005-.005a.765.765 0 0 1-.065-.24h.085a.655.655 0 0 0 .05.2c.025 0 .05 0 .07.01l.205-.225.065.05-.205.225c.025.045.025.1-.005.14a.76.76 0 0 0 .155.13zm-.3-.24c.015-.02.05-.025.075 0 .025.025.025.05.005.07a.06.06 0 0 1-.08.005.05.05 0 0 1 0-.075zm-.105-.225l-.084-.015-.016-.215.09-.03v.125c0 .05 0 .09.01.135zm.065-.265l.085.02v.11c0-.04.015.105.015.105l-.085.03a.7.7 0 0 1-.015-.135v-.13zm.28.685a.785.785 0 0 0 .24.13l.02-.08a.685.685 0 0 1-.2-.1l-.06.05zm-.04.07a.87.87 0 0 0 .24.13l-.06.055a.935.935 0 0 1-.2-.1l.02-.085zm.11-.47l.08.035.15-.165-.05-.07-.18.2zm-.065-.05l-.05-.07.15-.165.08.035-.18.2zm.905.495l.04.07a.835.835 0 0 0 .18-.155c.045.01.09 0 .125-.025a.12.12 0 0 0 .015-.175l-.005-.005a.75.75 0 0 0 .065-.24h-.085a.665.665 0 0 1-.05.2.15.15 0 0 0-.07.01l-.205-.225-.065.05.205.225a.12.12 0 0 0 .005.14.75.75 0 0 1-.155.13zm.3-.24a.06.06 0 0 0-.075 0 .05.05 0 0 0-.005.07.06.06 0 0 0 .08.005.05.05 0 0 0 0-.075zm.11-.225l.084-.015.016-.215-.09-.03v.125c0 .05 0 .095-.01.14v-.005zm-.07-.265l-.085.02v.11c0-.04-.015.105-.015.105l.085.03.015-.135v-.13zm-.28.685a.785.785 0 0 1-.24.13l-.02-.08a.685.685 0 0 0 .2-.1l.06.05zm.04.07a.87.87 0 0 1-.24.13l.06.055a.93.93 0 0 0 .2-.1l-.02-.085zm-.11-.47l-.08.035-.145-.165.05-.07.175.2zm.065-.05l.05-.07-.15-.165-.08.035.18.2zm-1.005-.435l.025.1h.225l.025-.1h-.275zm1.055 0l-.025.1h-.225l-.025-.1h.275zm-.58 1.095c0-.03.025-.05.055-.05a.05.05 0 1 1 .005.1.055.055 0 0 1-.06-.05zm.095-.39l.1-.02v-.215l-.1-.025v.26zm-.065 0l-.1-.02v-.215l.1-.025v.26z"/>
        <path fill="#C8B100" fill-rule="nonzero" d="M10.575 14.71c.01-.05.05-.08.09-.1v-.26h.08v.265c.04.015.075.045.085.08h.22v.015h-.3a.06.06 0 0 0-.05-.03c-.02 0-.035.015-.05.03h-.075zm.61 0v-.015h.205a.12.12 0 0 1 .01-.015l-.25-.285.06-.05.25.28.01-.005v-.37h.08v.365h.015l.245-.275.06.05-.245.275.015.03h.2v.015h-.655zm1.08 0a.055.055 0 0 1 .05-.03c.025 0 .04.015.05.03h.08c-.01-.05-.045-.08-.09-.1v-.26h-.08v.265a.135.135 0 0 0-.085.08h-.22v.015h.3-.005zm-1.505-.75l.3.34.065-.05-.305-.335.015-.03h.22V13.8h-.22a.13.13 0 0 0-.125-.085.13.13 0 0 0-.135.125c0 .056.037.104.09.12v.26h.08v-.26h.015zm1.6 0v.265h-.085v-.26a.125.125 0 0 1-.02-.01l-.3.34-.065-.05.31-.345-.005-.015h-.225V13.8h.225a.13.13 0 0 1 .12-.085.13.13 0 0 1 .135.125c0 .057-.04.106-.095.12h.005zm-.805 0v.165h-.085v-.16a.13.13 0 0 1-.085-.08h-.2V13.8h.2a.13.13 0 0 1 .125-.085c.06 0 .11.035.125.085h.2v.08h-.2a.125.125 0 0 1-.08.08zm-.875.2l-.1.02v.215l.1.025v-.26zm.065 0l.1.02v.215l-.1.025v-.26zm1.545 0l-.1.02v.215l.1.025v-.26zm.065 0l.1.02v.215l-.1.025v-.26zm-1.275.04l.08-.035.145.165-.05.07-.175-.2zm-.065.05l-.05.07.15.165.08-.035-.18-.2zm.925-.055l-.08-.035-.15.165.05.07.18-.2zm.06.05l.05.07-.15.165-.075-.035.175-.2zm-1.015.47l.025-.1h.225l.025.1h-.275zm-.335-.87c0-.03.025-.05.06-.05a.05.05 0 0 1 .05.05c0 .03-.02.05-.05.05a.055.055 0 0 1-.06-.05zm.605.04l-.025.1h-.225l-.025-.1h.275zm0-.06l-.025-.1h-.225l-.025.1h.275zm.785.89l-.025-.1h-.225l-.025.1h.275zm.22-.87c0-.03.025-.05.055-.05a.05.05 0 1 1 .005.1.055.055 0 0 1-.06-.05zm-.805 0c0-.03.025-.05.055-.05a.05.05 0 0 1 .055.05c0 .03-.025.05-.055.05a.055.055 0 0 1-.055-.05zm.31.04l.025.1h.23l.025-.1h-.28zm0-.06l.025-.1h.23l.025.1h-.28zm-.28.23l-.1.025v.215l.1.025v-.27.005zm.07-.005l.1.025v.215l-.1.025v-.265z"/>
        <path stroke="#C8B100" stroke-width=".03" d="M11.635 15.815a.78.78 0 0 0 .185-.055l.04.07a.88.88 0 0 1-.215.06.13.13 0 0 1-.13.1.13.13 0 0 1-.125-.1.875.875 0 0 1-.23-.06l.04-.07c.065.025.13.045.2.05a.125.125 0 0 1 .075-.065v-.335h.08v.335c.035.01.065.035.08.07zm-.235-1.02a.115.115 0 0 1-.01-.025h-.2v-.07h.2a.13.13 0 0 1 .01-.02l-.25-.28.06-.05.25.275a.11.11 0 0 1 .01 0v-.375h.085v.365h.01l.245-.275.06.05-.245.275.015.03h.2v.075h-.2c0 .01-.01.02-.015.025l.235.265-.065.05-.23-.265-.01.005v.435h-.08v-.435l-.01-.005-.24.265-.06-.05.235-.265zm-.64-.835l.3.34.065-.05-.305-.335.015-.03h.22V13.8h-.22a.13.13 0 0 0-.125-.085.13.13 0 0 0-.13.125c0 .054.034.103.085.12v.26h.08v-.26h.015zm.325 1.74l-.04.07a.83.83 0 0 1-.18-.155c-.045.01-.09 0-.125-.025a.12.12 0 0 1-.015-.175l.005-.005a.765.765 0 0 1-.06-.24h.08a.655.655 0 0 0 .05.2c.025 0 .05 0 .07.01l.205-.225.065.05-.205.225a.12.12 0 0 1-.005.14.76.76 0 0 0 .155.13zm-.42-.655v-.195a.125.125 0 0 1-.09-.12c0-.05.04-.1.09-.12v-.26h.08v.265c.04.01.075.04.085.08h.22v.075h-.22a.13.13 0 0 1-.08.08v.195h-.085zm.115.415a.056.056 0 0 1 .08 0c.025.025.025.05.005.07a.06.06 0 0 1-.08.005.05.05 0 0 1 0-.075h-.005zm-.1-.225l-.085-.015-.015-.215.085-.03v.125c0 .05 0 .09.015.135zm.07-.265l.08.02v.11c0-.04.015.105.015.105l-.085.03-.015-.135v-.13h.005zm.275.685a.785.785 0 0 0 .24.13l.02-.08a.685.685 0 0 1-.2-.1l-.06.05zm-.04.07a.87.87 0 0 0 .24.13l-.06.055a.935.935 0 0 1-.2-.1l.02-.085z"/>
        <path stroke="#C8B100" stroke-width=".03" d="M11.095 15.255l.08.035.15-.165-.05-.07-.18.2zm-.065-.05l-.05-.07.15-.165.08.035-.18.2zm-.38-.475c0-.03.025-.05.05-.05.035 0 .06.025.06.05 0 .03-.025.055-.055.055a.05.05 0 0 1-.055-.05v-.005zm1.285.97l.04.07a.835.835 0 0 0 .18-.155c.045.01.09 0 .13-.025a.12.12 0 0 0 .01-.175l-.005-.005a.75.75 0 0 0 .065-.24h-.085a.665.665 0 0 1-.05.2.15.15 0 0 0-.07.01l-.205-.225-.065.05.205.225a.12.12 0 0 0 .005.14.75.75 0 0 1-.15.13h-.005zm.42-.655v-.195a.125.125 0 0 0 .09-.12c0-.05-.035-.1-.09-.12v-.26h-.08v.265c-.04.01-.07.04-.085.08h-.22v.075h.22c.015.04.045.065.085.08v.195h.08zm-.115.415a.06.06 0 0 0-.08 0 .05.05 0 0 0-.005.07.06.06 0 0 0 .08.005.05.05 0 0 0 0-.075h.005zm.1-.225l.085-.015.015-.215-.085-.03v.125c0 .05 0 .09-.01.135h-.005zm-.065-.265l-.085.02v.11c0-.04-.015.105-.015.105l.085.03.015-.135v-.13zm.08-1.005v.26h-.08v-.26a.115.115 0 0 1-.02-.01l-.3.34-.06-.05.3-.35v-.01h-.225V13.8h.22a.13.13 0 0 1 .125-.085.13.13 0 0 1 .13.125.125.125 0 0 1-.09.12v.005zm-.8 0v.16h-.085v-.16a.13.13 0 0 1-.085-.08h-.2V13.8h.2a.131.131 0 0 1 .125-.085c.06 0 .11.035.125.085h.2v.08h-.2a.125.125 0 0 1-.08.08v.005zm.44 1.69a.785.785 0 0 1-.24.13l-.02-.08a.685.685 0 0 0 .2-.1l.06.05zm.04.07a.87.87 0 0 1-.24.13l.06.055a.935.935 0 0 0 .2-.1l-.02-.085zm-1.355-1.57l-.1.025v.215l.1.025v-.265zm.07.005l.1.02v.215l-.1.025v-.27.01zm1.54-.01l-.1.025v.215l.1.025v-.265z"/>
        <path stroke="#C8B100" stroke-width=".03" d="M12.355 14.155l.1.025v.215l-.1.025v-.27.005zm-.43 1.095l-.08.035-.145-.165.05-.07.175.2zm.065-.05l.05-.07-.15-.165-.08.035.18.2zm-.91-1l.08-.035.15.165-.05.07-.18-.2zm-.065.05l-.05.07.15.165.08-.035-.18-.2zm.925-.055l-.08-.035-.15.165.05.07.18-.2zm.06.05l.05.07-.15.16-.075-.03.175-.2zm-1.015.47l.025-.1h.225l.025.1h-.275zm0 .055l.025.1h.225l.025-.1h-.275zm-.335-.92c0-.03.025-.05.06-.05.03 0 .05.02.05.05 0 .03-.02.05-.05.05a.05.05 0 0 1-.06-.05zm.605.04l-.025.1h-.225l-.025-.1h.275zm0-.06l-.025-.1h-.225l-.025.1h.275zm1.005.905c0-.025.025-.05.055-.05s.055.025.055.05c0 .03-.025.055-.05.055a.05.05 0 0 1-.06-.05v-.005zm-.22-.015l-.025-.1h-.225l-.025.1h.275zm0 .055l-.025.1h-.225l-.025-.1h.275zm-.58 1.095c0-.03.025-.05.055-.05s.055.02.055.05a.05.05 0 0 1-.05.05.055.055 0 0 1-.06-.05zm.095-.39l.1-.02v-.215l-.1-.025v.26zm-.065 0l-.1-.02v-.215l.1-.025v.26zm.77-1.63c0-.03.025-.05.055-.05a.05.05 0 1 1 .005.1.055.055 0 0 1-.06-.05zm-.805 0c0-.03.025-.05.055-.05a.05.05 0 1 1 .005.1.055.055 0 0 1-.06-.05zm.31.04l.025.1h.23l.025-.1h-.28zm.005-.06l.02-.1h.23l.025.1h-.275zm-.28.23l-.1.025v.215l.1.025v-.275.01zm.065-.01l.1.025v.215l-.1.025v-.265z"/>
        <path fill="#ED72AA" fill-rule="nonzero" stroke="#000" stroke-width=".03" d="M11.905 11.375v.07c.01.03-.005.06 0 .075 0 .02.005.03.015.045l.01.045-.035-.025-.03-.02v.05c.005.01.015.04.03.055l.05.065c.01.025.005.07.005.07s-.02-.035-.04-.04l-.06-.035s.035.04.035.075c0 .04-.015.08-.015.08s-.015-.035-.04-.055l-.05-.045s.02.06.02.1V12l-.045-.05-.05-.035c0-.01.025.03.03.055 0 .025.015.115.09.225.05.065.115.18.265.145.15-.04.095-.24.065-.335a.84.84 0 0 1-.05-.23c0-.04.03-.145.025-.165a.4.4 0 0 1 .01-.155c.02-.065.035-.09.045-.115.01-.03.02-.045.02-.065l.005-.065.035.065.005.075s.005-.05.05-.08c.04-.03.09-.055.1-.07.015-.015.015-.025.015-.025s0 .09-.03.13l-.085.1s.035-.015.06-.015h.045s-.03.02-.07.08c-.04.05-.025.06-.05.105-.03.05-.05.05-.085.075-.05.04-.025.21-.02.235.01.025.1.225.1.275 0 .05.01.16-.075.23-.055.05-.15.05-.17.06-.02.015-.06.055-.06.14 0 .085.03.1.05.12.03.025.06.01.065.03.01.015.01.025.025.035.01.01.015.02.01.04 0 .015-.04.055-.055.085l-.04.12c0 .01-.005.05.005.065 0 0 .045.05.015.06-.02.01-.04-.01-.05-.01l-.045.025c-.015-.005-.015-.015-.02-.04l-.005-.035c-.01 0-.015.01-.02.025 0 .01 0 .04-.015.04-.01 0-.025-.02-.04-.025-.01 0-.04-.01-.04-.02 0-.015.02-.045.035-.05.02 0 .04-.015.025-.025-.015-.01-.025-.01-.035 0-.01.01-.04 0-.035-.01v-.04c0-.01-.02-.025.005-.04.03-.015.04.01.07.005.03 0 .04-.015.05-.03.01-.015.01-.05-.01-.07-.02-.025-.035-.025-.045-.04l-.015-.045v.11l-.035-.04a.224.224 0 0 1-.03-.065v.065c0 .02.015.035.01.04-.005.005-.04-.035-.05-.04a.185.185 0 0 1-.05-.05l-.02-.07a.21.21 0 0 1 0-.075l.02-.05h-.07c-.035 0-.06-.015-.075.01s-.01.075.01.14c.015.06.025.095.02.105a.15.15 0 0 1-.035.04h-.045a.125.125 0 0 0-.06-.015h-.065l-.055-.015c-.015.005-.04.015-.03.035.01.03-.01.035-.025.035l-.045-.01c-.02-.005-.045 0-.04-.02 0-.02.01-.02.02-.035.01-.015.01-.025 0-.025h-.03c-.01.01-.025.025-.04.02-.01-.005-.02-.02-.02-.05 0-.03-.035-.06 0-.055.025 0 .065.02.07 0 .01-.015 0-.02-.01-.035-.01-.015-.04-.02-.015-.035l.035-.025c.005-.01.02-.04.035-.03.03.01 0 .035.03.065.03.035.05.05.1.04.05 0 .065-.01.065-.025l-.005-.05v-.05s-.02.015-.025.03l-.02.04v-.1a.4.4 0 0 0-.01-.04l-.015.045-.005.05s-.035-.025-.025-.075c.005-.035-.005-.08.005-.1.01-.015.035-.075.1-.08h.13l.1-.015s-.14-.07-.175-.095a.475.475 0 0 1-.1-.1l-.03-.08s-.025 0-.05.015a.25.25 0 0 0-.06.05l-.035.05.005-.06v-.04s-.02.06-.05.085l-.07.05v-.04l.01-.05s-.02.04-.055.05c-.035 0-.09 0-.095.02 0 .025.01.05 0 .07 0 .015-.02.025-.02.025s-.02-.015-.04-.02a.07.07 0 0 0-.035.01s-.015-.02-.01-.035c.005-.01.035-.03.025-.04l-.04.01c-.015.005-.04.015-.04-.01 0-.02.01-.035 0-.05 0-.015 0-.025.01-.03l.06-.005c0-.01-.01-.025-.04-.03-.03-.005-.04-.025-.025-.04.015-.01.015-.015.025-.03.005-.01.01-.035.035-.025.025.015.02.04.05.05a.2.2 0 0 0 .1-.01l.075-.05.075-.05-.05-.04c-.015-.015-.035-.045-.05-.05a.415.415 0 0 0-.09-.03c-.02 0-.085-.025-.085-.025l.04-.015c.01-.01.03-.03.04-.03h.015-.07c-.015-.005-.05-.03-.065-.03l-.04.005s.04-.02.07-.025l.05-.005s-.045-.015-.055-.03l-.03-.05c-.01-.005-.015-.025-.03-.025l-.05.015c-.02 0-.03-.01-.03-.03l-.005-.025c-.01-.015-.03-.04-.01-.05h.07c0-.01-.025-.03-.04-.04-.02-.01-.05-.025-.035-.04l.04-.025c.01-.015.015-.05.035-.035.02.01.04.06.055.055.015 0 .015-.04.015-.05 0-.02 0-.05.01-.045.015 0 .025.02.05.025.02 0 .05-.005.05.01s-.015.035-.03.05-.02.05-.015.07c.01.025.035.06.06.07.02.015.06.025.085.045.025.015.085.06.105.065l.04.02s.025-.01.055-.01c.035 0 .105 0 .13-.01.03-.01.065-.03.05-.05-.005-.03-.065-.05-.06-.07 0-.02.025-.02.06-.02.04 0 .09.005.1-.05.01-.05.01-.075-.04-.09-.05-.01-.09-.01-.1-.05-.01-.035-.02-.045-.01-.055.015-.01.03-.015.07-.02.04 0 .08 0 .095-.01.01-.01.015-.035.03-.045.015-.01.07-.02.07-.02s.07.035.135.085a.75.75 0 0 1 .11.105"/>
        <path fill="#C8B100" fill-rule="nonzero" stroke="#000" stroke-width=".03" d="M8.735 11.445h-.05v-.05H8.61v.18h.08v.125h-.17v.35h.09v.715h-.175v.365h1.36v-.365H9.62v-.715h.09v-.35h-.17v-.125h.08V11.4h-.08v.045H9.5v-.05h-.08v.05h-.055v-.05h-.08v.18h.08v.125H9.2v-.39h.085v-.175H9.2v.045h-.05v-.05h-.075v.05H9.03v-.05h-.08v.18h.085v.39H8.87v-.125h.08V11.4h-.08v.045h-.045v-.05h-.09v.05zm-.3 1.685H9.8 8.435zm0-.09H9.8 8.435zm0-.09H9.8 8.435zm0-.085H9.8 8.435zm0-.1H9.8 8.435zm.175-.08h1.01-1.01zm0-.09h1.01-1.01zm0-.1h1.01-1.01zm0-.085h1.01-1.01zm0-.09h1.01-1.01zm0-.09h1.01-1.01zm0-.085h1.01-1.01zm-.09-.09h1.19-1.19zm0-.09h1.19-1.19zm0-.09h1.19-1.19zm0-.09h1.19-1.19zm.17-.085h.85-.85zm.34-.09h.17-.17zm0-.09h.17-.17zm0-.09h.17-.17zm0-.085h.17-.17zm-.085-.11h.34-.34zm-.26.375h.18-.18zm-.07-.11h.33-.33zm-.005 1.64v-.1.1zm0-.175v-.1.1zm-.09-.015v.1-.1zm.17.1v-.1.1zm.085.09v-.1.1zm0-.175v-.1.1zm0-.18v-.1.1zm0-.19v-.1.1zm-.085.27v-.1.1zm-.17 0v-.1.1zm.35-.1v.1-.1zm.075.02v-.1.1zm-.255-.19v.1-.1zm.175 0v.1-.1zm.165 0v.1-.1zm-.08.005v-.1.1zm.085-.185v.1-.1zm0-.18v.1-.1zm-.085-.09v.1-.1zm.085-.085v.1-.1zm-.165 0v.1-.1zm-.175 0v.1-.1zm-.08-.09v.1-.1zm.165 0v.1-.1zm.17 0v.1-.1zm.085-.09v.1-.1zm-.165 0v.1-.1zm-.175 0v.1-.1zm-.08-.09v.1-.1zm.335 0v.1-.1zm-.17-.175v.1-.1zm.765 0H9.37h.175zm.075-.11h-.33.33zm.005 1.64v-.1.1zm0-.175v-.1.1zm.09-.015v.1-.1zm-.17.095v-.1.1zm-.085.09v-.1.1zm0-.175v-.1.1zm0-.18v-.1.1zm0-.19v-.1.1zm.085.27v-.1.1zm.17 0v-.1.1zm-.35-.1v.1-.1zm-.075.02v-.1.1zm.255-.19v.1-.1zm-.175 0v.1-.1zm-.165 0v.1-.1zm.085 0v-.1.1zm-.085-.185v.1-.1zm0-.18v.1-.1zm.085-.09v.1-.1zm-.085-.085v.1-.1zm.165 0v.1-.1zm.175 0v.1-.1zm.08-.09v.1-.1zm-.165 0v.1-.1zm-.17 0v.1-.1zm-.085-.09v.1-.1zm.165 0v.1-.1zm.175 0v.1-.1zm.08-.09v.1-.1zm-.335 0v.1-.1zm.17-.175v.1-.1zm-.35.99v-.1.1zm0-.36v-.1.1zm0 .18v-.1.1zm0-.355v-.1.1zm0-.175v-.1.1zm0-.27v-.1.1zm0-.175v-.1.1zm-.415.13h.175-.175zm.34-.265h.17-.17zm.335.265h.175-.175z"/>
        <path fill="#C8B100" fill-rule="nonzero" stroke="#000" stroke-width=".03" d="M8.965 12.91l-.11-.015c0-.045.01-.11.045-.13l.1.075a.117.117 0 0 0-.035.07zm.3 0l.11-.015c0-.045-.01-.11-.045-.13l-.1.075c.015.01.035.05.035.07zm-.11-.115l.05-.1a.265.265 0 0 0-.1-.02l-.085.02.055.1h.08zm-.21-.275v-.245a.12.12 0 0 0-.125-.12c-.075 0-.12.05-.12.12v.245h.245zm.34 0v-.245c0-.065.05-.12.125-.12s.12.05.12.12v.245h-.245zm-.085-.6l.02-.22h-.21l.01.22h.18zm.165 0l-.02-.22h.22l-.025.22h-.175zm-.5 0l.01-.22h-.21l.025.22h.175z"/>
        <path fill="#0039F0" fill-rule="nonzero" d="M9.265 13.13v-.2c0-.035-.025-.135-.155-.135-.12 0-.145.1-.145.135v.2h.3zm-.345-.635v-.21c0-.05-.03-.11-.1-.11s-.1.055-.1.11v.215h.2v-.005zm.39 0v-.21c0-.05.035-.11.1-.11s.1.055.1.11v.215h-.2v-.005z"/>
        <path fill="#AD1519" fill-rule="nonzero" d="M9.54 13.49c0-.485.35-.88.78-.88.43 0 .78.395.78.88s-.35.875-.78.875c-.43 0-.78-.39-.78-.875"/>
        <path stroke="#000" stroke-width=".03" d="M9.54 13.49c0-.485.35-.88.78-.88.43 0 .78.395.78.88s-.35.875-.78.875c-.43 0-.78-.39-.78-.875z"/>
        <path fill="#005BBF" fill-rule="nonzero" d="M9.77 13.485c0-.35.25-.64.55-.64.3 0 .55.285.55.64 0 .36-.25.65-.55.65-.3 0-.55-.29-.55-.65"/>
        <path stroke="#000" stroke-width=".03" d="M9.77 13.485c0-.35.25-.64.55-.64.3 0 .55.285.55.64 0 .36-.25.65-.55.65-.3 0-.55-.29-.55-.65zM12.073 11.36s.01-.01 0-.02h-.03c-.02 0-.02.01-.01.02h.04zm1.877-1.105v.03h-.12v-.03h.05v-.065h-.035v-.025h.03v-.03h.03v.03h.03v.03h-.03v.06h.05-.005z"/>
    </g>
</svg>
