<svg xmlns="http://www.w3.org/2000/svg" width="32" height="32" viewBox="0 0 32 32">
    <g fill="#444" fill-rule="nonzero">
        <path d="M11 16h2v2h-2zM11 20h2v2h-2zM11 4h2v2h-2zM11 24h2v2h-2zM11 12h2v2h-2zM11 8h2v2h-2zM15 24h2v2h-2zM15 20h2v2h-2zM15 12h2v2h-2zM15 16h2v2h-2zM15 8h2v2h-2zM15 4h2v2h-2zM19 12h2v2h-2zM19 16h2v2h-2zM19 20h2v2h-2zM19 4h2v2h-2zM19 8h2v2h-2zM19 24h2v2h-2z"/>
        <path d="M25 0H7v30H0v2h9V2h14v30h9v-2h-7z"/>
        <path d="M13 32h2v-2h2v2h2v-4h-6z"/>
    </g>
</svg>
