<svg xmlns="http://www.w3.org/2000/svg" width="170" height="151" viewBox="0 0 170 151">
    <g fill="#DAECFF" fill-rule="evenodd">
        <path d="M118.536 86.425c-.162-.28-.1-.547-.1-.802-.004-5.37-.024-10.74.003-16.11.024-4.874 1.58-9.18 4.947-12.762 2.632-2.8 5.853-4.57 9.62-5.337a16.981 16.981 0 0 1 3.461-.318c5.185.02 10.37.018 15.555.006 3.975-.01 7.543 1.209 10.7 3.585 3.946 2.971 6.248 6.959 7.044 11.816.136.83.195 1.677.195 2.526-.008 15.503-.008 31.005.004 46.507 0 .545-.162.918-.555 1.308-2.274 2.25-4.511 4.54-6.765 6.811-.215.217-.407.474-.71.603-.245-.255-.16-.53-.162-.779-.01-1.216-.004-2.433-.004-3.65 0-16.852-.014-33.703.009-50.554.006-4.695-3.222-8.044-7.116-8.9a8.338 8.338 0 0 0-1.804-.212c-5.82.01-11.64-.046-17.46.022-4.837.057-8.211 3.794-8.688 7.738-.09.74-.114 1.473-.115 2.213-.001 2.566-.007 5.132.006 7.698.002.448-.095.798-.43 1.13-2.388 2.362-4.757 4.744-7.135 7.118-.128.128-.236.29-.5.343M59.12 86.51c-.133-.276-.075-.595-.075-.9-.004-5.554.013-11.109-.008-16.663-.015-3.805 1.111-7.243 3.312-10.313 2.912-4.062 6.889-6.48 11.8-7.35a13.75 13.75 0 0 1 2.442-.205c5.37.017 10.74-.004 16.108.014 4.145.013 7.83 1.378 11.044 3.966 3.59 2.89 5.72 6.661 6.51 11.188.131.75.207 1.513.207 2.285-.01 15.685-.011 31.37.005 47.054 0 .686-.182 1.18-.68 1.665-2.23 2.182-4.421 4.406-6.63 6.61-.203.202-.37.453-.655.554-.25-.081-.188-.294-.197-.465-.013-.264-.005-.529-.005-.793 0-17.907.001-35.813-.003-53.72 0-.976-.01-1.953-.225-2.916-.774-3.48-3.711-6.236-7.247-6.815a9.223 9.223 0 0 0-1.497-.132c-5.845.002-11.691-.038-17.536.022-4.754.048-8.607 4.076-8.603 8.731.003 3.148-.01 6.295.01 9.443.003.589-.126 1.047-.564 1.48-2.353 2.322-4.677 4.673-7.015 7.011-.121.122-.223.305-.498.25"/>
        <path d="M110.344 117.526c.152.24.086.51.086.763.006 5.185.035 10.37-.007 15.554-.018 2.187-.565 4.292-1.476 6.278-2.715 5.919-7.326 9.42-13.703 10.614-.826.154-1.672.202-2.523.2-5.264-.018-10.529.014-15.793-.017-5.409-.03-9.897-2.151-13.483-6.167-2.237-2.504-3.588-5.462-4.189-8.758-.15-.829-.206-1.67-.206-2.521.012-14.999.012-29.998-.004-44.996 0-.681.172-1.18.67-1.67 2.227-2.186 4.412-4.417 6.615-6.628.2-.2.371-.446.647-.53.242.122.188.327.195.501.012.264.005.53.005.794 0 17.247.039 34.495-.028 51.742-.016 4.267 2.973 8.08 7.09 8.94.645.135 1.293.238 1.96.237 5.713-.008 11.427.005 17.14-.007 4.446-.01 8.219-3.218 8.87-7.643.092-.623.07-1.266.073-1.9.009-2.037.018-4.074-.006-6.11-.007-.541.137-.943.53-1.33 2.334-2.305 4.643-4.634 6.967-6.95.157-.157.27-.399.57-.396M169.776 117.252c.218.32.141.59.142.842.005 4.894.01 9.787.002 14.68-.014 8.689-5.87 15.936-14.361 17.775a17.345 17.345 0 0 1-3.702.375c-5.29-.008-10.58.045-15.87-.036-4.46-.07-8.354-1.707-11.641-4.718-3.224-2.953-5.101-6.633-5.693-10.958-.128-.94-.17-1.897-.17-2.847-.01-14.733-.004-29.466-.02-44.199 0-.58.177-.983.587-1.384 1.832-1.796 3.638-3.619 5.447-5.438.538-.542 1.05-1.109 1.58-1.66.104-.109.212-.265.392-.187.182.078.125.268.132.418.01.21.004.423.004.634 0 17.563.026 35.127-.018 52.69-.012 4.828 3.502 8.67 8.046 9.183a8.5 8.5 0 0 0 .95.047c5.792.003 11.585.006 17.377 0 4.854-.004 8.82-3.99 8.823-8.858.002-2.566.003-5.132-.003-7.697-.001-.409.053-.746.377-1.068 2.44-2.423 4.856-4.868 7.282-7.305.09-.091.195-.168.337-.289"/>
        <path d="M75.997 86.534c-.456-.191-.679-.493-.931-.735-2.35-2.25-4.685-4.513-7.03-6.766-.242-.232-.38-.47-.379-.825.017-3.332-.042-6.666.04-9.997.111-4.563 3.704-8.097 8.274-8.136 5.792-.05 11.586-.047 17.378-.001 4.93.039 8.466 4.015 8.455 8.577-.04 18.356-.016 36.713-.018 55.07 0 .254.038.516-.056.776-.277-.007-.398-.202-.539-.338-2.505-2.43-5.002-4.87-7.511-7.296-.23-.223-.345-.452-.321-.766.014-.184.002-.37.002-.555l-.001-42.77c0-.423.016-.851-.042-1.267-.26-1.836-1.643-3.002-3.594-3.012-2.803-.014-5.607-.004-8.411-.004-.529 0-1.058-.01-1.587.002-2.228.051-3.72 1.554-3.726 3.78-.01 4.443-.003 8.887-.003 13.33v.933zM135.494 86.502c-.989-.952-1.884-1.81-2.774-2.672-1.69-1.638-3.37-3.287-5.07-4.913-.37-.353-.538-.716-.533-1.241.026-2.724.02-5.449.01-8.173-.009-2.164.55-4.129 1.97-5.802 1.632-1.924 3.72-2.972 6.233-2.99 5.872-.04 11.744-.05 17.616-.001 4.67.038 8.328 3.765 8.331 8.438.012 18.118.006 36.236.003 54.354 0 .23.054.471-.07.688-.244.091-.342-.1-.463-.216-2.437-2.348-4.864-4.707-7.316-7.04-.403-.383-.533-.779-.532-1.319.012-14.468.01-28.936.008-43.404 0-.475.024-.95-.119-1.416a3.468 3.468 0 0 0-3.077-2.48c-.473-.037-.951-.027-1.427-.027-2.936-.002-5.872 0-8.808-.002-.558 0-1.108.033-1.637.24-1.402.553-2.231 1.766-2.234 3.334-.006 4.55-.001 9.1-.004 13.648 0 .281.036.569-.107.994"/>
        <path d="M152.861 117.287c.42.138.617.356.818.55 2.326 2.235 4.633 4.49 6.976 6.707.506.479.692.978.682 1.664-.035 2.407-.001 4.814-.017 7.221-.016 2.443-.864 4.546-2.649 6.244-1.63 1.55-3.597 2.31-5.822 2.322-5.713.027-11.427.04-17.14-.001-4.007-.029-7.313-2.568-8.314-6.252-.238-.876-.302-1.773-.303-2.668-.009-17.642-.007-35.284-.007-52.926 0-.026-.003-.054.001-.08.044-.244-.134-.592.175-.706.244-.09.39.219.552.376 2.394 2.318 4.773 4.65 7.182 6.953.477.456.673.925.672 1.592-.018 13.94-.014 27.878-.012 41.817 0 .448-.026.896.102 1.339.454 1.57 1.708 2.509 3.437 2.514 3.306.01 6.612.001 9.919.007.348 0 .68-.062 1.018-.13 1.62-.33 2.774-1.952 2.751-3.425-.061-4.046-.02-8.093-.02-12.14v-.978zM67.736 79.543c.744.47 1.24 1.06 1.788 1.584 2.045 1.955 4.072 3.93 6.115 5.887.269.258.413.531.381.906-.02.237-.003.476-.003.714l.001 41.345c0 .317-.01.638.035.95.289 1.983 1.682 3.175 3.71 3.178 3.28.005 6.561-.014 9.84.007 2.206.014 3.752-1.63 3.734-3.747-.033-3.994-.01-7.989-.01-11.983v-.825c.295-.168.398.037.52.154 1.522 1.47 3.04 2.943 4.558 4.415.987.958 1.964 1.927 2.965 2.869.336.316.465.656.461 1.115-.018 2.301.007 4.603-.012 6.904-.032 4.072-2.905 7.482-6.92 8.213a9.376 9.376 0 0 1-1.655.134c-5.634.01-11.269.013-16.903.004-3.77-.006-6.937-2.149-8.198-5.536a8.134 8.134 0 0 1-.502-2.872c.008-8.49.003-16.982.002-25.473 0-8.94 0-17.882.002-26.822 0-.337-.04-.68.091-1.12M.342 116.869c.28-.044.38.14.503.26 2.424 2.401 4.84 4.81 7.272 7.202.33.324.452.67.451 1.124-.003 2.618-.064 5.24.05 7.853.164 3.816 2.179 6.41 5.635 7.912 1.05.456 2.177.624 3.325.624 5.263-.002 10.527.037 15.79-.014 3.544-.035 6.212-1.675 7.942-4.77.758-1.355 1.041-2.844 1.03-4.398-.018-2.222 0-4.444-.01-6.665-.001-.39.076-.704.37-.996 2.458-2.44 4.903-4.895 7.354-7.344.072-.073.164-.125.237-.179.272.101.186.318.186.482.004 5.422.106 10.846-.036 16.264-.09 3.426-1.352 6.551-3.398 9.319-2.936 3.97-6.868 6.348-11.723 7.195-.804.14-1.62.212-2.444.21-4.972-.014-9.944.024-14.916-.017-4.258-.035-8.023-1.493-11.268-4.23-3.43-2.892-5.485-6.593-6.208-11.019a14.958 14.958 0 0 1-.213-2.443c.012-5.21.005-10.42.008-15.63 0-.253-.044-.516.063-.74"/>
        <path d="M9.6 95.713c.35-.38.695-.765 1.05-1.14 2.147-2.264 4.304-4.515 6.433-6.794.398-.426.81-.576 1.386-.574 4.733.022 9.466-.018 14.199.02 5.226.043 9.62 2.05 13.129 5.895 3.142 3.444 4.68 7.544 4.67 12.218-.009 3.49-.012 6.98.009 10.47.003.519-.15.883-.518 1.246-2.313 2.286-4.604 4.595-6.906 6.892-.163.163-.288.381-.586.45-.157-.258-.084-.551-.085-.823-.005-6.16-.011-12.321 0-18.482.005-1.962-.463-3.776-1.612-5.376-1.843-2.566-4.365-3.838-7.525-3.839H9.692l-.092-.163"/>
        <path d="M41.731 124.621c-.641-.581-1.285-1.08-1.827-1.672-.965-1.054-2.002-2.03-3.026-3.022-1.101-1.066-2.172-2.162-3.267-3.234-.264-.26-.24-.57-.24-.885 0-2.222-.048-4.445.014-6.666.06-2.135-1.497-3.826-3.83-3.82-9.338.021-18.676.009-28.014.006-.307 0-.623.05-.904-.05-.046-.251.116-.332.218-.44 2.528-2.668 5.06-5.331 7.584-8.004.293-.31.603-.451 1.04-.45 8.148.01 16.296-.046 24.443.033 3.652.035 7 2.812 7.788 6.735.12.599.16 1.201.16 1.812-.006 6.216-.003 12.433-.007 18.65 0 .304.063.624-.132 1.007"/>
        <path d="M17.312 116.767v.983c0 4.23.053 8.461-.024 12.69-.035 1.915 1.455 3.728 3.683 3.696 2.907-.043 5.816-.007 8.724-.012 2.215-.004 3.693-1.453 3.701-3.668.015-4.072.003-8.143.008-12.215 0-.257-.065-.524.062-.779.244-.083.325.135.443.248.723.697 1.435 1.405 2.153 2.108 1.756 1.72 3.503 3.448 5.277 5.15.357.343.505.7.502 1.183-.014 2.274.002 4.547-.008 6.821-.02 4.589-3.635 8.293-8.237 8.336-5.42.05-10.84.044-16.26.002-4.595-.035-8.227-3.712-8.271-8.307-.024-2.538 0-5.077-.01-7.615-.002-.364.078-.649.35-.916 2.524-2.485 5.036-4.982 7.554-7.474.054-.054.13-.086.353-.231M.583 51.124h49.162c.137.262-.09.346-.204.464-2.307 2.402-4.629 4.79-6.92 7.209-.436.46-.882.64-1.517.639a9025.01 9025.01 0 0 0-31.576 0c-.638.001-1.055-.202-1.5-.658-2.288-2.349-4.623-4.652-6.937-6.976-.177-.178-.421-.313-.508-.678M49.969 68.378c-.35.196-.618.134-.874.134-10.208.003-20.416 0-30.624.01-.532.001-.944-.104-1.338-.507-2.404-2.457-4.836-4.886-7.256-7.328-.163-.165-.378-.294-.45-.584.25-.186.547-.106.818-.106 6.162-.006 12.324-.004 18.486-.004 4.178 0 8.357.005 12.535-.007.475-.002.849.086 1.196.455 2.301 2.445 4.624 4.869 6.939 7.3.18.19.348.39.568.637M.035 104.834V73.253c.265-.11.367.087.487.206 2.5 2.476 4.992 4.959 7.497 7.428.308.303.43.622.429 1.05-.011 4.549-.01 9.099-.002 13.649.001.394-.096.702-.376.995-2.504 2.617-4.997 5.246-7.495 7.87-.125.13-.23.293-.54.383M.051 51.64c.337.109.47.318.633.483 2.424 2.435 4.839 4.879 7.271 7.305.325.323.464.65.463 1.11-.012 6.396-.007 12.792-.012 19.188 0 .201.068.418-.071.605-.209.072-.29-.102-.393-.204-2.511-2.496-5.018-4.999-7.532-7.492-.256-.254-.41-.506-.41-.89C.01 65.163.008 58.582.01 52c0-.099.021-.198.041-.361M17.312 73.208v.557c0 4.123-.006 8.245.008 12.368.002.452-.108.797-.426 1.13-2.503 2.613-4.99 5.242-7.484 7.864-.105.11-.23.202-.34.296-.248-.144-.155-.351-.156-.517-.005-4.334-.002-8.668-.008-13.003 0-.357.05-.651.327-.924 2.574-2.545 5.135-5.104 7.701-7.658.073-.072.142-.158.378-.113M8.928 80.484V60.626c.187-.092.28.02.369.11 2.574 2.584 5.144 5.173 7.723 7.753.244.244.343.507.338.846a81.97 81.97 0 0 0-.002 2.379c.004.308-.075.557-.3.782-2.603 2.594-5.2 5.194-7.8 7.79-.053.053-.132.081-.328.198M50.305 67.841c-.736-.703-1.482-1.37-2.174-2.086-1.762-1.824-3.499-3.673-5.248-5.51-.49-.513-.5-.516-.033-1 2.361-2.457 4.726-4.911 7.09-7.366.091-.095.177-.198.31-.22.032.012.056.018.076.032.021.014.053.035.054.053.1 5.231.02 10.463.043 15.694 0 .128.019.266-.118.403M.782 116.36h15.876c.055.265-.14.358-.26.478-2.176 2.157-4.356 4.31-6.535 6.465-.245.242-.497.476-.729.729-.223.244-.433.273-.667.027-.072-.077-.152-.147-.227-.221l-7.02-6.99c-.112-.11-.21-.233-.438-.488"/>
        <g fill-rule="nonzero">
            <path d="M23 8.67v20.66c0 4.796 3.758 8.67 8.59 8.67 4.652 0 8.41-3.874 8.41-8.67V8.67C40 3.874 36.242 0 31.59 0 26.757 0 23 3.874 23 8.67m6.084 20.66V8.67c0-1.476 1.074-2.398 2.505-2.398 1.253 0 2.327.922 2.327 2.398v20.66c0 1.291-1.074 2.398-2.327 2.398-1.431 0-2.505-1.107-2.505-2.398M92 0H74v6.428h5.813V38h6.374V6.428H92zM109.438 0v29.245c0 1.304-1.126 2.422-2.438 2.422-1.313 0-2.438-1.118-2.438-2.422V0H98v29.245c0 4.843 4.125 8.755 9 8.755s9-3.912 9-8.755V0h-6.563zM168 6.428V0h-16v38h16v-6.428h-9.524v-9.83h6.095v-6.429h-6.095V6.428zM66 38h-6.48l-4.5-17.96s3.96-.756 3.96-5.105v-5.86c0-1.513-1.08-2.647-2.52-2.647h-2.34V38H48V0h8.46c4.68 0 8.46 3.781 8.64 8.697v6.05c0 3.78-1.26 6.427-3.42 8.318L66 38zM137.333 0v20.796L130.667 0H124v38h6.667V19.473L136.762 38H144V0zM7.545 0H1v38h6.545V21.741h6v-6.428h-6V6.428H17V0z"/>
        </g>
    </g>
</svg>
