<svg xmlns="http://www.w3.org/2000/svg" xmlns:xlink="http://www.w3.org/1999/xlink" width="57" height="57" viewBox="0 0 57 57">
    <defs>
        <path id="a" d="M0 0h57v57H0z"/>
    </defs>
    <g fill="none" fill-rule="evenodd" opacity=".5">
        <g>
            <mask id="b" fill="#fff">
                <use xlink:href="#a"/>
            </mask>
            <path fill="#677381" d="M28.503 55.65C13.506 55.657 1.36 43.519 1.35 28.514 1.339 13.504 13.487 1.35 28.5 1.349c14.97-.001 27.16 12.192 27.15 27.158-.008 15.008-12.14 27.139-27.147 27.144M28.493 0C12.784.007 0 12.795 0 28.502.001 44.25 12.761 57.006 28.506 57 44.248 56.994 56.991 44.254 57 28.514 57.009 12.798 44.206-.007 28.494 0" mask="url(#b)"/>
        </g>
        <path fill="#677381" d="M38.023 43.237c-2.707.385-5.099-.302-7.026-2.305-1.276-1.326-2.011-2.942-2.286-4.747-.35-2.308-.023-4.522 1.136-6.577.96-1.701 2.37-2.942 4.063-3.882.07-.039.14-.078.21-.119.013-.007.022-.023.04-.042a2.832 2.832 0 0 1-.655-.769c-.086-.148-.151-.138-.278-.047a68.85 68.85 0 0 1-3.272 2.205 81.957 81.957 0 0 1-3.558 2.116c-.194.11-.26.236-.274.453-.125 1.958-.265 3.917-.73 5.829-.578 2.367-1.622 4.492-3.449 6.16-1.39 1.268-3.026 1.9-4.928 1.824-2.228-.088-3.932-1.674-4.181-3.888-.18-1.592.339-2.988 1.146-4.31.79-1.293 1.9-2.272 3.104-3.159 1.631-1.201 3.41-2.152 5.196-3.092.493-.259.984-.52 1.48-.773a.317.317 0 0 0 .193-.274c.055-.415.13-.827.206-1.294-.124.09-.203.152-.285.21-.981.68-2.083 1.005-3.254.835-1.525-.221-2.412-1.235-2.87-2.653-.059-.18-.136-.237-.306-.26-2.135-.282-3.558-1.81-3.686-3.959-.058-.984.07-1.935.574-2.803.264-.456.622-.812 1.186-.855.503-.039.806.276.727.775-.07.446-.193.882-.276 1.325-.145.774-.16 1.542.167 2.282.24.54.614.923 1.218 1.037.177.033.246.001.26-.209.184-2.986 1.228-5.607 3.372-7.735.698-.694 1.53-1.185 2.515-1.37a3.538 3.538 0 0 1 1.746.094c1 .315 1.598 1.191 1.594 2.348-.004 1.212-.346 2.342-.905 3.405-1.128 2.147-2.72 3.855-4.852 5.036a5.168 5.168 0 0 1-.748.338c-.188.068-.201.15-.133.32.303.754.882 1.072 1.68.908.841-.174 1.525-.639 2.167-1.18.056-.046.106-.098.161-.146.37-.315.61-.682.73-1.18a6.05 6.05 0 0 1 1.333-2.604c.375-.427.812-.765 1.402-.834.733-.085 1.206.392 1.133 1.133-.042.426-.192.814-.389 1.188-.408.77-.952 1.44-1.534 2.08-.212.235-.36.474-.405.796-.075.535-.155 1.07-.203 1.608-.01.1-.002.202-.002.34.6-.362 1.172-.706 1.743-1.052 1.504-.914 2.985-1.863 4.408-2.9.092-.067.176-.115.149-.266-.24-1.307-.17-2.607.146-3.89.402-1.629 1.125-3.091 2.35-4.267.786-.752 1.703-1.232 2.808-1.333 1.475-.136 2.706.72 2.961 2.121.166.911-.035 1.782-.401 2.617-.556 1.268-1.452 2.282-2.434 3.228a26.435 26.435 0 0 1-2.483 2.089c-.132.099-.144.18-.079.318.206.437.463.831.861 1.12a.46.46 0 0 0 .446.077c1.04-.31 2.089-.4 3.142-.053.23.076.45.177.644.329.601.474.56 1.257-.092 1.657-.455.28-.97.344-1.487.377a10.324 10.324 0 0 1-2.173-.11.95.95 0 0 0-.473.04c-1.898.67-3.295 1.915-4.077 3.762-1.013 2.396-1.064 4.82.104 7.192.684 1.388 1.745 2.402 3.268 2.835 2.657.753 5.286-.83 5.928-3.55.284-1.201.208-2.374-.345-3.49-.579-1.17-1.81-1.72-2.946-1.337-1.215.41-1.678 1.737-.97 2.809.15.228.34.43.514.642.186.226.364.458.404.758.102.748-.444 1.275-1.228 1.2-1.067-.103-1.754-.722-2.2-1.642-1.11-2.296-.012-4.963 2.434-5.9 2.34-.895 5.424-.21 6.662 3.067 1.854 4.907-1.62 9.372-5.838 9.973m15.692-17.758c-.293-2.417-.887-4.753-1.851-6.99-1.313-3.045-3.186-5.679-5.76-7.792-2.121-1.742-4.53-2.921-7.162-3.675-1.58-.452-3.172-.815-4.822-.859-1.295-.035-2.564.091-3.75.671-.623.304-1.156.736-1.697 1.158-.338.263-.684.512-1.098.652-.842.284-1.744.06-2.277-.57-.51-.601-.575-1.492-.163-2.274.304-.577.779-.982 1.337-1.297 1.068-.6 2.238-.823 3.442-.857 2.18-.062 4.315.223 6.384.934.046.016.092.029.139.042.067.019.11-.014.136-.07.028-.063.001-.116-.055-.142a2.914 2.914 0 0 0-.336-.135 24.912 24.912 0 0 0-6.312-1.16 25.298 25.298 0 0 0-5.646.336c-2.782.475-5.427 1.351-7.886 2.75-3.454 1.963-6.144 4.67-7.919 8.24-1.177 2.368-1.898 4.88-2.2 7.507a10.83 10.83 0 0 0 .056 2.922c.192 1.23.737 2.293 1.513 3.252.314.389.632.78.808 1.258.298.805.244 1.574-.386 2.2-.636.632-1.41.697-2.222.375-.71-.282-1.178-.831-1.533-1.485-.568-1.046-.773-2.187-.81-3.358-.07-2.189.26-4.327.879-6.424.026-.087.1-.197-.04-.245-.135-.048-.152.076-.183.166-.01.03-.023.06-.032.09a26.13 26.13 0 0 0-1.063 5.306 26.197 26.197 0 0 0 .13 6.184c.335 2.405.977 4.72 2.003 6.922 1.89 4.055 4.723 7.246 8.706 9.342a21.959 21.959 0 0 0 8.135 2.421 9.872 9.872 0 0 0 3.014-.14c1.147-.242 2.105-.831 2.983-1.58.332-.283.677-.55 1.08-.73 1.031-.457 2.213-.068 2.671.907.39.83.231 1.609-.324 2.31-.552.699-1.318 1.075-2.147 1.334-1.664.518-3.364.446-5.065.265a18.308 18.308 0 0 1-3.76-.78c-.08-.027-.166-.052-.207.05-.047.116.04.153.128.19.312.132.634.237.96.328 2.27.637 4.59.88 7.382.889.749.013 1.933-.067 3.11-.225 2.005-.269 3.96-.749 5.846-1.492 3.457-1.363 6.412-3.417 8.717-6.359 1.574-2.008 2.642-4.269 3.36-6.71.606-2.064 1.055-4.144.868-6.315-.095-1.11-.385-2.16-1.017-3.09-.286-.42-.604-.82-.91-1.226-.319-.426-.556-.882-.625-1.422-.126-.995.451-1.923 1.368-2.147.723-.177 1.377-.002 1.96.446.54.414.892.971 1.157 1.587.445 1.03.61 2.12.632 3.233.036 1.869-.232 3.701-.702 5.506-.067.257-.144.512-.213.769-.02.071-.031.149.068.176.087.023.138-.02.165-.1.018-.052.037-.106.054-.16.502-1.53.822-3.102 1.009-4.699.242-2.07.224-4.14-.027-6.21"/>
        <path fill="#677381" d="M23.645 30.58a29.297 29.297 0 0 1-.382 2.303c-.312 1.528-.727 3.026-1.412 4.434-.562 1.152-1.264 2.2-2.371 2.907-.768.49-1.609.755-2.527.644-.904-.109-1.484-.766-1.543-1.678-.078-1.191.377-2.209 1.042-3.15.905-1.284 2.084-2.285 3.349-3.193a26.734 26.734 0 0 1 3.672-2.194c.05-.025.102-.044.172-.074M19.974 22.223a7.106 7.106 0 0 1 .32-1.877c.446-1.495 1.09-2.893 2.066-4.123.276-.348.586-.668.986-.88.224-.119.458-.196.719-.128.32.085.524.317.562.649.053.447-.067.863-.233 1.27-.45 1.103-1.133 2.058-1.904 2.954-.654.761-1.374 1.453-2.224 1.998-.085.054-.166.127-.292.137M34.878 21.078c.105-1.992.64-3.747 1.94-5.213.247-.279.542-.509.914-.612.519-.144.947.18.947.718 0 .349-.127.663-.276.968-.416.85-1.006 1.576-1.625 2.28a19.772 19.772 0 0 1-1.678 1.676c-.052.047-.109.09-.222.183"/>
    </g>
</svg>
