<svg xmlns="http://www.w3.org/2000/svg" xmlns:xlink="http://www.w3.org/1999/xlink" width="451" height="339" viewBox="0 0 451 339">
    <defs>
        <linearGradient id="a" x1="50%" x2="50%" y1="100%" y2="0%">
            <stop offset="0%" stop-color="#FFF"/>
            <stop offset="100%" stop-color="#6F7891"/>
        </linearGradient>
        <path id="b" d="M50.596.174c-.566.142-12.179 3.12-20.676 6.71-8.498 3.593-12.84 7.184-21.338 15.218C.085 30.136 1.69 37.036.698 44.124c-.99 7.089 1.323 6.475 3.116 10.16 1.795 3.687 8.026 7.61 11.188 9.405 3.164 1.796 8.262 2.742 10.763 2.742.228 0 .482 0 .756.005.003.864.296 1.719.871 2.54l.071.1c.643.88 1.585 1.682 2.801 2.386 1.31.757 2.847 1.344 4.569 1.747a23.35 23.35 0 0 0 5.299.594c1.849 0 3.65-.203 5.355-.603 1.744-.41 3.303-1.007 4.634-1.777 1.246-.72 2.21-1.544 2.867-2.447.018-.026.037-.051.054-.077.59-.837.887-1.707.887-2.585 0-.87-.293-1.728-.87-2.553a6.574 6.574 0 0 0-.423-.539c.37-.18.748-.357 1.123-.526 1.794-.802 3.069-1.559 4.978-2.727 1.91-1.169 2.528-.864 4.982-1.431 2.455-.567 2.833-1.37 3.966-3.214 1.133-1.843 2.927-9.026 4.154-17.769 1.228-8.742-.424-7.844-1.275-11.53-.849-3.687-1.132-6.9-2.737-13.8-1.605-6.9-9.63-8.176-12.982-9.64L51.54.315s-.242-.182-.629-.182c-.096 0-.202.012-.315.04"/>
        <path id="d" d="M50.596.174c-.566.142-12.179 3.12-20.676 6.71-8.498 3.593-12.84 7.184-21.338 15.218C.085 30.136 1.69 37.036.698 44.124c-.99 7.089 1.323 6.475 3.116 10.16 1.795 3.687 8.026 7.61 11.188 9.405 3.164 1.796 8.262 2.742 10.763 2.742.228 0 .482 0 .756.005.003.864.296 1.719.871 2.54l.071.1c.643.88 1.585 1.682 2.801 2.386 1.31.757 2.847 1.344 4.569 1.747a23.35 23.35 0 0 0 5.299.594c1.849 0 3.65-.203 5.355-.603 1.744-.41 3.303-1.007 4.634-1.777 1.246-.72 2.21-1.544 2.867-2.447.018-.026.037-.051.054-.077.59-.837.887-1.707.887-2.585 0-.87-.293-1.728-.87-2.553a6.574 6.574 0 0 0-.423-.539c.37-.18.748-.357 1.123-.526 1.794-.802 3.069-1.559 4.978-2.727 1.91-1.169 2.528-.864 4.982-1.431 2.455-.567 2.833-1.37 3.966-3.214 1.133-1.843 2.927-9.026 4.154-17.769 1.228-8.742-.424-7.844-1.275-11.53-.849-3.687-1.132-6.9-2.737-13.8-1.605-6.9-9.63-8.176-12.982-9.64L51.54.315s-.242-.182-.629-.182c-.096 0-.202.012-.315.04"/>
        <path id="f" d="M50.596.174c-.566.142-12.179 3.12-20.676 6.71-8.498 3.593-12.84 7.184-21.338 15.218C.085 30.136 1.69 37.036.698 44.124c-.99 7.089 1.323 6.475 3.116 10.16 1.795 3.687 8.026 7.61 11.188 9.405 3.164 1.796 8.262 2.742 10.763 2.742.228 0 .482 0 .756.005.003.864.296 1.719.871 2.54l.071.1c.643.88 1.585 1.682 2.801 2.386 1.31.757 2.847 1.344 4.569 1.747a23.35 23.35 0 0 0 5.299.594c1.849 0 3.65-.203 5.355-.603 1.744-.41 3.303-1.007 4.634-1.777 1.246-.72 2.21-1.544 2.867-2.447.018-.026.037-.051.054-.077.59-.837.887-1.707.887-2.585 0-.87-.293-1.728-.87-2.553a6.574 6.574 0 0 0-.423-.539c.37-.18.748-.357 1.123-.526 1.794-.802 3.069-1.559 4.978-2.727 1.91-1.169 2.528-.864 4.982-1.431 2.455-.567 2.833-1.37 3.966-3.214 1.133-1.843 2.927-9.026 4.154-17.769 1.228-8.742-.424-7.844-1.275-11.53-.849-3.687-1.132-6.9-2.737-13.8-1.605-6.9-9.63-8.176-12.982-9.64L51.54.315s-.242-.182-.629-.182c-.096 0-.202.012-.315.04"/>
        <path id="h" d="M50.596.174c-.566.142-12.179 3.12-20.676 6.71-8.498 3.593-12.84 7.184-21.338 15.218C.085 30.136 1.69 37.036.698 44.124c-.99 7.089 1.323 6.475 3.116 10.16 1.795 3.687 8.026 7.61 11.188 9.405 3.164 1.796 8.262 2.742 10.763 2.742.228 0 .482 0 .756.005.003.864.296 1.719.871 2.54l.071.1c.643.88 1.585 1.682 2.801 2.386 1.31.757 2.847 1.344 4.569 1.747a23.35 23.35 0 0 0 5.299.594c1.849 0 3.65-.203 5.355-.603 1.744-.41 3.303-1.007 4.634-1.777 1.246-.72 2.21-1.544 2.867-2.447.018-.026.037-.051.054-.077.59-.837.887-1.707.887-2.585 0-.87-.293-1.728-.87-2.553a6.574 6.574 0 0 0-.423-.539c.37-.18.748-.357 1.123-.526 1.794-.802 3.069-1.559 4.978-2.727 1.91-1.169 2.528-.864 4.982-1.431 2.455-.567 2.833-1.37 3.966-3.214 1.133-1.843 2.927-9.026 4.154-17.769 1.228-8.742-.424-7.844-1.275-11.53-.849-3.687-1.132-6.9-2.737-13.8-1.605-6.9-9.63-8.176-12.982-9.64L51.54.315s-.242-.182-.629-.182c-.096 0-.202.012-.315.04"/>
        <path id="j" d="M50.596.174c-.566.142-12.179 3.12-20.676 6.71-8.498 3.593-12.84 7.184-21.338 15.218C.085 30.136 1.69 37.036.698 44.124c-.99 7.089 1.323 6.475 3.116 10.16 1.795 3.687 8.026 7.61 11.188 9.405 3.164 1.796 8.262 2.742 10.763 2.742.228 0 .482 0 .756.005.003.864.296 1.719.871 2.54l.071.1c.643.88 1.585 1.682 2.801 2.386 1.31.757 2.847 1.344 4.569 1.747a23.35 23.35 0 0 0 5.299.594c1.849 0 3.65-.203 5.355-.603 1.744-.41 3.303-1.007 4.634-1.777 1.246-.72 2.21-1.544 2.867-2.447.018-.026.037-.051.054-.077.59-.837.887-1.707.887-2.585 0-.87-.293-1.728-.87-2.553a6.574 6.574 0 0 0-.423-.539c.37-.18.748-.357 1.123-.526 1.794-.802 3.069-1.559 4.978-2.727 1.91-1.169 2.528-.864 4.982-1.431 2.455-.567 2.833-1.37 3.966-3.214 1.133-1.843 2.927-9.026 4.154-17.769 1.228-8.742-.424-7.844-1.275-11.53-.849-3.687-1.132-6.9-2.737-13.8-1.605-6.9-9.63-8.176-12.982-9.64L51.54.315s-.242-.182-.629-.182c-.096 0-.202.012-.315.04"/>
        <path id="l" d="M50.596.174c-.566.142-12.179 3.12-20.676 6.71-8.498 3.593-12.84 7.184-21.338 15.218C.085 30.136 1.69 37.036.698 44.124c-.99 7.089 1.323 6.475 3.116 10.16 1.795 3.687 8.026 7.61 11.188 9.405 3.164 1.796 8.262 2.742 10.763 2.742.228 0 .482 0 .756.005.003.864.296 1.719.871 2.54l.071.1c.643.88 1.585 1.682 2.801 2.386 1.31.757 2.847 1.344 4.569 1.747a23.35 23.35 0 0 0 5.299.594c1.849 0 3.65-.203 5.355-.603 1.744-.41 3.303-1.007 4.634-1.777 1.246-.72 2.21-1.544 2.867-2.447.018-.026.037-.051.054-.077.59-.837.887-1.707.887-2.585 0-.87-.293-1.728-.87-2.553a6.574 6.574 0 0 0-.423-.539c.37-.18.748-.357 1.123-.526 1.794-.802 3.069-1.559 4.978-2.727 1.91-1.169 2.528-.864 4.982-1.431 2.455-.567 2.833-1.37 3.966-3.214 1.133-1.843 2.927-9.026 4.154-17.769 1.228-8.742-.424-7.844-1.275-11.53-.849-3.687-1.132-6.9-2.737-13.8-1.605-6.9-9.63-8.176-12.982-9.64L51.54.315s-.242-.182-.629-.182c-.096 0-.202.012-.315.04"/>
        <path id="n" d="M50.596.174c-.566.142-12.179 3.12-20.676 6.71-8.498 3.593-12.84 7.184-21.338 15.218C.085 30.136 1.69 37.036.698 44.124c-.99 7.089 1.323 6.475 3.116 10.16 1.795 3.687 8.026 7.61 11.188 9.405 3.164 1.796 8.262 2.742 10.763 2.742.228 0 .482 0 .756.005.003.864.296 1.719.871 2.54l.071.1c.643.88 1.585 1.682 2.801 2.386 1.31.757 2.847 1.344 4.569 1.747a23.35 23.35 0 0 0 5.299.594c1.849 0 3.65-.203 5.355-.603 1.744-.41 3.303-1.007 4.634-1.777 1.246-.72 2.21-1.544 2.867-2.447.018-.026.037-.051.054-.077.59-.837.887-1.707.887-2.585 0-.87-.293-1.728-.87-2.553a6.574 6.574 0 0 0-.423-.539c.37-.18.748-.357 1.123-.526 1.794-.802 3.069-1.559 4.978-2.727 1.91-1.169 2.528-.864 4.982-1.431 2.455-.567 2.833-1.37 3.966-3.214 1.133-1.843 2.927-9.026 4.154-17.769 1.228-8.742-.424-7.844-1.275-11.53-.849-3.687-1.132-6.9-2.737-13.8-1.605-6.9-9.63-8.176-12.982-9.64L51.54.315s-.242-.182-.629-.182c-.096 0-.202.012-.315.04z"/>
        <path id="p" d="M50.596.174c-.566.142-12.179 3.12-20.676 6.71-8.498 3.593-12.84 7.184-21.338 15.218C.085 30.136 1.69 37.036.698 44.124c-.99 7.089 1.323 6.475 3.116 10.16 1.795 3.687 8.026 7.61 11.188 9.405 3.164 1.796 8.262 2.742 10.763 2.742.228 0 .482 0 .756.005.003.864.296 1.719.871 2.54l.071.1c.643.88 1.585 1.682 2.801 2.386 1.31.757 2.847 1.344 4.569 1.747a23.35 23.35 0 0 0 5.299.594c1.849 0 3.65-.203 5.355-.603 1.744-.41 3.303-1.007 4.634-1.777 1.246-.72 2.21-1.544 2.867-2.447.018-.026.037-.051.054-.077.59-.837.887-1.707.887-2.585 0-.87-.293-1.728-.87-2.553a6.574 6.574 0 0 0-.423-.539c.37-.18.748-.357 1.123-.526 1.794-.802 3.069-1.559 4.978-2.727 1.91-1.169 2.528-.864 4.982-1.431 2.455-.567 2.833-1.37 3.966-3.214 1.133-1.843 2.927-9.026 4.154-17.769 1.228-8.742-.424-7.844-1.275-11.53-.849-3.687-1.132-6.9-2.737-13.8-1.605-6.9-9.63-8.176-12.982-9.64L51.54.315s-.242-.182-.629-.182c-.096 0-.202.012-.315.04"/>
        <path id="r" d="M50.596.174c-.566.142-12.179 3.12-20.676 6.71-8.498 3.593-12.84 7.184-21.338 15.218C.085 30.136 1.69 37.036.698 44.124c-.99 7.089 1.323 6.475 3.116 10.16 1.795 3.687 8.026 7.61 11.188 9.405 3.164 1.796 8.262 2.742 10.763 2.742.228 0 .482 0 .756.005.003.864.296 1.719.871 2.54l.071.1c.643.88 1.585 1.682 2.801 2.386 1.31.757 2.847 1.344 4.569 1.747a23.35 23.35 0 0 0 5.299.594c1.849 0 3.65-.203 5.355-.603 1.744-.41 3.303-1.007 4.634-1.777 1.246-.72 2.21-1.544 2.867-2.447.018-.026.037-.051.054-.077.59-.837.887-1.707.887-2.585 0-.87-.293-1.728-.87-2.553a6.574 6.574 0 0 0-.423-.539c.37-.18.748-.357 1.123-.526 1.794-.802 3.069-1.559 4.978-2.727 1.91-1.169 2.528-.864 4.982-1.431 2.455-.567 2.833-1.37 3.966-3.214 1.133-1.843 2.927-9.026 4.154-17.769 1.228-8.742-.424-7.844-1.275-11.53-.849-3.687-1.132-6.9-2.737-13.8-1.605-6.9-9.63-8.176-12.982-9.64L51.54.315s-.242-.182-.629-.182c-.096 0-.202.012-.315.04"/>
        <path id="t" d="M50.596.174c-.566.142-12.179 3.12-20.676 6.71-8.498 3.593-12.84 7.184-21.338 15.218C.085 30.136 1.69 37.036.698 44.124c-.99 7.089 1.323 6.475 3.116 10.16 1.795 3.687 8.026 7.61 11.188 9.405 3.164 1.796 8.262 2.742 10.763 2.742.228 0 .482 0 .756.005.003.864.296 1.719.871 2.54l.071.1c.643.88 1.585 1.682 2.801 2.386 1.31.757 2.847 1.344 4.569 1.747a23.35 23.35 0 0 0 5.299.594c1.849 0 3.65-.203 5.355-.603 1.744-.41 3.303-1.007 4.634-1.777 1.246-.72 2.21-1.544 2.867-2.447.018-.026.037-.051.054-.077.59-.837.887-1.707.887-2.585 0-.87-.293-1.728-.87-2.553a6.574 6.574 0 0 0-.423-.539c.37-.18.748-.357 1.123-.526 1.794-.802 3.069-1.559 4.978-2.727 1.91-1.169 2.528-.864 4.982-1.431 2.455-.567 2.833-1.37 3.966-3.214 1.133-1.843 2.927-9.026 4.154-17.769 1.228-8.742-.424-7.844-1.275-11.53-.849-3.687-1.132-6.9-2.737-13.8-1.605-6.9-9.63-8.176-12.982-9.64L51.54.315s-.242-.182-.629-.182c-.096 0-.202.012-.315.04"/>
        <path id="v" d="M50.596.174c-.566.142-12.179 3.12-20.676 6.71-8.498 3.593-12.84 7.184-21.338 15.218C.085 30.136 1.69 37.036.698 44.124c-.99 7.089 1.323 6.475 3.116 10.16 1.795 3.687 8.026 7.61 11.188 9.405 3.164 1.796 8.262 2.742 10.763 2.742.228 0 .482 0 .756.005.003.864.296 1.719.871 2.54l.071.1c.643.88 1.585 1.682 2.801 2.386 1.31.757 2.847 1.344 4.569 1.747a23.35 23.35 0 0 0 5.299.594c1.849 0 3.65-.203 5.355-.603 1.744-.41 3.303-1.007 4.634-1.777 1.246-.72 2.21-1.544 2.867-2.447.018-.026.037-.051.054-.077.59-.837.887-1.707.887-2.585 0-.87-.293-1.728-.87-2.553a6.574 6.574 0 0 0-.423-.539c.37-.18.748-.357 1.123-.526 1.794-.802 3.069-1.559 4.978-2.727 1.91-1.169 2.528-.864 4.982-1.431 2.455-.567 2.833-1.37 3.966-3.214 1.133-1.843 2.927-9.026 4.154-17.769 1.228-8.742-.424-7.844-1.275-11.53-.849-3.687-1.132-6.9-2.737-13.8-1.605-6.9-9.63-8.176-12.982-9.64L51.54.315s-.242-.182-.629-.182c-.096 0-.202.012-.315.04"/>
        <path id="x" d="M50.596.174c-.566.142-12.179 3.12-20.676 6.71-8.498 3.593-12.84 7.184-21.338 15.218C.085 30.136 1.69 37.036.698 44.124c-.99 7.089 1.323 6.475 3.116 10.16 1.795 3.687 8.026 7.61 11.188 9.405 3.164 1.796 8.262 2.742 10.763 2.742.228 0 .482 0 .756.005.003.864.296 1.719.871 2.54l.071.1c.643.88 1.585 1.682 2.801 2.386 1.31.757 2.847 1.344 4.569 1.747a23.35 23.35 0 0 0 5.299.594c1.849 0 3.65-.203 5.355-.603 1.744-.41 3.303-1.007 4.634-1.777 1.246-.72 2.21-1.544 2.867-2.447.018-.026.037-.051.054-.077.59-.837.887-1.707.887-2.585 0-.87-.293-1.728-.87-2.553a6.574 6.574 0 0 0-.423-.539c.37-.18.748-.357 1.123-.526 1.794-.802 3.069-1.559 4.978-2.727 1.91-1.169 2.528-.864 4.982-1.431 2.455-.567 2.833-1.37 3.966-3.214 1.133-1.843 2.927-9.026 4.154-17.769 1.228-8.742-.424-7.844-1.275-11.53-.849-3.687-1.132-6.9-2.737-13.8-1.605-6.9-9.63-8.176-12.982-9.64L51.54.315s-.242-.182-.629-.182c-.096 0-.202.012-.315.04"/>
        <path id="z" d="M50.596.174c-.566.142-12.179 3.12-20.676 6.71-8.498 3.593-12.84 7.184-21.338 15.218C.085 30.136 1.69 37.036.698 44.124c-.99 7.089 1.323 6.475 3.116 10.16 1.795 3.687 8.026 7.61 11.188 9.405 3.164 1.796 8.262 2.742 10.763 2.742.228 0 .482 0 .756.005.003.864.296 1.719.871 2.54l.071.1c.643.88 1.585 1.682 2.801 2.386 1.31.757 2.847 1.344 4.569 1.747a23.35 23.35 0 0 0 5.299.594c1.849 0 3.65-.203 5.355-.603 1.744-.41 3.303-1.007 4.634-1.777 1.246-.72 2.21-1.544 2.867-2.447.018-.026.037-.051.054-.077.59-.837.887-1.707.887-2.585 0-.87-.293-1.728-.87-2.553a6.574 6.574 0 0 0-.423-.539c.37-.18.748-.357 1.123-.526 1.794-.802 3.069-1.559 4.978-2.727 1.91-1.169 2.528-.864 4.982-1.431 2.455-.567 2.833-1.37 3.966-3.214 1.133-1.843 2.927-9.026 4.154-17.769 1.228-8.742-.424-7.844-1.275-11.53-.849-3.687-1.132-6.9-2.737-13.8-1.605-6.9-9.63-8.176-12.982-9.64L51.54.315s-.242-.182-.629-.182c-.096 0-.202.012-.315.04"/>
        <path id="B" d="M50.596.174c-.566.142-12.179 3.12-20.676 6.71-8.498 3.593-12.84 7.184-21.338 15.218C.085 30.136 1.69 37.036.698 44.124c-.99 7.089 1.323 6.475 3.116 10.16 1.795 3.687 8.026 7.61 11.188 9.405 3.164 1.796 8.262 2.742 10.763 2.742.228 0 .482 0 .756.005.003.864.296 1.719.871 2.54l.071.1c.643.88 1.585 1.682 2.801 2.386 1.31.757 2.847 1.344 4.569 1.747a23.35 23.35 0 0 0 5.299.594c1.849 0 3.65-.203 5.355-.603 1.744-.41 3.303-1.007 4.634-1.777 1.246-.72 2.21-1.544 2.867-2.447.018-.026.037-.051.054-.077.59-.837.887-1.707.887-2.585 0-.87-.293-1.728-.87-2.553a6.574 6.574 0 0 0-.423-.539c.37-.18.748-.357 1.123-.526 1.794-.802 3.069-1.559 4.978-2.727 1.91-1.169 2.528-.864 4.982-1.431 2.455-.567 2.833-1.37 3.966-3.214 1.133-1.843 2.927-9.026 4.154-17.769 1.228-8.742-.424-7.844-1.275-11.53-.849-3.687-1.132-6.9-2.737-13.8-1.605-6.9-9.63-8.176-12.982-9.64L51.54.315s-.242-.182-.629-.182c-.096 0-.202.012-.315.04z"/>
        <path id="D" d="M50.596.174c-.566.142-12.179 3.12-20.676 6.71-8.498 3.593-12.84 7.184-21.338 15.218C.085 30.136 1.69 37.036.698 44.124c-.99 7.089 1.323 6.475 3.116 10.16 1.795 3.687 8.026 7.61 11.188 9.405 3.164 1.796 8.262 2.742 10.763 2.742.228 0 .482 0 .756.005.003.864.296 1.719.871 2.54l.071.1c.643.88 1.585 1.682 2.801 2.386 1.31.757 2.847 1.344 4.569 1.747a23.35 23.35 0 0 0 5.299.594c1.849 0 3.65-.203 5.355-.603 1.744-.41 3.303-1.007 4.634-1.777 1.246-.72 2.21-1.544 2.867-2.447.018-.026.037-.051.054-.077.59-.837.887-1.707.887-2.585 0-.87-.293-1.728-.87-2.553a6.574 6.574 0 0 0-.423-.539c.37-.18.748-.357 1.123-.526 1.794-.802 3.069-1.559 4.978-2.727 1.91-1.169 2.528-.864 4.982-1.431 2.455-.567 2.833-1.37 3.966-3.214 1.133-1.843 2.927-9.026 4.154-17.769 1.228-8.742-.424-7.844-1.275-11.53-.849-3.687-1.132-6.9-2.737-13.8-1.605-6.9-9.63-8.176-12.982-9.64L51.54.315s-.242-.182-.629-.182c-.096 0-.202.012-.315.04"/>
        <path id="F" d="M50.596.174c-.566.142-12.179 3.12-20.676 6.71-8.498 3.593-12.84 7.184-21.338 15.218C.085 30.136 1.69 37.036.698 44.124c-.99 7.089 1.323 6.475 3.116 10.16 1.795 3.687 8.026 7.61 11.188 9.405 3.164 1.796 8.262 2.742 10.763 2.742.228 0 .482 0 .756.005.003.864.296 1.719.871 2.54l.071.1c.643.88 1.585 1.682 2.801 2.386 1.31.757 2.847 1.344 4.569 1.747a23.35 23.35 0 0 0 5.299.594c1.849 0 3.65-.203 5.355-.603 1.744-.41 3.303-1.007 4.634-1.777 1.246-.72 2.21-1.544 2.867-2.447.018-.026.037-.051.054-.077.59-.837.887-1.707.887-2.585 0-.87-.293-1.728-.87-2.553a6.574 6.574 0 0 0-.423-.539c.37-.18.748-.357 1.123-.526 1.794-.802 3.069-1.559 4.978-2.727 1.91-1.169 2.528-.864 4.982-1.431 2.455-.567 2.833-1.37 3.966-3.214 1.133-1.843 2.927-9.026 4.154-17.769 1.228-8.742-.424-7.844-1.275-11.53-.849-3.687-1.132-6.9-2.737-13.8-1.605-6.9-9.63-8.176-12.982-9.64L51.54.315s-.242-.182-.629-.182c-.096 0-.202.012-.315.04"/>
        <path id="H" d="M50.596.174c-.566.142-12.179 3.12-20.676 6.71-8.498 3.593-12.84 7.184-21.338 15.218C.085 30.136 1.69 37.036.698 44.124c-.99 7.089 1.323 6.475 3.116 10.16 1.795 3.687 8.026 7.61 11.188 9.405 3.164 1.796 8.262 2.742 10.763 2.742.228 0 .482 0 .756.005.003.864.296 1.719.871 2.54l.071.1c.643.88 1.585 1.682 2.801 2.386 1.31.757 2.847 1.344 4.569 1.747a23.35 23.35 0 0 0 5.299.594c1.849 0 3.65-.203 5.355-.603 1.744-.41 3.303-1.007 4.634-1.777 1.246-.72 2.21-1.544 2.867-2.447.018-.026.037-.051.054-.077.59-.837.887-1.707.887-2.585 0-.87-.293-1.728-.87-2.553a6.574 6.574 0 0 0-.423-.539c.37-.18.748-.357 1.123-.526 1.794-.802 3.069-1.559 4.978-2.727 1.91-1.169 2.528-.864 4.982-1.431 2.455-.567 2.833-1.37 3.966-3.214 1.133-1.843 2.927-9.026 4.154-17.769 1.228-8.742-.424-7.844-1.275-11.53-.849-3.687-1.132-6.9-2.737-13.8-1.605-6.9-9.63-8.176-12.982-9.64L51.54.315s-.242-.182-.629-.182c-.096 0-.202.012-.315.04"/>
    </defs>
    <g fill="none" fill-rule="evenodd">
        <path fill="url(#a)" d="M156.484 338.541a.5.5 0 0 1-.5-.5l-.074-10.264-.007-10.263.055-10.263c.05-6.755-.093-13.509.372-20.263a.155.155 0 0 1 .31 0c.463 6.754.32 13.508.371 20.263l.055 10.263-.007 10.263-.075 10.264-.5-.501m14.391 0l-.5.5-.089-9.138-.02-9.14.032-9.139c-.001-6.38.015-12.759.33-19.139a.247.247 0 0 1 .26-.234c.127.006.227.11.234.234.315 6.38.332 12.76.33 19.14l.033 9.139-.02 9.139-.09 9.139a.5.5 0 0 1-.5.5M4.652 258.553a.5.5 0 0 1-.5-.501l-.08-19.669-.022-9.669.033-9.67c.026-6.556-.063-13.112.308-19.669a.26.26 0 0 1 .52 0c.372 6.557.283 13.113.31 19.67l.032 9.669-.021 9.669-.08 19.669-.5-.5m14.39 0l-.5.5-.084-16.878-.017-6.879.04-6.878c.013-2.814.002-5.627.033-8.44a144.9 144.9 0 0 1 .102-4.22 101.9 101.9 0 0 1 .214-4.22.213.213 0 0 1 .424 0 101.9 101.9 0 0 1 .214 4.22c.057 1.407.088 2.813.103 4.22.03 2.813.02 5.626.032 8.44l.041 6.878-.017 6.879-.085 16.878a.502.502 0 0 1-.5.501M430.325 196.334a.5.5 0 0 1-.5-.5l-.04-16.713.02-6.712.021-6.711.01-8.356c.02-2.785.038-5.57.213-8.356a.278.278 0 0 1 .553 0c.175 2.785.193 5.57.213 8.356l.01 8.356.02 6.711.02 6.712-.04 16.712-.5-.5m14.391 0l-.5.5-.046-19.263.023-9.262.022-9.263c.015-6.421-.03-12.842.256-19.262a.246.246 0 0 1 .256-.235c.128.006.228.11.234.235.287 6.42.241 12.84.256 19.262l.023 9.263.022 9.262-.046 19.263a.5.5 0 0 1-.5.5" transform="translate(0 .444)"/>
        <path stroke="#6F7891" stroke-linecap="round" stroke-linejoin="round" d="M87.616 133.279L4.135 179.7c-2.47 1.428-3.59 3.371-3.426 5.382v4.74c-.22 2.385 1.43 4.955 4.856 6.935l150.962 87.253c5.894 3.407 14.81 3.777 19.913.826l270.253-150.284c2.207-1.276 3.34-2.963 3.438-4.743v-.01a4.718 4.718 0 0 0 0-.505v-5.054c.119-2.33-1.533-4.817-4.868-6.744L294.301 30.243c-5.894-3.406-14.81-3.776-19.913-.826l-32.99 18.345M127.117 111.312l-26.621 14.804"/>
        <path fill="#6F7891" d="M84.11 236.363c6.168 3.095 12.047 6.69 18.032 10.104l17.896 10.34 35.792 20.68c.751.44 1.482.85 2.234 1.212.386.164.762.35 1.155.499.396.14.787.298 1.187.427 1.6.523 3.264.864 4.944 1.03 1.679.167 3.376.166 5.046-.03 1.667-.199 3.314-.594 4.827-1.272.37-.191.732-.371 1.107-.575l1.129-.627 2.257-1.256 4.516-2.512 9.03-5.024 36.124-20.095 144.493-80.38 72.246-40.19c.394-.204.696-.439 1.047-.654.17-.11.313-.252.472-.375.151-.13.32-.246.446-.399a5.076 5.076 0 0 0 1.262-1.934c.27-.716.291-1.5.118-2.248a5.456 5.456 0 0 0-.993-2.116c-.936-1.318-2.299-2.308-3.753-3.144l-4.474-2.585-17.896-10.341-35.792-20.68-71.563-41.398-17.89-10.35-2.237-1.293c-.753-.44-1.474-.847-2.234-1.198a21.724 21.724 0 0 0-4.789-1.548c-3.298-.663-6.769-.683-10.008.152-.402.112-.796.246-1.194.366-.383.16-.773.301-1.148.475-.728.362-1.485.787-2.238 1.207l-4.518 2.51-9.034 5.02-18.07 10.04a.5.5 0 1 1-.486-.875l18.059-10.051 9.028-5.025 4.515-2.513c.75-.419 1.493-.84 2.308-1.246.405-.188.825-.343 1.238-.513.425-.13.847-.273 1.274-.393 1.717-.453 3.481-.654 5.24-.673 1.758-.02 3.516.15 5.24.5 1.722.35 3.414.877 5.02 1.62.803.37 1.585.812 2.319 1.24l2.237 1.292L315.53 41.9l71.593 41.344 35.787 20.69 17.893 10.346 4.473 2.586c1.516.876 3.021 1.949 4.094 3.455.556.73.969 1.6 1.176 2.528.214.924.184 1.94-.154 2.842-.644 1.837-2.183 3.124-3.726 3.96l-72.259 40.167-144.518 80.335-36.13 20.085-9.032 5.02-4.516 2.511-2.258 1.255-1.13.628c-.381.207-.79.412-1.185.614-1.636.733-3.377 1.145-5.125 1.353-1.75.207-3.517.205-5.264.031a24.356 24.356 0 0 1-5.151-1.076c-.42-.134-.83-.299-1.244-.447-.412-.157-.81-.352-1.215-.525-.8-.386-1.572-.82-2.306-1.252l-35.786-20.691-17.893-10.346c-5.945-3.481-11.996-6.78-17.757-10.581a.213.213 0 0 1 .213-.37M80.646 234.295a.739.739 0 0 1 .455.098.657.657 0 0 1 .307.355.337.337 0 0 1-.259.45.66.66 0 0 1-.46-.09.746.746 0 0 1-.313-.344.338.338 0 0 1 .27-.47M57.576 150.556l-34.267 19.125-17.153 9.527-1.072.595c-.357.198-.726.394-1.034.608l-.484.314-.44.364c-.313.226-.539.528-.806.794-.455.586-.822 1.233-.985 1.94-.144.708-.1 1.441.096 2.15.455 1.41 1.468 2.652 2.702 3.608.616.492 1.274.904 1.971 1.317l2.123 1.229 33.968 19.657 16.984 9.829 8.492 4.914c2.833 1.635 5.67 3.262 8.363 5.138a.24.24 0 0 1-.238.414c-2.97-1.396-5.796-3.042-8.627-4.68l-8.497-4.907-16.995-9.81-33.99-19.62-2.123-1.226c-.71-.42-1.442-.875-2.105-1.405-1.338-1.042-2.514-2.423-3.071-4.144a5.695 5.695 0 0 1-.12-2.703c.206-.898.66-1.7 1.209-2.4.307-.316.586-.67.937-.93l.505-.416.544-.355c.367-.25.722-.437 1.079-.637l1.072-.596 17.145-9.547 34.331-19.022a.5.5 0 1 1 .485.875M127.36 111.75l-5.607 3.188-5.634 3.14-5.653 3.107-2.829 1.548-1.414.775c-.47.26-.933.533-1.538.552a.269.269 0 0 1-.232-.418c.335-.504.812-.754 1.281-1.015l1.404-.793 2.809-1.585 5.62-3.164 5.64-3.13 5.667-3.08a.5.5 0 0 1 .486.875"/>
        <path fill="#6F7891" d="M285.418 118.857c-3.436-1.525-6.635-3.459-9.886-5.305a1403.6 1403.6 0 0 1-9.718-5.592L246.42 96.698l-1.211-.704c-.397-.23-.742-.393-1.168-.507-.826-.23-1.721-.286-2.6-.21-.878.077-1.754.277-2.55.628a6.414 6.414 0 0 0-.582.288l-.603.346-1.214.702-9.706 5.614-19.412 11.23-38.824 22.458-19.413 11.23-9.706 5.613-4.853 2.807-1.213.702c-.396.235-.834.47-1.167.696-.688.46-1.232 1.152-1.177 1.788l.001.032v.008l.002 4.018a.635.635 0 0 1-.003.054c-.043.424.16.833.552 1.16.19.166.416.288.701.453l.81.467 3.236 1.87 6.474 3.738 12.947 7.478 25.89 14.96 12.944 7.484.809.467c.14.084.265.15.381.207.116.067.249.113.376.165a5.948 5.948 0 0 0 1.664.353 8.437 8.437 0 0 0 3.442-.466c.554-.194 1.025-.46 1.582-.788l1.618-.935 3.236-1.87 25.891-14.96 51.782-29.919 12.946-7.48 6.472-3.74 3.237-1.87c.415-.235.764-.68 1.04-1.168a6.56 6.56 0 0 0 .638-1.602c.293-1.119.372-2.346.053-3.386-.171-.52-.438-.924-.865-1.226-.113-.078-.204-.157-.333-.235l-.404-.234-.809-.468-6.472-3.741c-4.317-2.49-8.613-5.017-12.784-7.76a.22.22 0 0 1 .219-.38c4.46 2.244 8.793 4.705 13.105 7.204l6.473 3.74.809.467.404.234c.138.083.29.2.433.3l.217.158.202.198c.137.132.266.268.36.431.223.306.356.644.475.979.228.675.262 1.359.254 2.028-.01.671-.126 1.327-.29 1.97a7.647 7.647 0 0 1-.744 1.86c-.336.586-.764 1.177-1.439 1.572l-3.236 1.871-6.472 3.742-12.943 7.483-51.774 29.934-25.887 14.967-3.235 1.87-1.618.936c-.515.306-1.135.656-1.76.871a9.548 9.548 0 0 1-3.91.532 7.082 7.082 0 0 1-1.976-.423c-.161-.066-.324-.125-.48-.211a6.396 6.396 0 0 1-.438-.238l-.81-.468-12.945-7.48-25.888-14.966-12.941-7.487-6.471-3.742-3.236-1.872-.809-.468c-.252-.147-.58-.323-.86-.567a2.766 2.766 0 0 1-.72-.905 2.252 2.252 0 0 1-.215-1.202l-.002.054.001-4.018.001.04c-.045-.629.188-1.216.503-1.668.322-.454.723-.81 1.146-1.101.443-.297.834-.499 1.241-.741l1.214-.701 4.855-2.804 9.71-5.608 19.42-11.214 38.84-22.431 19.421-11.216 9.71-5.607 1.214-.7.612-.351c.222-.121.444-.238.675-.333a9.078 9.078 0 0 1 2.867-.708c.98-.082 1.98-.024 2.956.247.48.122.987.364 1.396.603l1.215.699 19.44 11.182c3.241 1.86 6.47 3.743 9.697 5.63 3.221 1.895 6.494 3.702 9.53 5.918a.176.176 0 0 1 .039.245.176.176 0 0 1-.212.057"/>
        <path fill="#6F7891" d="M164.832 43.657c1.822-1.388 3.767-2.56 5.734-3.696l5.9-3.41 11.798-6.819 23.598-13.639L235.46 2.454l1.475-.852c.48-.284 1.083-.607 1.733-.713.646-.121 1.42-.048 2.02.39.614.414.942 1.084 1.097 1.71.082.317.119.636.128.95.016.322.004.58.008.872V88.35c-.008.579.02 1.106-.028 1.753a7.265 7.265 0 0 1-.41 1.785 9.434 9.434 0 0 1-1.847 3.077c-.398.452-.848.86-1.343 1.218-.514.367-1.013.625-1.5.913l-5.899 3.409-23.6 13.636-47.199 27.273-23.6 13.636-2.95 1.704-1.474.852c-.507.294-1.096.582-1.752.69-.64.123-1.448.006-2.023-.483-.297-.234-.488-.546-.65-.853a3.79 3.79 0 0 1-.282-.954 6.008 6.008 0 0 1-.066-.934V69.828c.008-.301.02-.62.066-.92a8.505 8.505 0 0 1 .452-1.76 9.997 9.997 0 0 1 1.848-3.069c.4-.45.843-.87 1.348-1.224.533-.36 1.005-.603 1.501-.898l2.95-1.705 11.799-6.82c3.929-2.279 7.865-4.547 11.962-6.535a.196.196 0 0 1 .196.339c-3.768 2.559-7.699 4.837-11.636 7.103l-11.798 6.82-2.95 1.704c-.48.284-1.016.571-1.423.849a6.849 6.849 0 0 0-1.168 1.062 8.95 8.95 0 0 0-1.65 2.74 7.452 7.452 0 0 0-.395 1.536c-.04.26-.048.511-.056.778v85.244c.006.278.01.52.053.765.07.488.264.92.568 1.17.298.249.722.34 1.188.254.47-.079.922-.287 1.395-.562l1.475-.852 2.95-1.705 23.599-13.636 47.199-27.273 23.6-13.636 5.9-3.41c.49-.288 1-.559 1.41-.855a7.113 7.113 0 0 0 1.175-1.067 8.38 8.38 0 0 0 1.64-2.731 6.2 6.2 0 0 0 .354-1.528c.038-.488.017-1.1.023-1.656V4.81c-.002-.59.016-1.104-.105-1.569-.116-.463-.337-.88-.68-1.103-.33-.244-.776-.299-1.236-.217-.23.038-.464.119-.693.217a7.598 7.598 0 0 0-.7.372l-1.474.852-23.598 13.64-23.598 13.638-11.799 6.82-5.9 3.41c-1.966 1.137-3.953 2.238-6.064 3.123a.196.196 0 0 1-.194-.337"/>
        <path fill="#6F7891" d="M161.73 45.432a.532.532 0 0 1 .184-.19.35.35 0 0 1 .256-.062.321.321 0 0 1 .249.434.35.35 0 0 1-.185.189.524.524 0 0 1-.256.063.293.293 0 0 1-.248-.434"/>
        <path fill="#FFF" d="M237.119 37.328v50.816c0 .491-.347 1.09-.775 1.338l-103.47 59.803c-.427.247-.774.05-.774-.442V68.235c0-.492.347-1.091.775-1.338L236.344 7.094c.428-.247.775-.05.775.442v25.777"/>
        <path fill="#6F7891" d="M237.357 37.328c.338 4.186.287 8.374.29 12.56l-.002 12.56-.004 25.122v.595c-.002.097-.012.19-.028.28a2.293 2.293 0 0 1-.754 1.309 1.715 1.715 0 0 1-.225.163l-.178.104-.68.393-2.716 1.57-5.434 3.139-10.866 6.279-21.733 12.557-43.466 25.115-10.867 6.278-5.433 3.14-1.358.784-.68.393c-.085.05-.298.183-.53.215-.23.048-.585-.015-.799-.242a1.067 1.067 0 0 1-.295-.672c-.007-.114-.005-.179-.005-.24v-2.551l.003-25.122.007-50.24V68.265a1.905 1.905 0 0 1 .157-.764c.131-.307.313-.58.57-.817.12-.116.316-.232.407-.282l.34-.197 1.358-.784 5.433-3.14 10.867-6.278 21.733-12.558 43.466-25.114 10.867-6.28 5.433-3.139 2.716-1.569.68-.393.339-.196c.065-.036.095-.057.189-.106.084-.046.183-.085.293-.112a.915.915 0 0 1 .779.152c.24.192.326.452.352.652.026.232.01.319.015.46v.392l-.002 12.56v6.281c-.002 2.093-.041 4.186-.26 6.28a.22.22 0 1 1-.436 0c-.218-2.094-.256-4.187-.258-6.28l-.001-6.28-.001-12.561v-.392c-.001-.12.002-.297-.005-.325-.006-.057-.026-.057.006-.03.035.03.072.018.033.025-.017.005-.042.01-.072.029-.023.01-.103.059-.153.087l-.339.196-.679.392-2.717 1.571-5.431 3.14-10.865 6.282-43.46 25.127-21.73 12.564-10.865 6.28-5.432 3.142-1.358.785c-.217.132-.494.269-.578.356a1.335 1.335 0 0 0-.319.462 1.053 1.053 0 0 0-.072.255.87.87 0 0 0-.009.127V69.247l.001 1.57.006 50.24.004 25.122v2.74c-.103-.082-.129.028.111-.128l.679-.393 1.358-.785 5.433-3.14 10.864-6.283 43.46-25.126 21.73-12.563 10.864-6.282 5.433-3.14 2.715-1.57.68-.394.16-.093a.745.745 0 0 0 .091-.067 1.266 1.266 0 0 0 .4-.693.759.759 0 0 0 .011-.11l.001-.19v-.392l-.004-25.121-.001-12.56c.002-4.187-.048-8.375.289-12.56a.24.24 0 0 1 .477 0M309.83 132.303c.238.205.468.446.626.755.155.307.254.66.251 1.017a2.649 2.649 0 0 1-.222 1.006 3.54 3.54 0 0 1-.524.805c-.401.477-.899.819-1.388 1.103l-1.367.778a391.992 391.992 0 0 1-5.474 3.097 822.726 822.726 0 0 0-10.936 6.218l-10.894 6.291-10.876 6.321a.5.5 0 0 1-.502-.866l.002-.001 10.906-6.27 10.889-6.298a814.145 814.145 0 0 0 10.847-6.373c1.8-1.076 3.601-2.15 5.417-3.196l1.356-.796c.414-.243.785-.517 1.068-.838.284-.32.465-.676.495-1.013a1.382 1.382 0 0 0-.07-.508 2.123 2.123 0 0 0-.297-.51l-.034-.045a.5.5 0 0 1 .727-.677M240.775 176.023c-10.694 6.378-21.495 12.572-32.279 18.796l-4.045 2.332-1.01.583-.507.291c-.175.097-.37.202-.558.295a9.121 9.121 0 0 1-2.39.735 9.364 9.364 0 0 1-2.488.083c-.833-.083-1.675-.292-2.464-.723l-4.045-2.345-16.152-9.378-32.304-18.752-8.076-4.69-2.018-1.171-1.014-.591a3.273 3.273 0 0 1-1.012-.907 2.212 2.212 0 0 1-.415-1.393c.025-.5.22-.954.475-1.328.503-.754 1.287-1.227 1.95-1.602l16.168-9.349 64.674-37.391 16.168-9.348 8.084-4.674c1.404-.861 3.076-1.248 4.706-1.249a7.826 7.826 0 0 1 2.456.395c.39.14.817.357 1.13.549l1.01.584 32.343 18.687a.501.501 0 0 1-.5.867l-32.337-18.696-1.01-.584a5.535 5.535 0 0 0-.965-.473 6.868 6.868 0 0 0-2.133-.34c-1.473.006-2.947.34-4.206 1.116l-8.085 4.672-16.171 9.343-64.684 37.375-16.17 9.343c-.345.203-.66.371-.932.59-.277.213-.53.453-.708.723-.376.538-.425 1.149-.067 1.636.175.243.425.46.718.633l1.005.582 2.024 1.164 8.094 4.657 32.375 18.63 16.187 9.314 4.042 2.324c.58.318 1.273.504 1.986.573.713.07 1.447.05 2.163-.071a7.926 7.926 0 0 0 2.06-.629c.16-.08.307-.158.473-.25l.505-.293 1.01-.585 4.04-2.341c10.775-6.237 21.534-12.504 32.4-18.586a.5.5 0 0 1 .5.867"/>
        <path fill="#6F7891" d="M235.025 171.6c-.516.42-1.05.81-1.6 1.17a26.7 26.7 0 0 1-1.705 1.043c-.73.343-1.48.364-2.197.257-.36-.06-.716-.16-1.058-.317-.086-.036-.169-.086-.253-.129l-.216-.124-.427-.245-6.83-3.933-6.83-3.931-1.707-.984c-.32-.187-.669-.437-.895-.859a1.322 1.322 0 0 1-.154-.748c.026-.273.151-.523.307-.707.153-.187.348-.313.511-.412l.426-.247.852-.495 1.704-.988 27.27-15.819 3.413-1.968.853-.491c.148-.083.264-.159.472-.26.188-.085.379-.152.568-.194.76-.172 1.507-.116 2.226.099.18.054.357.126.532.206.184.093.329.18.466.26l.852.493 1.705.987 3.41 1.976 6.818 3.951 1.705.988.852.494.428.249c.167.104.335.211.488.362.153.147.301.316.406.543.106.221.164.502.118.779-.093.567-.548.92-.86 1.085l-1.707.984-13.656 7.872-6.828 3.936c-2.276 1.312-4.57 2.591-6.972 3.685a.18.18 0 0 1-.18-.311c2.147-1.536 4.4-2.886 6.674-4.204l6.819-3.95 13.638-7.904 1.704-.987c.258-.137.346-.272.364-.369.02-.088-.04-.256-.219-.417-.08-.082-.192-.152-.302-.222l-.425-.246-.854-.491-1.707-.984-6.827-3.937-3.414-1.968-1.707-.983-.854-.492a7.413 7.413 0 0 0-.395-.22 2.976 2.976 0 0 0-.386-.149c-.534-.162-1.143-.2-1.665-.075-.277.062-.435.153-.752.341l-.852.494-3.41 1.976-27.317 15.732-1.708.984-.854.49-.427.246a.975.975 0 0 0-.256.198c-.103.138-.113.213-.037.38.082.164.277.335.52.473l1.704.989 6.817 3.955 6.817 3.956.426.247.211.122c.062.03.12.068.185.095.255.117.536.2.823.248.57.095 1.196.054 1.66-.169.24-.126.56-.31.837-.463.292-.15.58-.31.875-.454.586-.299 1.19-.566 1.811-.803a.179.179 0 1 1 .176.305"/>
        <path stroke="#6F7891" stroke-linecap="round" stroke-linejoin="round" d="M268.77 159.25a4.31 4.31 0 0 0-.655.01 4.896 4.896 0 0 0-1.948.608l-24.578 14.206c-.786.454-1.162 1.03-1.07 1.505.21.013.43.01.656-.01a4.893 4.893 0 0 0 1.948-.608l24.578-14.206c.786-.454 1.162-1.029 1.07-1.505z"/>
        <path fill="#FFF" d="M259.144 125.618l5.049-2.91c.296-.17.748-.187 1.008-.035l1.27.74c.26.152.23.413-.067.584l-5.048 2.908c-.297.17-.748.186-1.007.035l-1.27-.74c-.26-.151-.231-.412.065-.582zm-2.965-1.727l5.048-2.912c.296-.17.748-.186 1.008-.035l1.177.686c.26.152.23.413-.067.584l-5.048 2.91c-.296.17-.747.187-1.007.036l-1.177-.686c-.26-.151-.23-.412.066-.583zm-4.314 5.812l5.04-2.904c.295-.17.746-.186 1.006-.035l1.364.794c.26.152.23.413-.066.583l-5.04 2.903c-.295.17-.746.186-1.005.035l-1.364-.793c-.26-.152-.231-.412.065-.583zm-.417-4.339l-4.662 2.69c-.295.17-.746.185-1.006.034l-4.098-2.381c-.26-.152-.231-.413.065-.584l4.66-2.692c.297-.171.748-.187 1.008-.036l4.099 2.386c.26.151.23.412-.066.583zm-8.553-2.926l-4.103-2.387c-.26-.151-.232-.413.064-.584l4.664-2.698c.297-.171.748-.187 1.009-.035l4.103 2.389c.26.152.231.414-.065.585l-4.665 2.695c-.296.17-.747.186-1.007.035zm-6.007 4.017c-.296.171-.746.187-1.006.035l-4.102-2.383c-.26-.15-.232-.413.063-.583l4.656-2.693c.296-.171.747-.188 1.008-.036l4.102 2.386c.26.152.232.413-.064.583l-4.657 2.691zm4.914 5.89l5.03-2.9c.296-.171.747-.187 1.006-.036l4.094 2.38c.26.15.23.41-.066.581l-5.03 2.898c-.296.17-.746.186-1.005.035l-4.093-2.376c-.26-.151-.23-.412.064-.582zm-7.128-2.591c-.26-.152-.231-.412.064-.583l4.653-2.688c.296-.17.746-.186 1.006-.035l4.098 2.382c.26.151.231.411-.064.582l-4.654 2.685c-.296.17-.746.186-1.006.035l-4.097-2.378zm-1.282.74l4.096 2.378c.26.151.232.411-.063.582l-4.646 2.68c-.295.17-.745.186-1.005.035l-4.096-2.376c-.26-.15-.232-.41.063-.58l4.645-2.684c.295-.17.746-.186 1.006-.035zm-8.55-2.92l4.648-2.69c.295-.17.746-.186 1.006-.034l4.102 2.382c.26.15.232.412-.063.583l-4.65 2.686c-.294.17-.744.186-1.004.035l-4.102-2.38c-.26-.15-.232-.412.063-.582zm7.933 9.977l6.675-3.85c.295-.17.745-.185 1.005-.035l4.092 2.376c.26.151.231.41-.064.581l-6.676 3.846c-.295.17-.745.185-1.004.034l-4.091-2.371c-.26-.151-.232-.41.063-.581zm-7.985 2.647l-4.096-2.371c-.26-.15-.232-.41.062-.58l4.638-2.68c.294-.17.744-.185 1.004-.034l4.096 2.375c.26.15.232.41-.063.58l-4.638 2.676c-.295.17-.744.185-1.003.034zm-19.302 6.41l4.093 2.365c.26.15.232.408-.06.577l-4.615 2.663c-.293.168-.74.184-1 .034l-4.093-2.361c-.26-.15-.233-.409.06-.578l4.613-2.665c.294-.17.742-.185 1.002-.035zm-5.826 1.354l-4.61 2.663c-.293.17-.74.185-1 .035l-4.097-2.362c-.26-.15-.234-.41.059-.578l4.609-2.666c.292-.17.74-.185 1-.035l4.098 2.365c.26.15.234.41-.06.578zm-2.766-3.679c-.26-.15-.233-.41.06-.579l4.616-2.67c.294-.17.742-.185 1.003-.035l4.098 2.368c.26.151.233.41-.06.579l-4.618 2.668c-.293.17-.741.185-1 .035l-4.099-2.366zm15.55-1.693l4.094 2.368c.26.15.232.41-.061.578l-4.623 2.667c-.293.169-.741.184-1.001.034l-4.093-2.364c-.26-.15-.233-.41.06-.579l4.622-2.669c.293-.17.742-.186 1.002-.035zm-8.537-2.908l4.625-2.675c.294-.17.743-.186 1.003-.035l4.1 2.372c.26.15.232.41-.062.58l-4.625 2.672c-.293.17-.742.185-1.002.035l-4.099-2.369c-.26-.15-.233-.41.06-.58zm15.507-1.117l4.095 2.37c.26.151.232.411-.062.58l-4.63 2.672c-.294.169-.743.185-1.003.034l-4.094-2.368c-.26-.15-.233-.41.061-.58l4.63-2.673c.294-.17.743-.186 1.003-.035zm-8.541-2.912l4.633-2.68c.294-.17.743-.186 1.004-.035l4.1 2.376c.26.15.232.41-.062.58l-4.633 2.677c-.294.17-.743.185-1.003.035l-4.1-2.372c-.26-.152-.233-.411.06-.581zm-13.907 20.596l-4.092-2.358c-.26-.15-.233-.407.059-.576l4.606-2.66c.292-.17.74-.185 1-.035l4.093 2.36c.26.15.232.408-.06.578l-4.607 2.657c-.292.169-.74.184-1 .034zm-5.361-1.624l4.09 2.357c.26.15.234.408-.058.576l-4.599 2.653c-.292.168-.739.183-.998.034l-4.09-2.354c-.26-.15-.235-.408.057-.576l4.598-2.656c.292-.168.74-.184 1-.034zm-5.812 1.348l-4.594 2.655c-.291.168-.738.183-.998.034l-4.095-2.355c-.26-.15-.235-.408.057-.576l4.593-2.657c.292-.169.74-.185 1-.035l4.095 2.358c.26.15.234.408-.058.576zm5.933 5.79c-.26-.15-.234-.406.058-.575l6.715-3.872c.292-.169.74-.184 1-.034l4.086 2.355c.26.15.233.407-.06.575l-6.716 3.869c-.291.168-.738.183-.997.034l-4.086-2.352zm-8.6 2.47l-4.09-2.35c-.26-.15-.235-.406.057-.575l4.59-2.65c.292-.17.739-.185.999-.035l4.09 2.354c.26.148.234.406-.058.574l-4.592 2.65c-.29.167-.737.182-.997.033zm-4.248-4.264l-4.587 2.65c-.29.168-.737.183-.997.034l-4.094-2.352c-.26-.15-.235-.407.056-.575l4.586-2.653c.29-.168.738-.183.998-.034l4.094 2.354c.26.15.235.408-.056.576zm4.616 6.541c-.26-.149-.234-.406.057-.574l5.91-3.408c.291-.168.738-.183.997-.034l4.086 2.35c.26.15.233.407-.059.575l-5.91 3.404c-.291.168-.737.183-.996.035l-4.085-2.348zm-6.9 3.979c-.26-.149-.234-.405.056-.573l4.582-2.643c.29-.167.737-.183.997-.034l4.084 2.347c.26.15.234.405-.057.573l-4.583 2.64c-.29.167-.737.182-.996.034l-4.084-2.344zm-2.26.762c.291-.168.737-.183.997-.034l4.083 2.343c.26.149.234.405-.057.572l-4.574 2.635c-.29.168-.736.183-.995.034l-4.083-2.34c-.26-.149-.234-.405.056-.573l4.574-2.637zm2.439-8.603c.291-.168.738-.183.997-.034l4.09 2.35c.26.15.234.406-.058.574l-13.262 7.65c-.29.168-.736.183-.995.034l-4.088-2.343c-.26-.148-.234-.405.056-.572l13.26-7.66zm-9.834-1.582c.29-.168.737-.183.997-.034l4.094 2.351c.26.15.234.407-.056.575l-9.73 5.621c-.29.168-.737.183-.996.034l-4.092-2.346c-.26-.149-.236-.405.054-.574l9.729-5.627zm-10.124-3.41c.26.15.235.407-.056.575l-7.096 4.106c-.29.168-.736.184-.996.035l-2.353-1.34c-.26-.15-.236-.407.054-.575l7.095-4.11c.29-.17.737-.185.998-.035l2.354 1.344zm6.899-3.992c.26.15.235.408-.056.576l-4.583 2.651c-.29.168-.737.184-.997.035l-2.354-1.346c-.26-.15-.236-.407.054-.575l4.582-2.655c.291-.168.738-.184.999-.034l2.355 1.348zm6.91-4c.26.15.235.409-.056.577l-4.59 2.657c-.292.168-.739.183-1 .034l-2.355-1.349c-.26-.15-.235-.408.056-.576l4.59-2.66c.291-.168.739-.183 1-.034l2.355 1.352zm6.923-4.005c.26.15.234.408-.058.578l-4.598 2.66c-.292.17-.74.184-1 .034l-2.356-1.352c-.26-.15-.235-.408.057-.577l4.597-2.664c.292-.169.74-.184 1-.034l2.358 1.355zm6.934-4.013c.26.15.234.41-.059.58l-4.606 2.664c-.292.169-.74.184-1 .034l-2.357-1.355c-.26-.15-.235-.41.057-.579l4.605-2.667c.293-.17.741-.185 1.002-.035l2.358 1.358zm6.886-3.44l-4.613 2.67c-.293.169-.741.185-1.002.035l-2.358-1.36c-.26-.15-.234-.41.058-.579l4.613-2.672c.293-.17.742-.186 1.003-.035l2.358 1.362c.26.15.234.41-.059.579zm6.957-4.026l-4.621 2.675c-.294.17-.742.185-1.003.035l-2.359-1.363c-.26-.15-.234-.41.06-.58l4.62-2.677c.293-.17.743-.186 1.003-.035l2.36 1.365c.26.15.234.411-.06.58zm6.969-4.032l-4.63 2.679c-.293.17-.742.186-1.003.035l-2.36-1.366c-.26-.151-.234-.411.06-.581l4.628-2.682c.294-.17.744-.186 1.005-.035l2.36 1.37c.261.15.234.41-.06.58zm6.98-4.039l-4.637 2.684c-.294.17-.744.186-1.004.035l-2.361-1.37c-.26-.151-.234-.412.06-.582l4.637-2.686c.294-.17.745-.187 1.005-.036l2.362 1.373c.26.151.233.412-.062.582zm6.993-4.046l-4.645 2.689c-.295.17-.745.186-1.006.035l-2.362-1.374c-.26-.151-.233-.412.062-.583l4.644-2.69c.295-.171.746-.187 1.006-.036l2.363 1.376c.26.152.233.413-.062.583zm7.004-4.052l-4.653 2.692c-.295.17-.746.187-1.006.035l-2.363-1.376c-.261-.152-.233-.413.062-.584l4.652-2.696c.296-.171.747-.187 1.008-.035l2.363 1.38c.26.15.232.413-.063.584zm7.016-4.06l-4.66 2.697c-.296.17-.747.186-1.008.035l-2.364-1.38c-.26-.152-.233-.414.063-.585l4.66-2.7c.296-.172.748-.187 1.009-.035l2.364 1.383c.26.151.232.414-.064.584zm7.028-4.067l-4.669 2.702c-.296.171-.747.187-1.008.035l-2.365-1.384c-.26-.151-.232-.414.064-.585l4.669-2.705c.296-.172.748-.188 1.009-.035l2.365 1.386c.261.152.232.415-.065.586zm7.04-4.074l-4.676 2.706c-.297.173-.749.188-1.01.036l-2.365-1.387c-.261-.152-.232-.415.064-.587l4.677-2.709c.297-.172.75-.188 1.01-.036l2.366 1.39c.261.153.232.415-.065.587zm-84.262 55.474c.26.15.235.407-.056.575l-7.096 4.106c-.29.168-.736.184-.996.035l-4.097-2.349c-.26-.15-.236-.406.054-.574l7.095-4.111c.291-.168.738-.183.998-.034l4.098 2.352zm6.899-3.992c.26.15.235.408-.057.576l-4.582 2.652c-.29.167-.737.183-.997.034l-4.098-2.353c-.26-.15-.236-.408.055-.577l4.581-2.653c.291-.17.739-.185.999-.035l4.099 2.356zm6.91-4c.26.15.235.409-.057.577l-4.59 2.656c-.291.169-.738.184-.998.035l-4.1-2.357c-.26-.149-.234-.407.057-.576l4.59-2.66c.29-.167.738-.184.998-.033l4.1 2.359zm6.922-4.005c.26.15.235.408-.057.577l-4.598 2.66c-.292.17-.74.185-1 .035l-4.1-2.36c-.26-.15-.234-.408.057-.577l4.598-2.663c.292-.17.74-.185 1-.035l4.1 2.363zm6.934-4.013c.26.15.235.41-.058.579l-4.606 2.665c-.292.169-.74.184-1 .034l-4.1-2.363c-.261-.15-.236-.41.056-.579l4.606-2.668c.292-.17.74-.184 1-.034l4.102 2.366zm6.887-3.44l-4.614 2.67c-.292.169-.74.185-1 .034l-4.103-2.367c-.26-.15-.234-.41.059-.579l4.613-2.672c.293-.17.741-.186 1.002-.035l4.102 2.37c.26.15.234.41-.06.579zm6.957-4.026l-4.622 2.675c-.293.17-.742.185-1.002.035l-4.103-2.37c-.26-.151-.234-.411.06-.58l4.62-2.678c.294-.17.743-.186 1.004-.035l4.103 2.373c.26.15.233.411-.06.58zm13.949-8.071l-4.637 2.683c-.294.17-.744.187-1.005.035l-4.104-2.377c-.26-.151-.234-.412.06-.582l4.637-2.686c.295-.17.745-.186 1.005-.035l4.106 2.38c.26.151.233.412-.062.582zm6.992-4.046l-4.645 2.688c-.295.17-.744.187-1.005.035l-4.105-2.38c-.261-.152-.234-.413.061-.584l4.644-2.69c.295-.171.746-.187 1.007-.036l4.106 2.384c.26.152.232.413-.063.583zm7.005-4.052l-4.653 2.692c-.296.17-.746.186-1.007.035l-4.106-2.384c-.26-.152-.233-.413.062-.585l4.653-2.694c.295-.172.746-.187 1.007-.036l4.107 2.388c.26.151.232.412-.063.584zm7.016-4.06l-4.66 2.697c-.297.17-.748.186-1.008.035l-4.108-2.388c-.26-.152-.232-.413.064-.585l4.66-2.7c.296-.171.747-.187 1.008-.036l4.108 2.392c.26.151.232.414-.064.584zm7.028-4.067l-4.669 2.701c-.296.172-.748.188-1.008.036l-4.108-2.391c-.261-.152-.233-.415.064-.586l4.668-2.704c.296-.173.748-.188 1.01-.036l4.108 2.394c.26.152.232.415-.065.586zm7.04-4.074l-4.676 2.706c-.297.172-.75.188-1.01.036l-4.109-2.395c-.26-.152-.232-.415.065-.587l4.676-2.709c.297-.172.75-.188 1.01-.035l4.11 2.397c.26.153.231.415-.066.587zm6.324 3.69l-9.029 5.216c-.296.17-.747.187-1.008.035l-4.104-2.39c-.26-.152-.231-.414.065-.586l9.027-5.221c.297-.172.75-.188 1.01-.036l4.105 2.395c.26.152.23.415-.066.586zm6.316 3.684l-12.465 7.19c-.296.171-.747.187-1.007.036l-4.099-2.386c-.26-.151-.231-.413.065-.584l12.463-7.198c.297-.171.75-.188 1.01-.035l4.1 2.392c.26.152.23.414-.067.585zm7.23 3.096l-5.056 2.912c-.297.172-.749.187-1.008.036l-1.365-.795c-.26-.152-.23-.414.067-.585l5.057-2.914c.297-.171.749-.187 1.009-.035l1.364.796c.26.152.23.414-.067.585z"/>
        <path stroke="#6F7891" stroke-linecap="round" stroke-linejoin="round" d="M259.144 125.618l5.049-2.91c.296-.17.748-.187 1.008-.035l1.27.74c.26.152.23.413-.067.584l-5.048 2.908c-.297.17-.748.186-1.007.035l-1.27-.74c-.26-.151-.231-.412.065-.582zm-2.965-1.727l5.048-2.912c.296-.17.748-.186 1.008-.035l1.177.686c.26.152.23.413-.067.584l-5.048 2.91c-.296.17-.747.187-1.007.036l-1.177-.686c-.26-.151-.23-.412.066-.583zm-4.314 5.812l5.04-2.904c.295-.17.746-.186 1.006-.035l1.364.794c.26.152.23.413-.066.583l-5.04 2.903c-.295.17-.746.186-1.005.035l-1.364-.793c-.26-.152-.231-.412.065-.583zm-.417-4.339l-4.662 2.69c-.295.17-.746.185-1.006.034l-4.098-2.381c-.26-.152-.231-.413.065-.584l4.66-2.692c.297-.171.748-.187 1.008-.036l4.099 2.386c.26.151.23.412-.066.583zm-8.553-2.926l-4.103-2.387c-.26-.151-.232-.413.064-.584l4.664-2.698c.297-.171.748-.187 1.009-.035l4.103 2.389c.26.152.231.414-.065.585l-4.665 2.695c-.296.17-.747.186-1.007.035zm-6.007 4.017c-.296.171-.746.187-1.006.035l-4.102-2.383c-.26-.15-.232-.413.063-.583l4.656-2.693c.296-.171.747-.188 1.008-.036l4.102 2.386c.26.152.232.413-.064.583l-4.657 2.691zm4.914 5.89l5.03-2.9c.296-.171.747-.187 1.006-.036l4.094 2.38c.26.15.23.41-.066.581l-5.03 2.898c-.296.17-.746.186-1.005.035l-4.093-2.376c-.26-.151-.23-.412.064-.582zm-7.128-2.591c-.26-.152-.231-.412.064-.583l4.653-2.688c.296-.17.746-.186 1.006-.035l4.098 2.382c.26.151.231.411-.064.582l-4.654 2.685c-.296.17-.746.186-1.006.035l-4.097-2.378zm-1.282.74l4.096 2.378c.26.151.232.411-.063.582l-4.646 2.68c-.295.17-.745.186-1.005.035l-4.096-2.376c-.26-.15-.232-.41.063-.58l4.645-2.684c.295-.17.746-.186 1.006-.035zm-8.55-2.92l4.648-2.69c.295-.17.746-.186 1.006-.034l4.102 2.382c.26.15.232.412-.063.583l-4.65 2.686c-.294.17-.744.186-1.004.035l-4.102-2.38c-.26-.15-.232-.412.063-.582zm7.933 9.977l6.675-3.85c.295-.17.745-.185 1.005-.035l4.092 2.376c.26.151.231.41-.064.581l-6.676 3.846c-.295.17-.745.185-1.004.034l-4.091-2.371c-.26-.151-.232-.41.063-.581zm-7.985 2.647l-4.096-2.371c-.26-.15-.232-.41.062-.58l4.638-2.68c.294-.17.744-.185 1.004-.034l4.096 2.375c.26.15.232.41-.063.58l-4.638 2.676c-.295.17-.744.185-1.003.034zm-19.302 6.41l4.093 2.365c.26.15.232.408-.06.577l-4.615 2.663c-.293.168-.74.184-1 .034l-4.093-2.361c-.26-.15-.233-.409.06-.578l4.613-2.665c.294-.17.742-.185 1.002-.035zm-5.826 1.354l-4.61 2.663c-.293.17-.74.185-1 .035l-4.097-2.362c-.26-.15-.234-.41.059-.578l4.609-2.666c.292-.17.74-.185 1-.035l4.098 2.365c.26.15.234.41-.06.578zm-2.766-3.679c-.26-.15-.233-.41.06-.579l4.616-2.67c.294-.17.742-.185 1.003-.035l4.098 2.368c.26.151.233.41-.06.579l-4.618 2.668c-.293.17-.741.185-1 .035l-4.099-2.366zm15.55-1.693l4.094 2.368c.26.15.232.41-.061.578l-4.623 2.667c-.293.169-.741.184-1.001.034l-4.093-2.364c-.26-.15-.233-.41.06-.579l4.622-2.669c.293-.17.742-.186 1.002-.035zm-8.537-2.908l4.625-2.675c.294-.17.743-.186 1.003-.035l4.1 2.372c.26.15.232.41-.062.58l-4.625 2.672c-.293.17-.742.185-1.002.035l-4.099-2.369c-.26-.15-.233-.41.06-.58zm15.507-1.117l4.095 2.37c.26.151.232.411-.062.58l-4.63 2.672c-.294.169-.743.185-1.003.034l-4.094-2.368c-.26-.15-.233-.41.061-.58l4.63-2.673c.294-.17.743-.186 1.003-.035zm-8.541-2.912l4.633-2.68c.294-.17.743-.186 1.004-.035l4.1 2.376c.26.15.232.41-.062.58l-4.633 2.677c-.294.17-.743.185-1.003.035l-4.1-2.372c-.26-.152-.233-.411.06-.581zm-13.907 20.596l-4.092-2.358c-.26-.15-.233-.407.059-.576l4.606-2.66c.292-.17.74-.185 1-.035l4.093 2.36c.26.15.232.408-.06.578l-4.607 2.657c-.292.169-.74.184-1 .034zm-5.361-1.624l4.09 2.357c.26.15.234.408-.058.576l-4.599 2.653c-.292.168-.739.183-.998.034l-4.09-2.354c-.26-.15-.235-.408.057-.576l4.598-2.656c.292-.168.74-.184 1-.034zm-5.812 1.348l-4.594 2.655c-.291.168-.738.183-.998.034l-4.095-2.355c-.26-.15-.235-.408.057-.576l4.593-2.657c.292-.169.74-.185 1-.035l4.095 2.358c.26.15.234.408-.058.576zm5.933 5.79c-.26-.15-.234-.406.058-.575l6.715-3.872c.292-.169.74-.184 1-.034l4.086 2.355c.26.15.233.407-.06.575l-6.716 3.869c-.291.168-.738.183-.997.034l-4.086-2.352zm-8.6 2.47l-4.09-2.35c-.26-.15-.235-.406.057-.575l4.59-2.65c.292-.17.739-.185.999-.035l4.09 2.354c.26.148.234.406-.058.574l-4.592 2.65c-.29.167-.737.182-.997.033zm-4.248-4.264l-4.587 2.65c-.29.168-.737.183-.997.034l-4.094-2.352c-.26-.15-.235-.407.056-.575l4.586-2.653c.29-.168.738-.183.998-.034l4.094 2.354c.26.15.235.408-.056.576zm4.616 6.541c-.26-.149-.234-.406.057-.574l5.91-3.408c.291-.168.738-.183.997-.034l4.086 2.35c.26.15.233.407-.059.575l-5.91 3.404c-.291.168-.737.183-.996.035l-4.085-2.348zm-6.9 3.979c-.26-.149-.234-.405.056-.573l4.582-2.643c.29-.167.737-.183.997-.034l4.084 2.347c.26.15.234.405-.057.573l-4.583 2.64c-.29.167-.737.182-.996.034l-4.084-2.344zm-2.26.762c.291-.168.737-.183.997-.034l4.083 2.343c.26.149.234.405-.057.572l-4.574 2.635c-.29.168-.736.183-.995.034l-4.083-2.34c-.26-.149-.234-.405.056-.573l4.574-2.637zm2.439-8.603c.291-.168.738-.183.997-.034l4.09 2.35c.26.15.234.406-.058.574l-13.262 7.65c-.29.168-.736.183-.995.034l-4.088-2.343c-.26-.148-.234-.405.056-.572l13.26-7.66zm-9.834-1.582c.29-.168.737-.183.997-.034l4.094 2.351c.26.15.234.407-.056.575l-9.73 5.621c-.29.168-.737.183-.996.034l-4.092-2.346c-.26-.149-.236-.405.054-.574l9.729-5.627zm-10.124-3.41c.26.15.235.407-.056.575l-7.096 4.106c-.29.168-.736.184-.996.035l-2.353-1.34c-.26-.15-.236-.407.054-.575l7.095-4.11c.29-.17.737-.185.998-.035l2.354 1.344zm6.899-3.992c.26.15.235.408-.056.576l-4.583 2.651c-.29.168-.737.184-.997.035l-2.354-1.346c-.26-.15-.236-.407.054-.575l4.582-2.655c.291-.168.738-.184.999-.034l2.355 1.348zm6.91-4c.26.15.235.409-.056.577l-4.59 2.657c-.292.168-.739.183-1 .034l-2.355-1.349c-.26-.15-.235-.408.056-.576l4.59-2.66c.291-.168.739-.183 1-.034l2.355 1.352zm6.923-4.005c.26.15.234.408-.058.578l-4.598 2.66c-.292.17-.74.184-1 .034l-2.356-1.352c-.26-.15-.235-.408.057-.577l4.597-2.664c.292-.169.74-.184 1-.034l2.358 1.355zm6.934-4.013c.26.15.234.41-.059.58l-4.606 2.664c-.292.169-.74.184-1 .034l-2.357-1.355c-.26-.15-.235-.41.057-.579l4.605-2.667c.293-.17.741-.185 1.002-.035l2.358 1.358zm6.886-3.44l-4.613 2.67c-.293.169-.741.185-1.002.035l-2.358-1.36c-.26-.15-.234-.41.058-.579l4.613-2.672c.293-.17.742-.186 1.003-.035l2.358 1.362c.26.15.234.41-.059.579zm6.957-4.026l-4.621 2.675c-.294.17-.742.185-1.003.035l-2.359-1.363c-.26-.15-.234-.41.06-.58l4.62-2.677c.293-.17.743-.186 1.003-.035l2.36 1.365c.26.15.234.411-.06.58zm6.969-4.032l-4.63 2.679c-.293.17-.742.186-1.003.035l-2.36-1.366c-.26-.151-.234-.411.06-.581l4.628-2.682c.294-.17.744-.186 1.005-.035l2.36 1.37c.261.15.234.41-.06.58zm6.98-4.039l-4.637 2.684c-.294.17-.744.186-1.004.035l-2.361-1.37c-.26-.151-.234-.412.06-.582l4.637-2.686c.294-.17.745-.187 1.005-.036l2.362 1.373c.26.151.233.412-.062.582zm6.993-4.046l-4.645 2.689c-.295.17-.745.186-1.006.035l-2.362-1.374c-.26-.151-.233-.412.062-.583l4.644-2.69c.295-.171.746-.187 1.006-.036l2.363 1.376c.26.152.233.413-.062.583zm7.004-4.052l-4.653 2.692c-.295.17-.746.187-1.006.035l-2.363-1.376c-.261-.152-.233-.413.062-.584l4.652-2.696c.296-.171.747-.187 1.008-.035l2.363 1.38c.26.15.232.413-.063.584zm7.016-4.06l-4.66 2.697c-.296.17-.747.186-1.008.035l-2.364-1.38c-.26-.152-.233-.414.063-.585l4.66-2.7c.296-.172.748-.187 1.009-.035l2.364 1.383c.26.151.232.414-.064.584zm7.028-4.067l-4.669 2.702c-.296.171-.747.187-1.008.035l-2.365-1.384c-.26-.151-.232-.414.064-.585l4.669-2.705c.296-.172.748-.188 1.009-.035l2.365 1.386c.261.152.232.415-.065.586zm7.04-4.074l-4.676 2.706c-.297.173-.749.188-1.01.036l-2.365-1.387c-.261-.152-.232-.415.064-.587l4.677-2.709c.297-.172.75-.188 1.01-.036l2.366 1.39c.261.153.232.415-.065.587zm-84.262 55.474c.26.15.235.407-.056.575l-7.096 4.106c-.29.168-.736.184-.996.035l-4.097-2.349c-.26-.15-.236-.406.054-.574l7.095-4.111c.291-.168.738-.183.998-.034l4.098 2.352zm6.899-3.992c.26.15.235.408-.057.576l-4.582 2.652c-.29.167-.737.183-.997.034l-4.098-2.353c-.26-.15-.236-.408.055-.577l4.581-2.653c.291-.17.739-.185.999-.035l4.099 2.356zm6.91-4c.26.15.235.409-.057.577l-4.59 2.656c-.291.169-.738.184-.998.035l-4.1-2.357c-.26-.149-.234-.407.057-.576l4.59-2.66c.29-.167.738-.184.998-.033l4.1 2.359zm6.922-4.005c.26.15.235.408-.057.577l-4.598 2.66c-.292.17-.74.185-1 .035l-4.1-2.36c-.26-.15-.234-.408.057-.577l4.598-2.663c.292-.17.74-.185 1-.035l4.1 2.363zm6.934-4.013c.26.15.235.41-.058.579l-4.606 2.665c-.292.169-.74.184-1 .034l-4.1-2.363c-.261-.15-.236-.41.056-.579l4.606-2.668c.292-.17.74-.184 1-.034l4.102 2.366zm6.887-3.44l-4.614 2.67c-.292.169-.74.185-1 .034l-4.103-2.367c-.26-.15-.234-.41.059-.579l4.613-2.672c.293-.17.741-.186 1.002-.035l4.102 2.37c.26.15.234.41-.06.579zm6.957-4.026l-4.622 2.675c-.293.17-.742.185-1.002.035l-4.103-2.37c-.26-.151-.234-.411.06-.58l4.62-2.678c.294-.17.743-.186 1.004-.035l4.103 2.373c.26.15.233.411-.06.58zm13.949-8.071l-4.637 2.683c-.294.17-.744.187-1.005.035l-4.104-2.377c-.26-.151-.234-.412.06-.582l4.637-2.686c.295-.17.745-.186 1.005-.035l4.106 2.38c.26.151.233.412-.062.582zm6.992-4.046l-4.645 2.688c-.295.17-.744.187-1.005.035l-4.105-2.38c-.261-.152-.234-.413.061-.584l4.644-2.69c.295-.171.746-.187 1.007-.036l4.106 2.384c.26.152.232.413-.063.583zm7.005-4.052l-4.653 2.692c-.296.17-.746.186-1.007.035l-4.106-2.384c-.26-.152-.233-.413.062-.585l4.653-2.694c.295-.172.746-.187 1.007-.036l4.107 2.388c.26.151.232.412-.063.584zm7.016-4.06l-4.66 2.697c-.297.17-.748.186-1.008.035l-4.108-2.388c-.26-.152-.232-.413.064-.585l4.66-2.7c.296-.171.747-.187 1.008-.036l4.108 2.392c.26.151.232.414-.064.584zm7.028-4.067l-4.669 2.701c-.296.172-.748.188-1.008.036l-4.108-2.391c-.261-.152-.233-.415.064-.586l4.668-2.704c.296-.173.748-.188 1.01-.036l4.108 2.394c.26.152.232.415-.065.586zm7.04-4.074l-4.676 2.706c-.297.172-.75.188-1.01.036l-4.109-2.395c-.26-.152-.232-.415.065-.587l4.676-2.709c.297-.172.75-.188 1.01-.035l4.11 2.397c.26.153.231.415-.066.587zm6.324 3.69l-9.029 5.216c-.296.17-.747.187-1.008.035l-4.104-2.39c-.26-.152-.231-.414.065-.586l9.027-5.221c.297-.172.75-.188 1.01-.036l4.105 2.395c.26.152.23.415-.066.586zm6.316 3.684l-12.465 7.19c-.296.171-.747.187-1.007.036l-4.099-2.386c-.26-.151-.231-.413.065-.584l12.463-7.198c.297-.171.75-.188 1.01-.035l4.1 2.392c.26.152.23.414-.067.585zm7.23 3.096l-5.056 2.912c-.297.172-.749.187-1.008.036l-1.365-.795c-.26-.152-.23-.414.067-.585l5.057-2.914c.297-.171.749-.187 1.009-.035l1.364.796c.26.152.23.414-.067.585z"/>
        <path fill="#FFF" d="M208.577 135.51l-1.635.945c-.293.17-.743.186-1.003.035l-4.104-2.374c-.26-.15-.234-.41.06-.581l4.629-2.681c.293-.171.743-.187 1.004-.035l4.104 2.376c.26.151.233.411-.06.581l-.972.562"/>
        <path fill="#6F7891" d="M208.68 135.688c-.352.282-.718.542-1.081.805l-.276.193c-.094.062-.165.127-.33.206a1.621 1.621 0 0 1-.902.133 1.287 1.287 0 0 1-.251-.067c-.043-.015-.088-.037-.132-.06l-.076-.039-.297-.155-.59-.317c-.394-.212-.783-.43-1.171-.65l-1.167-.66-.583-.329-.317-.182a.917.917 0 0 1-.291-.292.805.805 0 0 1-.111-.528c.064-.371.279-.54.433-.652.098-.064.12-.074.175-.107l.145-.083.579-.337 1.158-.674c.77-.451 1.547-.891 2.325-1.33l.291-.165a1.8 1.8 0 0 1 .218-.108c.08-.031.16-.057.24-.075.32-.065.628-.075.993.068.044.017.094.044.137.068l.072.043.144.085.288.172.574.346 2.294 1.383c.192.115.381.233.57.353l.163.105c.084.06.174.142.245.268a.675.675 0 0 1-.093.79c-.147.162-.319.226-.4.261l-.314.128c-.212.08-.425.157-.65.215a.193.193 0 0 1-.235-.139.195.195 0 0 1 .05-.184c.162-.166.335-.312.51-.456l.266-.208c.11-.075.143-.115.136-.13-.002-.006-.019.005-.03.044a.204.204 0 0 0 .012.124c.014.03.018.035.01.035l-.125-.066a19.14 19.14 0 0 1-.59-.32l-2.341-1.3-1.11-.618a.618.618 0 0 0-.323 0c-.03.007-.055.017-.08.026-.032.016-.016.006-.08.044l-.287.171c-.768.456-1.536.911-2.312 1.354l-1.16.67-.58.335-.257.148c-.027.01.016.017.047-.128a.325.325 0 0 0-.043-.207c-.03-.047-.051-.058-.054-.06l.26.156.577.341 1.152.683c.385.226.768.456 1.148.69l.57.354.282.18.088.057c.016.01.042.02.07.028a.776.776 0 0 0 .413 0c.04-.008.156-.069.257-.115l.304-.143c.41-.183.816-.371 1.237-.536a.208.208 0 0 1 .206.358"/>
        <path fill="#FFF" d="M190.151 153.457l-.058.033"/>
        <path fill="#6F7891" d="M190.342 153.787l-.05.05a.413.413 0 1 1-.584-.586.41.41 0 0 1 .186-.107l.067-.018a.395.395 0 0 1 .381.661"/>
        <path fill="#FFF" d="M188.69 154.302l-.57.328c-.291.169-.739.184-.998.035l-4.096-2.359c-.26-.15-.234-.408.058-.578l4.6-2.661c.293-.169.74-.184 1-.034l4.097 2.361c.26.15.234.408-.058.577l-1.374.794"/>
        <path fill="#6F7891" d="M188.813 154.517c-.161.15-.33.286-.502.416a1.412 1.412 0 0 1-1.268.157 1.225 1.225 0 0 1-.12-.056l-.075-.041-.14-.08-.559-.318-2.236-1.272-1.125-.64c-.154-.087-.389-.304-.388-.642a.797.797 0 0 1 .335-.618c.077-.06.147-.097.183-.119l.14-.08.277-.164 2.22-1.3 1.116-.64.558-.32.14-.08.168-.092c.146-.07.29-.11.435-.133.29-.037.58-.037.915.132l.566.33 1.112.646 2.223 1.295.14.08.069.041c.041.026.081.05.124.088.082.067.17.164.224.302a.671.671 0 0 1 .015.44c-.09.268-.258.387-.395.476l-.291.163a8.04 8.04 0 0 1-1.179.531.3.3 0 0 1-.293-.508c.33-.287.684-.53 1.05-.756l.264-.16c.042-.023.047-.056.02.004-.032.073.037.193.037.175l-.077-.045-.14-.08-2.235-1.275-1.117-.638-.549-.312c-.048-.03-.21-.053-.34-.028a.64.64 0 0 0-.177.054l-.25.145-.556.325-1.11.648-2.235 1.276-.507.292c-.034.02.007.021.014-.086-.003-.117-.074-.151-.047-.132l1.103.645 2.223 1.295.556.324c.234.135.241.159.403.176a.95.95 0 0 0 .422-.044c.198-.085.4-.163.61-.228a.255.255 0 0 1 .25.43"/>
        <path fill="#FFF" d="M216.193 152.917l-10.337 5.954c-.292.168-.739.184-.999.034l-4.087-2.356c-.26-.15-.233-.408.06-.576l29.597-17.068c.295-.17.744-.186 1.004-.035l4.091 2.371c.26.15.231.41-.063.58l-16.543 9.528"/>
        <path fill="#6F7891" d="M216.306 153.114a39.77 39.77 0 0 1-2.028 1.376c-.682.447-1.375.876-2.075 1.294-1.4.834-2.817 1.637-4.226 2.455l-1.058.613-.529.305-.264.153a1.535 1.535 0 0 1-.422.166 1.642 1.642 0 0 1-.883-.026 1.225 1.225 0 0 1-.235-.105l-.133-.076-.264-.152-1.06-.609-2.12-1.216-.557-.324a.881.881 0 0 1-.259-.257.773.773 0 0 1-.125-.455.876.876 0 0 1 .355-.641c.175-.127.227-.141.322-.202l.265-.152.529-.307 16.92-9.796 8.48-4.863 2.121-1.215 1.06-.608a1.652 1.652 0 0 1 .835-.232 1.64 1.64 0 0 1 .452.056c.08.024.16.051.245.097l.153.087 2.11 1.231 1.056.615.528.308.263.154c.126.07.377.25.437.583a.816.816 0 0 1-.264.728 1.155 1.155 0 0 1-.218.161l-.134.078-.53.302-1.061.608-2.121 1.214-4.243 2.427-4.242 2.428c-1.413.811-2.84 1.598-4.368 2.208a.205.205 0 0 1-.203-.353c1.295-1.015 2.691-1.855 4.102-2.67l4.229-2.452 4.229-2.452 2.114-1.225 1.058-.613.528-.306.13-.075.028-.02c.011-.012-.06.048-.04.187.022.128.107.155.057.128l-.265-.152-.53-.305-1.058-.61-2.118-1.22-.114-.064c-.004-.004-.022-.008-.038-.014a.721.721 0 0 0-.398.035c-.027.01-.025.011-.082.043l-1.057.614-2.114 1.227-8.457 4.904-16.953 9.738-.994.572c-.022.011.032-.002.046-.136.006-.146-.093-.222-.085-.212l.499.289 2.115 1.224 1.058.612.264.154.132.076c.03.016.02.012.044.02a.642.642 0 0 0 .468-.052l.264-.152.53-.304 1.06-.608c1.416-.807 2.821-1.631 4.245-2.424.713-.396 1.431-.78 2.161-1.145a40.16 40.16 0 0 1 2.208-1.064.228.228 0 0 1 .226.394"/>
        <path fill="#FFF" d="M225.414 133.084l-2.519 1.455c-.294.17-.744.186-1.004.035l-4.1-2.376c-.26-.15-.233-.411.061-.581l4.64-2.685c.296-.17.746-.186 1.006-.034l4.101 2.378c.26.15.232.412-.063.582l-.5.289"/>
        <path fill="#6F7891" d="M225.522 133.27c-.693.628-1.46 1.126-2.244 1.596l-.148.087a1.67 1.67 0 0 1-1.192.16 1.24 1.24 0 0 1-.267-.104l-.16-.09-1.193-.673-2.386-1.346-.298-.169-.075-.042-.037-.02-.073-.046a.889.889 0 0 1-.29-.318.79.79 0 0 1-.073-.537.881.881 0 0 1 .205-.395 1.14 1.14 0 0 1 .25-.21l.163-.098 1.177-.7 2.37-1.375.593-.342.296-.172.08-.045a1.672 1.672 0 0 1 .373-.15c.33-.077.65-.096 1.029.046.046.018.095.042.144.07l.082.047.147.087.295.175 2.357 1.396c.392.235.789.461 1.176.703.102.057.41.271.437.642a.702.702 0 0 1-.117.456.855.855 0 0 1-.245.236c-.189.111-.263.106-.387.144a2.403 2.403 0 0 1-.359.065.255.255 0 0 1-.231-.402c.072-.103.152-.193.234-.278.07-.08.203-.185.197-.212.024-.042-.058-.04-.062.109-.002.136.107.186.012.14-.402-.217-.795-.448-1.194-.672l-2.382-1.353-.298-.17-.149-.083-.066-.038-.01-.003a.627.627 0 0 0-.32 0c-.027.009-.054.016-.074.026l-.028.014-.07.04-.296.172-.592.343-2.374 1.368-1.193.673-.134.075c-.016.008-.02.014-.013.005.006-.008.028-.034.043-.097a.312.312 0 0 0-.029-.205c-.03-.053-.054-.067-.059-.07 0 0-.003-.002 0 0l.037.022.074.044.294.175 2.355 1.4 1.177.702.137.08c.007.006.029.013.05.021a.75.75 0 0 0 .39-.015c.032-.008.056-.021.079-.032l.148-.083c.798-.445 1.613-.86 2.501-1.147a.22.22 0 0 1 .216.374"/>
        <path stroke="#6F7891" stroke-linecap="round" stroke-linejoin="round" d="M301.492 102.924l.234.133c.332.147.742.154 1.198 0 .158-.056.324-.128.493-.224l.04-.023.005-.002 34.203-19.786.171-.098.31-.179.712-.413-.123-.07-.816-.472-2.483-1.435"/>
        <path fill="#6F7891" d="M263.636 64.504l-6.786 3.923a.522.522 0 0 1-.209.065l.207-.065c-.622.322-1.109.766-1.559 1.3a7.068 7.068 0 0 0-1.07 1.766c-.268.634-.445 1.309-.46 1.967-.023.65.154 1.299.553 1.598a.495.495 0 0 1 .059.74l-.006.006-.003.003a.538.538 0 0 1-.106.083l-.028.016-.002.001-.002-.866 11.247 6.432 11.22 6.479 11.196 6.522c3.716 2.201 7.523 4.245 11.069 6.742a.211.211 0 1 1-.21.364c-3.934-1.824-7.607-4.1-11.37-6.219l-11.243-6.44-11.218-6.483-11.19-6.53-.004-.002a.5.5 0 0 1 .001-.864h.002l.028-.017-.106.083.003-.003.053.747c-.393-.304-.644-.732-.777-1.153a3.783 3.783 0 0 1-.165-1.261c.02-.827.232-1.608.537-2.335a8.075 8.075 0 0 1 1.224-2.018c.497-.6 1.132-1.167 1.828-1.525l.024-.013a.505.505 0 0 1 .184-.053h.001l-.208.066 6.786-3.922a.5.5 0 1 1 .5.866"/>
        <path stroke="#6F7891" stroke-linecap="round" stroke-linejoin="round" d="M338.857 76.366l-11.92-6.889M337.627 77.08c-1.023.715-1.869 2.006-2.191 3.275-.091.357-.14.713-.14 1.052 0 1.563 1.04 2.245 2.368 1.616l-34.201 19.784a.046.046 0 0 0-.007.004l-.04.023a2.95 2.95 0 0 1-.493.223c-.454.154-.864.147-1.197 0a1.228 1.228 0 0 1-.234-.134c-.402-.295-.646-.845-.646-1.6 0-1.273.69-2.76 1.665-3.758a5.045 5.045 0 0 1 .336-.315l.005-.004.058-.048.052-.043.046-.036.038-.029a4.1 4.1 0 0 1 .21-.15l.056-.037.02-.012c.04-.026.083-.051.124-.075"/>
        <path stroke="#6F7891" stroke-linecap="round" stroke-linejoin="round" d="M338.857 76.366l-4.666 2.698-2.14 1.236-28.347 16.386a4.02 4.02 0 0 0-.786.506M325.676 71.453l1.85 1.227.607.403.091.06-.57.285-.247.124-.137.068-27.35 13.649a.055.055 0 0 0-.005.003l-.031.015a2.275 2.275 0 0 1-.392.149c-.358.097-.674.072-.925-.057l-.173-.115-34.97-23.18"/>
        <path stroke="#6F7891" stroke-linecap="round" stroke-linejoin="round" d="M298.394 87.263l-34.97-23.18c-.59-.198-.942-.818-.884-1.742.058-.937.518-1.972 1.185-2.802.398-.496.868-.917 1.37-1.196M325.677 71.453l1.85 1.226.606.404.09.06-.568.285-.25.123-.135.068-27.349 13.65c-.002.002-.005.002-.005.002-.012.004-.022.01-.032.015a2.42 2.42 0 0 1-.393.15c-.357.096-.674.071-.924-.057M322.144 71.71l-1.485.74-2.418-1.604-5.242-3.474-15.39-10.208-9.135-6.056-3.842-2.55 1.487-.74 3.842 2.55 13.717 9.096 10.977 7.278 4.867 3.23z"/>
        <path fill="#6F7891" d="M327.784 69.455c-.802.507-1.45 1.427-1.692 2.36-.122.46-.104.965.074 1.221.09.12.192.192.353.211.158.023.36-.008.565-.092a.5.5 0 0 1 .413.91l-.004.003-16.63 8.3-8.316 4.15-2.08 1.037c-.178.084-.324.175-.565.263a2.1 2.1 0 0 1-.712.182c-.26.018-.55-.017-.818-.144a1.555 1.555 0 0 1-.644-.582c-.288-.492-.313-1.003-.26-1.45.062-.452.193-.874.388-1.257.386-.765.957-1.412 1.69-1.843l-.02.017a.295.295 0 0 1 .048-.035l-.028.019c.122-.073.252-.136.384-.186a.22.22 0 0 1 .226.371l-.008.008a6.343 6.343 0 0 0-.268.248l-.027.018a.227.227 0 0 0 .04-.028v-.003h-.002l-.02.02a5.33 5.33 0 0 0-1.139 1.785c-.12.324-.216.653-.236.972-.028.317.007.622.121.804.107.177.253.257.51.25.126 0 .268-.045.408-.103.129-.033.318-.141.488-.223l2.079-1.037 8.315-4.15 16.63-8.299.408.913a2.12 2.12 0 0 1-1.075.154 1.496 1.496 0 0 1-1.037-.634 2.048 2.048 0 0 1-.326-1.054 3.377 3.377 0 0 1 .105-.978 5.043 5.043 0 0 1 .792-1.679c.36-.5.798-.95 1.349-1.293a.5.5 0 0 1 .53.848l-.01.006z"/>
        <path fill="#6F7891" d="M308.179 54.84c.962.399 1.824.95 2.678 1.512l2.57 1.676 5.138 3.354 5.119 3.383 5.096 3.42a.5.5 0 0 1-.054.864l-13.156 6.58a644.535 644.535 0 0 0-6.567 3.31c-1.094.554-2.183 1.117-3.293 1.638-1.105.53-2.2 1.08-3.427 1.369a.212.212 0 0 1-.184-.37c.966-.809 2.063-1.356 3.151-1.921 1.083-.576 2.186-1.11 3.285-1.655a624.544 624.544 0 0 0 6.589-3.268l13.156-6.579-.054.865-5.122-3.378-5.1-3.412-5.08-3.443-2.539-1.722c-.848-.57-1.69-1.152-2.43-1.885a.207.207 0 0 1 .224-.338M263.644 58.87a5.348 5.348 0 0 1 1.065-.882c.078-.048.182-.105.25-.136l.454-.228 1.79-.895 3.579-1.79 7.16-3.581 14.317-7.162a.501.501 0 0 1 .5.03l3.624 2.411 3.629 2.403 3.637 2.39c1.181.844 2.438 1.572 3.443 2.682a.213.213 0 0 1-.229.345c-1.41-.498-2.57-1.375-3.804-2.139l-3.61-2.43-3.62-2.417-3.623-2.41.5.03-14.318 7.162-7.16 3.581-3.578 1.79-1.79.895-.44.22c-.083.041-.126.064-.19.104a3.594 3.594 0 0 0-.183.12c-.24.169-.466.37-.673.59a.5.5 0 1 1-.73-.683z"/>
        <path stroke="#6F7891" stroke-linecap="round" stroke-linejoin="round" d="M322.145 71.71l-1.486.74-36.026-23.892 1.486-.74z"/>
        <path fill="#FFF" d="M316.676 71.666l-1.123.042-2.138.08-.753.029c-.403.002-.795-.008-1.18-.036a14.254 14.254 0 0 1-1.442-.166l-32.185-6.041-2.496-.468-.106-.02a3.433 3.433 0 0 1-.722-.21l-.002-.002c-.393-.169-.783-.451-.78-.907 0-.038.002-.075.01-.116.093-.638.588-.809 1.11-.819.22-.007.45.015.65.046.079.01.154.023.222.035l2.326.428 33.536 6.184h.007c.82.142 1.578.35 2.263.63l.525.245 2.278 1.066z"/>
        <path stroke="#6F7891" stroke-linecap="round" stroke-linejoin="round" d="M316.676 71.666l-1.123.042-2.138.08-.753.029c-.403.002-.795-.008-1.18-.036a14.254 14.254 0 0 1-1.442-.166l-32.185-6.041-2.496-.468-.106-.02a3.433 3.433 0 0 1-.722-.21l-.002-.002c-.393-.169-.783-.451-.78-.907 0-.038.002-.075.01-.116.093-.638.588-.809 1.11-.819.22-.007.45.015.65.046.079.01.154.023.222.035l2.326.428 33.536 6.184h.007c.82.142 1.578.35 2.263.63l.525.245 2.278 1.066z"/>
        <path stroke="#6F7891" stroke-linecap="round" stroke-linejoin="round" d="M277.855 65.574l-2.496-.469-.106-.02a3.408 3.408 0 0 1-.722-.209l-.002-.002c-.094-.098-.187-.197-.282-.292-.446-.446-.492-.79.06-1.273.22-.008 1.012-.262 1.213-.231.078.01.153.023.221.035l2.326.428a1.923 1.923 0 0 0-.212 2.033z"/>
        <path stroke="#6F7891" stroke-linecap="round" stroke-linejoin="round" d="M275.359 65.106l-.106-.02c-.332-.056-1.625-.35-1.495-1.235.134-.91 1.087-.872 1.762-.774a1.916 1.916 0 0 0-.161 2.029zM316.676 71.666l-3.261.123-.753.028c-.403.002-.795-.008-1.18-.036-.526-.698-.312-1.567.128-2.056.82.142 1.578.35 2.263.63l.525.245 2.278 1.066z"/>
        <path fill="#6F7891" d="M350.424 94.943c.329 1.653.57 3.317.788 4.983l.594 5.005 1.09 10.022-.496-.445h.003c.26 0 .475.203.499.458.083.934.222 1.856.62 2.61.387.755 1.069 1.284 1.894 1.595 1.77.665 3.61 1.148 5.468 1.19 1.857.054 3.696-.378 5.396-1.16.857-.37 1.596-.852 2.114-1.543.52-.682.787-1.541.914-2.453l2.627-23.034a.5.5 0 1 1 .993.113l-2.63 23.064c-.138.993-.447 2.048-1.106 2.913-.644.869-1.59 1.461-2.499 1.85-1.804.834-3.82 1.31-5.832 1.251-2.013-.046-3.961-.565-5.8-1.254a5.024 5.024 0 0 1-1.394-.795 4.147 4.147 0 0 1-1.03-1.27c-.506-.972-.64-2.012-.732-2.991l.498.457h-.003a.502.502 0 0 1-.497-.445l-1.162-10.013-.532-5.012c-.158-1.673-.292-3.349-.338-5.034a.28.28 0 0 1 .553-.062"/>
        <path fill="#6F7891" d="M366.478 106.238a5.656 5.656 0 0 1-1.085 1.83 5.932 5.932 0 0 1-1.727 1.32 6.09 6.09 0 0 1-4.322.413 6.423 6.423 0 0 1-3.595-2.511 6.527 6.527 0 0 1-1.123-4.265 6.487 6.487 0 0 1 1.901-3.977c1.065-1.058 2.522-1.686 4-1.792 1.479-.116 3.001.316 4.167 1.213 1.167.889 1.972 2.23 2.138 3.63a.162.162 0 0 1-.31.082c-.524-1.22-1.363-2.225-2.405-2.895-1.035-.67-2.278-1.005-3.495-.875a5.314 5.314 0 0 0-3.217 1.525 5.254 5.254 0 0 0-.625 6.64 5.242 5.242 0 0 0 2.875 2.1c1.169.353 2.452.255 3.598-.196a6.165 6.165 0 0 0 2.866-2.415.2.2 0 0 1 .36.173"/>
        <path stroke="#6F7891" stroke-linecap="round" stroke-linejoin="round" d="M350.523 81.787c-1.536 1.22-2.308 2.65-2.316 4.081h-.004v2.712h.004c-.01 1.856 1.26 3.719 3.812 5.14 5.06 2.818 13.24 2.832 18.27.032 2.577-1.435 3.826-3.33 3.752-5.216v-2.388c.061-1.497-.712-3.007-2.319-4.291"/>
        <path fill="#6F7891" d="M352.056 91.306c-.924-.383-1.811-.908-2.564-1.624-.745-.714-1.365-1.628-1.64-2.69-.288-1.056-.15-2.234.33-3.203.475-.978 1.219-1.763 2.03-2.396a.5.5 0 0 1 .628.78l-.006.005c-.71.591-1.32 1.282-1.712 2.067a3.77 3.77 0 0 0-.301 2.51c.186.846.68 1.63 1.31 2.297.626.678 1.38 1.247 2.156 1.825l.009.007a.245.245 0 0 1-.24.422M353.669 92.109l-.115-.097a.266.266 0 0 1 .18-.468h.006l.146.006a.318.318 0 1 1-.217.559M372.034 81.466c.914.72 1.734 1.645 2.193 2.796.243.567.346 1.2.345 1.826-.005.631-.163 1.25-.405 1.817-.496 1.141-1.358 2.026-2.281 2.734a12.688 12.688 0 0 1-3.031 1.67c-2.142.827-4.408 1.201-6.665 1.294-2.253.072-4.557-.126-6.667-.958a.236.236 0 0 1 .117-.455l.004.001c2.178.288 4.331.525 6.504.422 2.162-.116 4.322-.507 6.309-1.308.989-.402 1.94-.9 2.771-1.532.824-.63 1.554-1.398 1.943-2.304.384-.9.453-1.908.077-2.826-.35-.922-1.026-1.738-1.839-2.395a.5.5 0 0 1 .625-.782"/>
        <path stroke="#6F7891" stroke-linecap="round" stroke-linejoin="round" d="M368.642 85.577c-4.127 2.298-10.838 2.286-14.99-.026-4.152-2.312-4.173-6.049-.047-8.346 4.126-2.298 10.838-2.286 14.99.026 4.152 2.312 4.173 6.049.047 8.346z"/>
        <path stroke="#6F7891" stroke-linecap="round" stroke-linejoin="round" d="M364.9 85.003l3.304-1.909c.446-.258.39-.708-.125-1.006-.515-.298-1.294-.33-1.74-.072l-3.305 1.91c-.445.257-.39.708.125 1.005.516.298 1.295.33 1.741.072z"/>
        <path fill="#6F7891" d="M126.504 212.685c1.513.636 2.944 1.414 4.356 2.225l4.231 2.444 8.462 4.888 8.462 4.887 4.23 2.444.528.305c.16.083.316.173.49.24.335.147.695.254 1.063.334a7.49 7.49 0 0 0 2.263.136 6.153 6.153 0 0 0 2.156-.564l.242-.125.264-.152.53-.304 1.058-.609 4.24-2.431c2.824-1.621 5.665-3.224 8.468-4.863.695-.41 1.402-.828 2.02-1.271a2.57 2.57 0 0 0 .38-.33c.098-.107.141-.19.222-.388.138-.306.19-.655.23-1.038.032-.379.04-.77.022-1.153-.018-.41-.054-.674-.219-.94-.156-.265-.41-.505-.704-.706-.28-.188-.679-.4-1.018-.602l-8.46-4.89-16.922-9.78-8.46-4.89-4.23-2.445-1.058-.611-.264-.153-.244-.128a5.194 5.194 0 0 0-.51-.22 6.957 6.957 0 0 0-2.23-.4 7.337 7.337 0 0 0-2.256.287 5.538 5.538 0 0 0-1.021.431l-1.057.607-4.24 2.433c-2.825 1.62-5.674 3.21-8.476 4.848-.696.412-1.393.827-2.052 1.268l-.488.335-.45.353a6.57 6.57 0 0 0-.374.37c-.09.127-.19.25-.227.38-.1.255-.102.601-.088 1.018.012.398.02.8.079 1.149.05.36.151.645.36.895.198.258.48.494.793.715 1.28.872 2.778 1.591 4.168 2.425 1.416.806 2.807 1.67 4.091 2.697a.234.234 0 0 1-.23.402c-1.538-.6-2.97-1.358-4.395-2.147a65.162 65.162 0 0 1-2.131-1.203c-.708-.414-1.41-.837-2.108-1.344-.346-.253-.698-.545-.994-.937-.308-.385-.483-.899-.542-1.343-.073-.456-.078-.872-.09-1.288-.008-.392-.038-.885.152-1.395.09-.263.243-.462.394-.664.158-.179.325-.336.491-.49l.512-.402.519-.355a43.96 43.96 0 0 1 2.103-1.302c2.823-1.65 5.662-3.235 8.488-4.855l4.236-2.43 1.062-.61a6.54 6.54 0 0 1 1.225-.519 8.339 8.339 0 0 1 2.569-.33 7.953 7.953 0 0 1 2.553.462c.206.079.412.16.61.264l.298.156.264.153 1.058.61 4.23 2.446 8.46 4.89 16.921 9.78 8.46 4.89c.361.215.686.38 1.084.643.375.258.737.582.998 1.019.13.217.23.461.284.718.054.262.062.467.075.688a9.83 9.83 0 0 1-.026 1.29c-.04.424-.105.894-.299 1.337-.066.18-.207.47-.388.661-.178.206-.358.338-.535.477-.703.507-1.402.919-2.106 1.339-2.816 1.66-5.643 3.269-8.462 4.902l-4.229 2.446-1.056.612-.529.306-.265.154-.3.158a7.228 7.228 0 0 1-2.538.68 8.558 8.558 0 0 1-2.593-.147 6.6 6.6 0 0 1-1.264-.394c-.208-.08-.407-.19-.607-.294l-.532-.306-4.23-2.446-8.458-4.892-8.46-4.892-4.23-2.446c-1.407-.82-2.796-1.67-4.103-2.665a.296.296 0 0 1 .294-.508"/>
        <path fill="#FFF" d="M174.997 220.284l-12.82 7.41c-1.199.693-3.147.69-4.353-.008l-40.066-23.157c-1.206-.697-1.212-1.823-.014-2.516l2.081-1.202a.662.662 0 0 1 .571.003l.186.106c.63.365 1.649.367 2.275.005l9.075-5.245c.626-.362.623-.951-.008-1.315l-.175-.101.003-.002c-.161-.093-.166-.24-.015-.336l2.095-1.211c1.198-.693 3.147-.689 4.352.008l40.067 23.157c1.205.697 1.212 1.824.014 2.516l-1.093.631"/>
        <path fill="#6F7891" d="M175.104 220.47c-1.395 1.2-2.981 2.07-4.546 2.977l-4.694 2.719-2.347 1.36c-.4.228-.765.447-1.193.684-.467.247-.96.388-1.454.462-.986.14-1.996.063-2.952-.348-.12-.047-.234-.117-.352-.176l-.294-.17-.588-.34-1.174-.676-18.796-10.844-18.777-10.878-.293-.17-.146-.085-.17-.107a2.508 2.508 0 0 1-.628-.573 1.762 1.762 0 0 1-.362-.882 1.629 1.629 0 0 1 .206-.96c.154-.278.363-.49.582-.659.109-.091.224-.156.338-.23l.297-.173 1.18-.68.59-.34a1.158 1.158 0 0 1 1.15-.001l.153.088.107.055c.074.032.153.063.239.084a2.156 2.156 0 0 0 1.076.006c.086-.02.165-.05.24-.082.037-.016.068-.036.104-.053l.147-.084 1.175-.678 4.7-2.708 2.35-1.355.588-.339c.109-.063.177-.1.222-.14a.358.358 0 0 0 .1-.106c.02-.057.025-.029-.011-.105-.058-.077-.143-.14-.371-.266a.495.495 0 0 1-.01-.861l.01-.006.002-.001v.867a.81.81 0 0 1-.231-.198.667.667 0 0 1-.143-.428.71.71 0 0 1 .373-.586l.394-.23.79-.457.789-.458c.27-.16.613-.323.93-.417a5.573 5.573 0 0 1 1.98-.22c.66.05 1.326.189 1.95.52l6.315 3.633 12.597 7.257 12.577 7.291 6.289 3.646 1.572.91.786.456c.292.171.604.397.844.719.248.311.401.777.338 1.227-.063.453-.321.816-.601 1.065-.29.256-.621.397-.885.506-.286.11-.574.217-.884.286a.23.23 0 0 1-.22-.382c.215-.233.45-.43.69-.623.257-.195.467-.341.617-.507.315-.345.373-.63.127-.962a1.78 1.78 0 0 0-.538-.442l-.787-.453-1.574-.908-6.298-3.629-12.596-7.259-12.577-7.292-6.275-3.635c-.909-.472-2.133-.538-3.148-.236a3.317 3.317 0 0 0-.724.323l-.784.451-.784.452-.392.226c-.043.019.096-.031.11-.242a.345.345 0 0 0-.07-.218c-.03-.038-.05-.048-.057-.053v.867l-.002.001v-.867c.163.093.484.26.69.558.107.15.192.35.206.568.017.218-.044.436-.14.604-.096.173-.22.299-.347.4-.129.105-.262.175-.347.225l-.587.34-2.347 1.36-4.693 2.72-1.174.68-.146.086c-.065.034-.131.072-.198.1a2.492 2.492 0 0 1-.4.14 3.152 3.152 0 0 1-1.606-.005 2.505 2.505 0 0 1-.4-.141c-.065-.029-.134-.068-.194-.1l-.142-.081c-.02-.022-.11-.029-.142.006l-.584.339-1.169.677-.288.168c-.075.051-.158.096-.222.153-.14.105-.25.226-.313.346-.128.239-.106.447.076.695.176.249.516.42.93.661l18.798 10.84 18.779 10.873 1.173.68.587.34.293.169c.086.041.163.092.254.127.707.311 1.57.391 2.366.274.4-.058.787-.174 1.12-.35l1.16-.665 2.35-1.355 4.698-2.711c1.567-.903 3.112-1.843 4.849-2.452.113-.04.238.02.277.133a.219.219 0 0 1-.063.238"/>
        <path fill="#CDE3FE" d="M129.236 195.343l.192-.126"/>
        <path fill="#6F7891" d="M129.045 195.05a.466.466 0 0 1 .257-.026.306.306 0 0 1 .252.388.473.473 0 0 1-.126.224.355.355 0 1 1-.383-.587"/>
        <path fill="#CDE3FE" d="M127.777 196.357l-3.421 1.977"/>
        <path fill="#6F7891" d="M127.878 196.532c-.497.457-1.053.81-1.625 1.137-.575.322-1.164.62-1.8.836a.2.2 0 0 1-.196-.34c.505-.444 1.057-.805 1.623-1.143.568-.332 1.153-.637 1.796-.84a.206.206 0 0 1 .202.35M60.097 173.59c.34.761.631 1.536.922 2.312.284.778.548 1.562.796 2.35.258.787.484 1.582.716 2.376l.697 2.38-.478-.354h.007c.236 0 .433.164.486.383.303 1.26 1.135 2.374 2.16 3.249 1.027.885 2.251 1.558 3.53 2.078 2.564 1.053 5.376 1.486 8.164 1.509a26.831 26.831 0 0 0 4.168-.348c1.372-.25 2.72-.613 4.009-1.12l.953-.408.916-.48c.603-.33 1.173-.714 1.697-1.144 1.05-.853 1.918-1.939 2.297-3.181a.5.5 0 0 1 .702-.304l.003.001-.702.303 4.331-14.246a.5.5 0 1 1 .957.291l-4.331 14.246a.5.5 0 0 1-.703.302l-.002-.002.702-.303c-.46 1.503-1.47 2.73-2.62 3.667-.577.473-1.195.889-1.84 1.242l-.978.512-1.011.434a22.423 22.423 0 0 1-4.21 1.177 27.792 27.792 0 0 1-4.34.362c-2.9-.025-5.823-.47-8.542-1.584-1.356-.552-2.665-1.267-3.802-2.245-1.129-.966-2.108-2.238-2.48-3.773l.486.383h-.007a.5.5 0 0 1-.476-.348l-.002-.007-.75-2.364c-.25-.788-.508-1.574-.732-2.37a55.3 55.3 0 0 1-.652-2.395 40.357 40.357 0 0 1-.526-2.433.256.256 0 0 1 .485-.148"/>
        <path stroke="#6F7891" stroke-linecap="round" stroke-linejoin="round" d="M55.165 158.63v4.912c-.021 3.192 2.066 6.381 6.267 8.809 8.393 4.851 22.045 4.827 30.49-.055 4.501-2.601 6.616-6.057 6.34-9.451v-2.901"/>
        <path stroke="#6F7891" stroke-linecap="round" stroke-linejoin="round" d="M59.965 150.985c-6.853 4.906-6.373 12.088 1.467 16.62 8.393 4.851 22.044 4.826 30.49-.056 8.447-4.882 8.49-12.772.096-17.623a21.15 21.15 0 0 0-.735-.406"/>
        <path stroke="#6F7891" stroke-linecap="round" stroke-linejoin="round" d="M68.71 149.069c-2.179.58-4.143 1.372-5.848 2.358-1.862 1.076-3.289 2.309-4.242 3.664-.854 1.216-1.287 2.478-1.287 3.752 0 1.262.425 2.51 1.264 3.708l.103.144c.934 1.278 2.301 2.443 4.066 3.464 1.902 1.098 4.132 1.952 6.632 2.536a33.82 33.82 0 0 0 7.692.862 34.05 34.05 0 0 0 7.773-.876c2.532-.594 4.795-1.461 6.726-2.578 1.81-1.047 3.21-2.24 4.162-3.552l.079-.112c.855-1.215 1.288-2.478 1.288-3.752 0-1.262-.426-2.51-1.264-3.707-.936-1.336-2.338-2.55-4.17-3.608a20.596 20.596 0 0 0-1.911-.973"/>
        <path fill="#6F7891" d="M69.057 157.21c-.404.165-.825.262-1.25.36-.427.084-.857.168-1.31.196l-.028.002a.28.28 0 0 1-.16-.52c.389-.233.803-.409 1.217-.586.42-.162.842-.326 1.28-.421a.5.5 0 0 1 .295.951l-.044.018zM62.586 159.574a33.53 33.53 0 0 0-.982.765c-.32.262-.622.542-.92.82a11.687 11.687 0 0 0-1.578 1.828l-.001.002-.001-.59c.954 1.3 2.266 2.343 3.684 3.19 1.423.85 2.963 1.51 4.552 2.02 3.186 1.013 6.553 1.46 9.906 1.446 3.353-.017 6.716-.49 9.893-1.532 1.586-.522 3.12-1.195 4.539-2.054 1.41-.859 2.718-1.907 3.668-3.213v.59c-1.246-1.688-3.065-2.938-4.983-3.9-1.933-.96-4.015-1.621-6.14-2.067a.5.5 0 0 1 .202-.98h.001c2.194.46 4.355 1.145 6.382 2.15a18.49 18.49 0 0 1 2.9 1.776c.911.688 1.755 1.49 2.446 2.43a.5.5 0 0 1 0 .59c-1.061 1.456-2.47 2.572-3.958 3.48-1.495.906-3.098 1.607-4.744 2.148-3.295 1.08-6.754 1.564-10.201 1.583-3.448.014-6.91-.444-10.216-1.494-1.65-.53-3.258-1.218-4.76-2.113-1.494-.895-2.91-2.006-3.979-3.459l-.008-.01a.482.482 0 0 1 .007-.58h.002c.534-.711 1.184-1.313 1.861-1.853.34-.272.702-.509 1.065-.739.364-.23.738-.44 1.123-.628a.23.23 0 0 1 .31.107.233.233 0 0 1-.07.287"/>
        <g>
            <g transform="translate(37 96.13)">
                <mask id="c" fill="#fff">
                    <use xlink:href="#b"/>
                </mask>
                <path fill="#FFF" d="M63.496 38.658v9.373l-16.177 9.413V48.07" mask="url(#c)"/>
                <path stroke="#6F7891" stroke-linecap="round" stroke-linejoin="round" d="M63.496 38.658v9.373l-16.177 9.413V48.07" mask="url(#c)"/>
            </g>
            <g transform="translate(37 96.13)">
                <mask id="e" fill="#fff">
                    <use xlink:href="#d"/>
                </mask>
                <path fill="#FFF" d="M47.32 48.071l8.466-4.927" mask="url(#e)"/>
                <path stroke="#6F7891" stroke-linecap="round" stroke-linejoin="round" d="M47.32 48.071l8.466-4.927" mask="url(#e)"/>
            </g>
            <g transform="translate(37 96.13)">
                <mask id="g" fill="#fff">
                    <use xlink:href="#f"/>
                </mask>
                <path fill="#FFF" d="M31.932 50.181v23.492l7.674 4.46v-.003l7.718-4.457v-61.11" mask="url(#g)"/>
                <path stroke="#6F7891" stroke-linecap="round" stroke-linejoin="round" d="M31.932 50.181v23.492l7.674 4.46v-.003l7.718-4.457v-61.11" mask="url(#g)"/>
            </g>
            <g transform="translate(37 96.13)">
                <mask id="i" fill="#fff">
                    <use xlink:href="#h"/>
                </mask>
                <path stroke="#6F7891" stroke-linecap="round" stroke-linejoin="round" d="M31.932 12.563v19.304" mask="url(#i)"/>
            </g>
            <g transform="translate(37 96.13)">
                <mask id="k" fill="#fff">
                    <use xlink:href="#j"/>
                </mask>
                <path fill="#FFF" d="M31.932 50.181v23.492l7.674 4.46V17.025" mask="url(#k)"/>
                <path stroke="#6F7891" stroke-linecap="round" stroke-linejoin="round" d="M31.932 50.181v23.492l7.674 4.46V17.025" mask="url(#k)"/>
            </g>
            <g transform="translate(37 96.13)">
                <mask id="m" fill="#fff">
                    <use xlink:href="#l"/>
                </mask>
                <path stroke="#6F7891" stroke-linecap="round" stroke-linejoin="round" d="M31.932 12.563v19.304" mask="url(#m)"/>
            </g>
            <g transform="translate(37 96.13)">
                <mask id="o" fill="#fff">
                    <use xlink:href="#n"/>
                </mask>
                <path stroke="#6F7891" stroke-linecap="round" stroke-linejoin="round" d="M39.606 17.024l7.719-4.461-7.719-4.45-7.674 4.45z" mask="url(#o)"/>
            </g>
            <g transform="translate(37 96.13)">
                <mask id="q" fill="#fff">
                    <use xlink:href="#p"/>
                </mask>
                <path fill="#FFF" d="M15.76 41.294v9.373l7.675 4.46v-.002l16.171-9.408" mask="url(#q)"/>
                <path stroke="#6F7891" stroke-linecap="round" stroke-linejoin="round" d="M15.76 41.294v9.373l7.675 4.46v-.002l16.171-9.408" mask="url(#q)"/>
            </g>
            <g transform="translate(37 96.13)">
                <mask id="s" fill="#fff">
                    <use xlink:href="#r"/>
                </mask>
                <path stroke="#6F7891" stroke-linecap="round" stroke-linejoin="round" d="M15.76 41.294v9.373l7.675 4.46v-9.375" mask="url(#s)"/>
            </g>
            <g transform="translate(37 96.13)">
                <mask id="u" fill="#fff">
                    <use xlink:href="#t"/>
                </mask>
                <path stroke="#6F7891" stroke-linecap="round" stroke-linejoin="round" d="M31.153 41.263l8.453-4.92-7.674-4.476" mask="url(#u)"/>
            </g>
            <g transform="translate(37 96.13)">
                <mask id="w" fill="#fff">
                    <use xlink:href="#v"/>
                </mask>
                <path stroke="#6F7891" stroke-linecap="round" stroke-linejoin="round" d="M31.153 41.294V29.551" mask="url(#w)"/>
            </g>
            <g transform="translate(37 96.13)">
                <mask id="y" fill="#fff">
                    <use xlink:href="#x"/>
                </mask>
                <path stroke="#6F7891" stroke-linecap="round" stroke-linejoin="round" d="M15.76 29.551v11.952" mask="url(#y)"/>
            </g>
            <g transform="translate(37 96.13)">
                <mask id="A" fill="#fff">
                    <use xlink:href="#z"/>
                </mask>
                <path stroke="#6F7891" stroke-linecap="round" stroke-linejoin="round" d="M23.434 45.754V34.012" mask="url(#A)"/>
            </g>
            <g transform="translate(37 96.13)">
                <mask id="C" fill="#fff">
                    <use xlink:href="#B"/>
                </mask>
                <path stroke="#6F7891" stroke-linecap="round" stroke-linejoin="round" d="M23.434 34.012l7.719-4.46-7.719-4.45-7.674 4.45z" mask="url(#C)"/>
            </g>
            <g transform="translate(37 96.13)">
                <mask id="E" fill="#fff">
                    <use xlink:href="#D"/>
                </mask>
                <path fill="#FFF" d="M63.496 38.658V26.942" mask="url(#E)"/>
                <path stroke="#6F7891" stroke-linecap="round" stroke-linejoin="round" d="M63.496 38.658V26.942" mask="url(#E)"/>
            </g>
            <g transform="translate(37 96.13)">
                <mask id="G" fill="#fff">
                    <use xlink:href="#F"/>
                </mask>
                <path fill="#FFF" d="M48.103 26.942v11.743l7.674 4.46v-.003l.012-.006" mask="url(#G)"/>
                <path stroke="#6F7891" stroke-linecap="round" stroke-linejoin="round" d="M48.103 26.942v11.743l7.674 4.46v-.003l.012-.006" mask="url(#G)"/>
            </g>
            <g transform="translate(37 96.13)">
                <mask id="I" fill="#fff">
                    <use xlink:href="#H"/>
                </mask>
                <path fill="#FFF" d="M48.103 38.658l7.686 4.497-.012-.04V31.377" mask="url(#I)"/>
                <path stroke="#6F7891" stroke-linecap="round" stroke-linejoin="round" d="M48.103 38.658l7.686 4.497-.012-.04V31.377" mask="url(#I)"/>
            </g>
            <path fill="#FFF" d="M92.777 127.506l7.719-4.46-7.719-4.45-7.674 4.45z"/>
            <path stroke="#6F7891" stroke-linecap="round" stroke-linejoin="round" d="M92.777 127.506l7.719-4.46-7.719-4.45-7.674 4.45z"/>
        </g>
        <g>
            <path fill="#CDE3FE" d="M317.818 116.96a11.396 11.396 0 0 1-1.54-.756l-3.855-2.228"/>
            <path fill="#6F7891" d="M307.508 112.21a18.11 18.11 0 0 1-1.583 1c-.266.164-.548.297-.822.447-.282.134-.563.27-.858.379a.181.181 0 0 1-.175-.315c.25-.193.514-.36.777-.527.272-.153.535-.321.814-.46.55-.293 1.106-.577 1.688-.812a.166.166 0 0 1 .16.288"/>
            <path fill="#6F7891" d="M311.328 113.655c-.4-.15-.79-.32-1.167-.512-.195-.1-.43-.219-.628-.428-.211-.193-.355-.536-.399-.744-.056-.21-.08-.253-.167-.348a1.607 1.607 0 0 0-.396-.26c-.316-.15-.669-.215-1.076-.248-.4-.044-.884-.033-1.4-.285-.411-.228-.744-.428-1.12-.643-.357-.203-.748-.444-1.078-.616a4.389 4.389 0 0 0-1.086-.366 5.766 5.766 0 0 0-2.334.01c-.743.162-1.51.509-1.863 1.048-.17.265-.203.543-.095.815.108.274.358.532.663.73l2.17 1.263a1.23 1.23 0 0 1 .445.51c.088.198.11.362.142.469.054.209.13.303.307.442.367.276.802.367 1.36.406.278.025.587.055.897.135.155.04.307.092.456.154l.227.107.182.105c.488.274.96.577 1.461.827l2.896 1.702 1.447.852c.241.142.492.293.732.454.248.15.485.327.698.54l.01.008a.374.374 0 0 1-.488.565c-.828-.624-1.848-1.13-2.81-1.694L306.401 117c-.466-.31-.962-.566-1.441-.852-.447-.282-.869-.352-1.43-.397-.55-.031-1.263-.155-1.797-.569a1.792 1.792 0 0 1-.393-.39 1.602 1.602 0 0 1-.233-.517c-.087-.352-.092-.376-.218-.475l.03.02-2.214-1.284c-.396-.262-.786-.618-.996-1.135-.224-.514-.133-1.169.166-1.608.29-.451.698-.75 1.111-.97.417-.224.858-.371 1.303-.47a6.623 6.623 0 0 1 2.698-.017c.446.091.888.23 1.309.44.42.22.747.425 1.125.638l1.079.618c.248.13.639.152 1.073.188.432.032.925.115 1.379.322.221.108.442.226.657.432.226.198.371.56.407.762.056.2.073.264.164.374.09.105.223.206.39.32.355.232.697.485 1.027.757a.275.275 0 0 1-.27.468M317.72 117.21c-.336.124-.567-.037-.804-.156-.24-.117-.475-.243-.705-.374l-1.334-.785c-.443-.26-.879-.533-1.315-.806-.43-.283-.883-.529-1.29-.851a.305.305 0 1 1 .302-.523c.483.19.922.46 1.382.691.453.242.908.483 1.355.738l1.338.755c.217.123.438.237.66.344.225.105.464.153.608.465l.006.013a.36.36 0 0 1-.177.479l-.026.01"/>
            <path stroke="#6F7891" stroke-linecap="round" stroke-linejoin="round" d="M323.593 117.108c.174-.183.462-.202.787-.014.365.21.682.626.845 1.063"/>
            <path fill="#FFF" d="M329.303 120.408l-7.468-4.316c-.805-.466-2.212-.408-3.143.13l-6.051 3.66c-.502.289-.781.6-.813.897h-.01v1.012c0 .73.566 1.513.992 1.762l7.397 4.264c1.173.594 2.754.468 3.684-.07l5.848-3.38c.5-.288.76-.657.77-1.008V121.71c.022-.536-.678-.998-1.206-1.303"/>
            <path stroke="#6F7891" stroke-linecap="round" stroke-linejoin="round" d="M329.303 120.408l-7.468-4.316c-.805-.466-2.212-.408-3.143.13l-6.051 3.66c-.502.289-.781.6-.813.897h-.01v1.012c0 .73.566 1.513.992 1.762l7.397 4.264c1.173.594 2.754.468 3.684-.07l5.848-3.38c.5-.288.76-.657.77-1.008V121.71c.022-.536-.678-.998-1.206-1.303z"/>
            <path fill="#6F7891" d="M332.43 131.888c2.49 1.01 4.719 2.47 7.042 3.77l6.918 3.985 3.46 1.993 1.729.996.864.498c.257.149.53.262.821.351 1.16.34 2.5.3 3.597-.161.535-.232 1.028-.611 1.147-1.038a.844.844 0 0 0-.065-.624 1.656 1.656 0 0 0-.522-.565l-13.789-7.96-6.899-4.016-3.449-2.01c-.567-.336-1.167-.658-1.736-1.082a4.93 4.93 0 0 1-.812-.738c-.253-.278-.456-.706-.54-1.026l-.002-.005.633.242-6.772 3.915-.004.002-.171-.813c.6.02 1.267.112 1.873.314.616.186 1.184.47 1.727.777.545.314 1.04.626 1.544.97.496.345.99.696 1.458 1.091a.181.181 0 0 1-.179.31 19.475 19.475 0 0 1-1.673-.72c-.542-.254-1.084-.56-1.594-.829-.519-.262-1.048-.49-1.58-.673-.54-.177-1.07-.28-1.67-.37l-.019-.003a.438.438 0 0 1-.152-.81l.004-.003 6.771-3.913a.436.436 0 0 1 .633.242l.002.005c.097.321.192.504.381.727.184.212.418.41.67.594.501.37 1.078.678 1.658 1.015l3.464 1.985 6.925 3.973 6.906 4.006 3.453 2.002 1.727 1.002.863.5c.292.174.561.313.894.54.311.224.607.513.807.9.2.385.258.884.124 1.315-.128.437-.408.77-.702 1.027-.3.258-.63.442-.968.59-.68.29-1.395.42-2.106.45a6.484 6.484 0 0 1-2.122-.264 4.846 4.846 0 0 1-1.009-.436l-.863-.5-1.727-1.002-3.453-2.003-6.906-4.005c-2.286-1.364-4.665-2.567-6.783-4.22a.174.174 0 0 1 .172-.298"/>
            <path fill="#6F7891" d="M348.808 138.506a.612.612 0 0 0-.125-.219c-.035-.03-.053-.02-.057.01.008.06-.02.149.005.217.06.123.062.07.014.067-.082-.034-.27-.008-.295.029-.005.005.009.006.04-.036.031-.037.055-.15.026-.224-.065-.14-.076-.09-.033-.085.034.021.098.03.159.04.03.004.06.005.087.004.028-.011.035.013.182.203l-.003-.006zm.175.304c.047.247-.054.311-.137.33a1.223 1.223 0 0 1-.774.008c-.168-.071-.4-.15-.545-.513a.662.662 0 0 1 .073-.554.795.795 0 0 1 .292-.267c.381-.18.693-.172 1.044-.063.164.074.388.15.526.496.062.178.015.391-.04.546-.034.08-.093.132-.17.141-.08.003-.183-.05-.266-.12l-.003-.004z"/>
            <path fill="#6F7891" d="M347.38 137.681a.612.612 0 0 0-.125-.219c-.035-.03-.053-.02-.057.01.008.06-.02.148.005.217.06.123.062.07.014.067-.082-.034-.269-.008-.295.029-.005.005.009.006.04-.036.031-.037.055-.15.026-.224-.065-.14-.076-.09-.033-.085.034.021.098.03.159.04.03.004.06.005.087.004.028-.011.035.013.182.202l-.003-.005zm.175.304c.047.247-.054.311-.137.33a1.223 1.223 0 0 1-.774.008c-.168-.071-.4-.15-.545-.513a.663.663 0 0 1 .073-.554.797.797 0 0 1 .292-.267c.381-.181.693-.172 1.045-.063.163.074.387.15.526.496.062.179.013.391-.042.546-.033.08-.092.131-.169.141-.08.003-.183-.05-.266-.12l-.003-.004z"/>
            <path fill="#6F7891" d="M345.953 136.856a.608.608 0 0 0-.125-.219c-.036-.03-.053-.02-.058.01.009.059-.02.148.006.217.06.123.061.07.014.067-.082-.034-.27-.009-.295.028-.006.005.008.007.04-.036a.277.277 0 0 0 .026-.223c-.065-.14-.077-.09-.034-.085.035.021.099.03.16.04a.52.52 0 0 0 .086.004c.029-.011.036.013.183.202l-.003-.005zm.175.303c.047.247-.055.312-.137.33a1.215 1.215 0 0 1-.774.008c-.169-.071-.401-.15-.546-.512a.663.663 0 0 1 .073-.555.797.797 0 0 1 .292-.266c.382-.181.693-.173 1.045-.063.163.074.387.15.526.495.062.18.014.392-.041.547-.034.08-.092.131-.17.14-.08.004-.182-.05-.265-.118l-.003-.006z"/>
            <path fill="#6F7891" d="M344.525 136.03a.612.612 0 0 0-.125-.218c-.035-.03-.053-.02-.057.01.008.06-.02.148.005.217.06.123.062.07.014.067-.082-.034-.27-.009-.295.028-.005.005.009.007.04-.036.031-.037.055-.15.026-.223-.065-.142-.076-.09-.033-.086.034.022.099.031.159.042.03.003.06.004.087.003.029-.011.035.013.182.202l-.003-.005zm.176.305c.046.246-.055.31-.138.33a1.223 1.223 0 0 1-.774.008c-.168-.072-.4-.15-.545-.513a.663.663 0 0 1 .073-.555.797.797 0 0 1 .292-.267c.38-.18.693-.172 1.045-.062.163.073.387.15.526.495.061.18.014.392-.041.547-.034.08-.092.131-.17.14-.08.004-.182-.05-.265-.118l-.003-.005z"/>
            <path fill="#6F7891" d="M343.097 135.206a.612.612 0 0 0-.125-.22c-.035-.029-.053-.019-.057.01.008.06-.02.149.005.218.06.122.062.07.014.067-.082-.034-.269-.009-.295.028-.005.005.009.006.04-.036.032-.037.055-.15.027-.224-.066-.14-.076-.09-.034-.085.035.022.099.03.159.041.03.004.06.004.087.003.028-.01.035.014.182.203l-.003-.005zm.176.303c.046.247-.055.312-.138.33a1.37 1.37 0 0 1-.253.056 1.207 1.207 0 0 1-.52-.048c-.169-.071-.401-.15-.546-.512a.663.663 0 0 1 .073-.555.797.797 0 0 1 .292-.267c.381-.18.693-.172 1.045-.062.163.073.387.15.526.495.061.179.014.392-.041.547-.034.079-.093.131-.17.14-.08.003-.182-.05-.265-.119l-.003-.005z"/>
            <path fill="#6F7891" d="M341.67 134.38a.608.608 0 0 0-.125-.218c-.036-.03-.054-.02-.058.01.008.059-.02.147.006.216.059.123.062.07.014.068-.082-.034-.27-.009-.295.028-.006.005.008.006.04-.036a.277.277 0 0 0 .026-.224c-.065-.14-.077-.09-.034-.085.035.021.1.03.16.041.03.004.06.004.087.003.028-.01.035.014.182.203l-.003-.006zm.175.304c.047.247-.055.312-.137.33a1.37 1.37 0 0 1-.253.056 1.215 1.215 0 0 1-.521-.048c-.169-.071-.401-.15-.546-.512a.663.663 0 0 1 .073-.555.797.797 0 0 1 .292-.267c.382-.18.693-.172 1.045-.062.163.073.388.15.526.495.062.178.014.391-.04.547-.035.078-.093.13-.17.14-.081.003-.183-.05-.266-.119l-.003-.005z"/>
            <path fill="#FFF" d="M329.192 122.322l-5.731 3.313c-.792.458-1.991.507-2.677.11l-7.841-4.531c-.687-.397-.6-1.09.192-1.548l5.73-3.312c.793-.458 1.991-.508 2.678-.111l7.841 4.532c.686.396.6 1.09-.192 1.547"/>
            <path stroke="#6F7891" stroke-linecap="round" stroke-linejoin="round" d="M329.192 122.322l-5.731 3.313c-.792.458-1.991.507-2.677.11l-7.841-4.531c-.687-.397-.6-1.09.192-1.548l5.73-3.312c.793-.458 1.991-.508 2.678-.111l7.841 4.532c.686.396.6 1.09-.192 1.547z"/>
        </g>
        <g fill="#E43A15">
            <path d="M195.387 64l3.57 2.012-6.461 11.065L199 80.742l-3.548 6.075-6.505-3.664L182.613 94l-3.572-2.012 6.335-10.847L179 77.549l3.548-6.076 6.376 3.592z"/>
        </g>
    </g>
</svg>
