<svg xmlns="http://www.w3.org/2000/svg" width="20" height="20" viewBox="0 0 20 20">
    <path fill="#FFF" fill-rule="nonzero" d="M9.817 0c2.666 0 3 .012 4.047.06 1.045.049 1.759.218 2.383.465a4.804 4.804 0 0 1 1.739 1.153 4.913 4.913 0 0 1 1.132 1.772c.243.636.409 1.363.456 2.427.048 1.067.06 1.407.06 4.123s-.012 3.056-.06 4.123c-.047 1.064-.213 1.791-.456 2.427a4.913 4.913 0 0 1-1.132 1.772 4.804 4.804 0 0 1-1.739 1.153c-.624.247-1.338.416-2.383.465-1.047.048-1.381.06-4.047.06-2.666 0-3-.012-4.048-.06-1.045-.049-1.758-.218-2.383-.465a4.804 4.804 0 0 1-1.738-1.153A4.912 4.912 0 0 1 .515 16.55c-.242-.636-.408-1.363-.456-2.427C.011 13.056 0 12.716 0 10s.011-3.056.06-4.123C.106 4.813.272 4.086.514 3.45a4.912 4.912 0 0 1 1.133-1.772A4.804 4.804 0 0 1 3.386.525C4.011.278 4.724.109 5.77.06 6.816.012 7.151 0 9.817 0zm6.418 4.662c0-.663-.528-1.2-1.178-1.2a1.19 1.19 0 0 0-1.178 1.2c0 .663.527 1.2 1.178 1.2a1.19 1.19 0 0 0 1.178-1.2zm-6.418.203c-2.784 0-5.041 2.299-5.041 5.135s2.257 5.135 5.04 5.135c2.785 0 5.042-2.299 5.042-5.135S12.6 4.865 9.817 4.865zm0 8.468c-1.808 0-3.273-1.492-3.273-3.333 0-1.841 1.465-3.333 3.273-3.333 1.807 0 3.272 1.492 3.272 3.333 0 1.841-1.465 3.333-3.272 3.333z"/>
</svg>
