<svg xmlns="http://www.w3.org/2000/svg" xmlns:xlink="http://www.w3.org/1999/xlink" width="76" height="49" viewBox="0 0 76 49">
    <defs>
        <path id="a" d="M.002.017h58.763v32.655H.002z"/>
    </defs>
    <g fill="none" fill-rule="evenodd" opacity=".5">
        <path fill="#677381" d="M62.382 35.74c0 1.842-.005 3.621.006 5.4.001.237-.154.289-.304.368-1.966 1.038-4.005 1.918-6.094 2.686-4.325 1.591-8.772 2.745-13.308 3.569a75.93 75.93 0 0 1-9.182 1.086c-2.96.172-5.92.193-8.876-.023-4.775-.347-9.432-1.208-13.815-3.2-3.16-1.439-5.92-3.387-7.965-6.224-1.478-2.05-2.296-4.348-2.648-6.823-.879-6.162 1.253-11.337 5.335-15.871a28.246 28.246 0 0 1 2.326-2.294c.091-.08.187-.157.346-.29V16c0 .143-.116.215-.196.306-2.412 2.74-4.045 5.87-4.737 9.443-.671 3.47-.343 6.815 1.543 9.902 1.402 2.297 3.443 3.901 5.825 5.115 2.564 1.306 5.31 2.05 8.136 2.537 4.203.723 8.442.838 12.693.658 9.176-.387 17.979-2.398 26.417-5.969 1.4-.592 2.76-1.269 4.08-2.02.118-.067.237-.132.418-.233"/>
        <g transform="translate(16.337 .058)">
            <mask id="b" fill="#fff">
                <use xlink:href="#a"/>
            </mask>
            <path fill="#677381" d="M29.643 2.597c-3.372.011-8.33.654-13.23 1.775C10.851 5.645 5.504 7.51.402 10.045c-.361.179-.31.169-.375-.234-.126-.777.22-1.173.89-1.551 4.783-2.695 9.844-4.697 15.16-6.088a66.542 66.542 0 0 1 8.926-1.7c4.052-.486 8.114-.612 12.183-.233 3.993.372 7.886 1.172 11.56 2.824 2.692 1.21 5.096 2.812 6.97 5.114 1.675 2.06 2.665 4.41 2.946 7.034.63 5.898-1.64 10.637-6.036 14.493a15.98 15.98 0 0 1-4.742 2.873c-.395.155-.396.153-.396-.247 0-1.095.01-2.19-.007-3.286-.004-.272.089-.42.318-.561 2.58-1.591 4.63-3.674 5.939-6.406 2.448-5.113 1.092-10.813-3.397-14.403-2.271-1.817-4.884-2.951-7.673-3.71-3.596-.977-7.01-1.37-13.025-1.367" mask="url(#b)"/>
        </g>
        <path fill="#677381" d="M48.205 23.862h2.191c.86 0 .873-.003.693-.84-.21-.979-.652-1.809-1.662-2.196-1.968-.753-4.1.666-4.158 2.748-.007.236.06.296.291.293.882-.012 1.763-.005 2.645-.005m1.94 2.587c-1.512 0-3.025.008-4.537-.007-.294-.003-.355.083-.342.359.085 1.81 1.446 3.024 3.435 3.041 1.26.01 2.39-.33 3.292-1.24.175-.176.278-.162.45.006a77.55 77.55 0 0 0 1.94 1.832c.184.167.175.252 0 .422-1.71 1.66-3.794 2.276-6.14 2.17-1.626-.073-3.13-.49-4.402-1.542-1.312-1.084-1.976-2.527-2.253-4.15-.335-1.97-.275-3.925.533-5.792 1.245-2.88 3.885-4.14 6.704-4.046 3.226.107 5.29 2.281 5.98 5.272.262 1.141.238 2.297.243 3.454.002.274-.173.22-.327.22h-4.576M18.27 25.264c0-2.389.005-4.778-.007-7.167-.001-.278.067-.35.352-.35 2.608.014 5.216-.004 7.824.02 1.37.012 2.58.439 3.438 1.563.586.768.871 1.655.882 2.61.02 1.941.013 3.882.015 5.824.002 1.567-.006 3.135.007 4.703.002.264-.075.335-.338.33a104.63 104.63 0 0 0-3.175.002c-.291.005-.355-.085-.354-.358.009-3.273.006-6.545.006-9.818 0-.125.001-.25-.002-.374-.027-.894-.464-1.38-1.362-1.41-1.07-.036-2.142-.009-3.213-.016-.165-.001-.23.051-.214.213.008.087.001.174.001.262 0 3.695-.004 7.391.007 11.087 0 .31-.047.427-.401.417a69.036 69.036 0 0 0-3.1-.003c-.295.005-.375-.072-.373-.367.013-2.39.007-4.779.007-7.168M33.675 21.441c0-2.477.005-4.954-.007-7.43-.002-.295.079-.374.375-.369 1.058.018 2.117.015 3.175.002.251-.004.32.068.318.312-.012 1.157.002 2.315-.011 3.472-.003.263.075.338.338.332.756-.016 1.513 0 2.269-.01.21-.002.313.025.308.277a72.286 72.286 0 0 0-.001 2.539c.003.22-.076.266-.281.264-.769-.01-1.538.003-2.306-.009-.233-.003-.329.042-.328.302.01 2.352 0 4.705.01 7.057.005 1.049.406 1.423 1.482 1.433.378.003.756.009 1.134-.003.198-.006.292.031.289.26-.013.883-.004 1.767-.007 2.65 0 .114.05.267-.162.26-1.118-.04-2.247.117-3.354-.13-1.913-.428-3.161-1.876-3.217-3.816-.05-1.779-.02-3.56-.024-5.34-.002-.684 0-1.368 0-2.053M61.181 22.055c0 3.396-.006 6.793.01 10.19.001.364-.105.404-.428.34-.508-.1-1.009-.215-1.473-.446-1.376-.685-1.96-1.858-1.98-3.313-.033-2.202-.012-4.405-.012-6.607 0-3.447.004-6.893-.007-10.34-.001-.304.067-.399.388-.392a79.7 79.7 0 0 0 3.137 0c.307-.005.372.092.371.377-.009 3.397-.006 6.794-.006 10.19M14.848 25.381c0 2.4-.006 4.802.007 7.202.002.31-.09.374-.384.338-2.178-.267-3.516-1.697-3.527-3.859-.018-3.67-.002-7.339-.01-11.008 0-.254.082-.307.32-.304 1.083.011 2.167.016 3.25-.003.292-.005.351.086.35.357-.01 2.426-.006 4.851-.006 7.277M12.924 12.018c.542 0 1.084.007 1.626-.004.203-.004.292.04.29.265-.01 1.045-.008 2.09-.001 3.136.001.19-.05.26-.254.258-1.134-.008-2.268-.009-3.402 0-.21.002-.248-.075-.247-.26.007-1.046.01-2.091-.001-3.136-.003-.227.087-.267.288-.263.567.01 1.134.004 1.701.004M64.104 13.017a1.28 1.28 0 0 0 1.284 1.284c.688-.004 1.276-.582 1.281-1.259a1.28 1.28 0 0 0-1.256-1.274c-.726-.013-1.303.537-1.309 1.25m1.271 1.536c-.85-.002-1.54-.676-1.547-1.51-.007-.842.707-1.55 1.559-1.544.859.005 1.552.705 1.541 1.556-.01.836-.699 1.5-1.553 1.498"/>
        <path fill="#677381" d="M65.297 12.917c.203 0 .385-.023.387-.26.001-.237-.186-.248-.368-.27-.227-.028-.235.098-.233.265.001.162-.002.308.214.265m-.594.076c0-.074-.01-.15.001-.223.035-.224-.128-.543.094-.655.255-.128.594-.086.886-.007.365.098.546.627.262.87-.266.225-.122.355-.025.55.061.125.297.274.11.395-.204.133-.363-.047-.453-.246a.128.128 0 0 0-.02-.032c-.124-.14-.14-.456-.37-.402-.203.047-.075.317-.09.486-.013.15-.044.226-.216.223-.163-.004-.18-.091-.18-.215.003-.248.001-.496 0-.744"/>
    </g>
</svg>
