<svg xmlns="http://www.w3.org/2000/svg" width="185" height="40" viewBox="0 0 185 40">
    <defs>
        <linearGradient id="a" x1="0%" y1="0%" y2="100%">
            <stop offset="0%" stop-color="#3023AE"/>
            <stop offset="100%" stop-color="#0069EF"/>
        </linearGradient>
    </defs>
    <g fill="none" fill-rule="evenodd">
        <path fill="#000" d="M54.337 8.238h5.4v2.259h.088c.796-1.018 2.744-3.056 6.727-3.056 5.665 0 9.56 4.075 9.56 10.984v14.35h-5.886V19.755c0-5.492-2.612-6.732-4.913-6.732-4.78 0-5.09 4.562-5.09 6.732v13.022h-5.886V8.238zM80.007 13.465H77.13V8.238h2.877V0h5.887v8.238h3.54v5.227h-3.54v19.31h-5.887zM112.405 32.776h-5.4v-2.259h-.088c-2.124 2.658-4.869 3.056-6.373 3.056-9.25 0-9.915-8.194-9.915-12.047V8.238h5.887v12.49c0 2.747.265 7.264 5.001 7.264 4.736 0 5.002-4.517 5.002-7.263V8.239h5.886v24.537zM115.415 8.238h5.4v2.215h.088c1.151-2.126 3.32-3.234 5.665-3.012v5.714c-5.355-.045-5.266 5.049-5.266 6.378v13.243h-5.887V8.238zM127.807 32.776h5.887V8.238h-5.887v24.538zm0-27.372h5.887V0h-5.887v5.404zM141.306 20.551c0 3.987 2.789 7.441 7.126 7.441 4.338 0 7.126-3.454 7.126-7.44 0-3.987-2.744-7.53-7.126-7.53-4.381 0-7.126 3.543-7.126 7.53m20.138 0c0 7.13-5.532 13.021-13.012 13.021s-13.012-5.89-13.012-13.022c0-7.175 5.488-13.11 13.012-13.11s13.012 5.935 13.012 13.11M163.216 8.238h5.4v2.259h.088c.796-1.018 2.744-3.056 6.727-3.056 5.665 0 9.56 4.075 9.56 10.984v14.35h-5.886V19.755c0-5.492-2.612-6.732-4.913-6.732-4.78 0-5.09 4.562-5.09 6.732v13.022h-5.886V8.238z"/>
        <path fill="url(#a)" d="M19.43 29.456a9.028 9.028 0 0 1-4.52-1.205c-4.403-2.503-5.947-8.124-3.444-12.53a9.221 9.221 0 0 1 8-4.65c1.596 0 3.116.405 4.52 1.205a9.152 9.152 0 0 1 1.691 1.235 15.534 15.534 0 0 1 7.443-7.09 19.361 19.361 0 0 0-4.058-3.073A19.356 19.356 0 0 0 19.466.8C12.7.8 6.127 4.34 2.546 10.646-2.764 19.986.5 31.867 9.837 37.18a19.363 19.363 0 0 0 9.594 2.546 19.48 19.48 0 0 0 13.312-5.257 15.53 15.53 0 0 1-7.252-7.29 9.22 9.22 0 0 1-6.06 2.276z"/>
        <path fill="#000" d="M46.236 17.894c-.84-3.1-3.452-4.872-6.462-4.872-3.23 0-5.842 1.949-6.815 4.872h13.277zM33.047 23.12c.753 3.012 3.275 4.872 6.418 4.872 1.903 0 4.028-.531 5.488-2.303h6.639c-3.275 7.796-10.755 7.884-11.906 7.884-8.807 0-12.968-7.264-12.968-12.889 0-5.625 4.205-13.243 13.056-13.243 7.48 0 12.614 5.758 12.614 13.066 0 .886 0 1.728-.132 2.613H33.047z"/>
        <circle cx="19.5" cy="20.5" r="3.5" fill="#1D40C9"/>
    </g>
</svg>
