<svg xmlns="http://www.w3.org/2000/svg" width="75" height="59" viewBox="0 0 75 59">
    <g fill="#677381" fill-rule="nonzero" opacity=".5">
        <path d="M73.014 57.958v.151h.14c.03 0 .057-.007.076-.019a.067.067 0 0 0 .027-.057.064.064 0 0 0-.027-.056.133.133 0 0 0-.077-.02h-.139zm.14-.106c.073 0 .128.016.168.048.04.033.058.077.058.133a.152.152 0 0 1-.046.116.228.228 0 0 1-.134.056l.185.213h-.144l-.171-.212h-.056v.212h-.12v-.566h.26zm-.036.762a.48.48 0 0 0 .433-.291.486.486 0 0 0-.1-.523.467.467 0 0 0-.332-.137.477.477 0 0 0-.338.137.461.461 0 0 0-.1.152.46.46 0 0 0-.037.185.46.46 0 0 0 .037.186.446.446 0 0 0 .251.253c.057.025.12.038.186.038zm0-1.087a.606.606 0 0 1 .438.18.599.599 0 0 1 .18.43.586.586 0 0 1-.048.237.632.632 0 0 1-.132.194.606.606 0 0 1-.438.18.615.615 0 0 1-.442-.18.632.632 0 0 1-.132-.194.586.586 0 0 1-.048-.237.599.599 0 0 1 .378-.562.615.615 0 0 1 .244-.048zM16.08 55.345c0-1.08.704-1.967 1.855-1.967 1.1 0 1.842.85 1.842 1.967 0 1.118-.742 1.967-1.842 1.967-1.15 0-1.855-.887-1.855-1.967zm4.95 0v-3.071H19.7v.746c-.42-.554-1.06-.9-1.93-.9-1.715 0-3.059 1.35-3.059 3.225 0 1.877 1.344 3.226 3.059 3.226.87 0 1.51-.347 1.93-.9v.746h1.33v-3.072zm44.92 0c0-1.08.705-1.967 1.856-1.967 1.1 0 1.841.85 1.841 1.967 0 1.118-.74 1.967-1.841 1.967-1.151 0-1.855-.887-1.855-1.967zm4.952 0v-5.538h-1.33v3.213c-.423-.554-1.062-.9-1.932-.9-1.714 0-3.058 1.35-3.058 3.225 0 1.877 1.344 3.226 3.058 3.226.87 0 1.51-.347 1.931-.9v.746h1.33v-3.072zm-33.372-2.03c.857 0 1.407.54 1.548 1.49h-3.173c.142-.887.678-1.49 1.625-1.49zm.027-1.196c-1.792 0-3.045 1.311-3.045 3.226 0 1.954 1.304 3.226 3.134 3.226.921 0 1.764-.23 2.506-.86l-.651-.99a2.915 2.915 0 0 1-1.779.642c-.856 0-1.636-.398-1.828-1.504h4.54c.013-.167.026-.334.026-.514-.013-1.915-1.19-3.226-2.903-3.226zm16.05 3.226c0-1.08.705-1.967 1.856-1.967 1.1 0 1.841.85 1.841 1.967 0 1.118-.742 1.967-1.841 1.967-1.15 0-1.855-.887-1.855-1.967zm4.95 0v-3.071h-1.329v.746c-.423-.554-1.061-.9-1.93-.9-1.715 0-3.059 1.35-3.059 3.225 0 1.877 1.344 3.226 3.058 3.226.87 0 1.508-.347 1.931-.9v.746h1.33v-3.072zm-12.456 0c0 1.864 1.29 3.226 3.261 3.226.921 0 1.535-.206 2.2-.732l-.639-1.08c-.5.36-1.023.553-1.6.553-1.062-.013-1.842-.784-1.842-1.967 0-1.182.78-1.953 1.842-1.967.577 0 1.1.193 1.6.554l.638-1.08c-.664-.527-1.278-.733-2.199-.733-1.97 0-3.261 1.362-3.261 3.226zm17.138-3.226c-.767 0-1.266.36-1.611.9v-.745H60.31v6.143h1.33v-3.444c0-1.016.436-1.581 1.305-1.581.27 0 .55.038.832.154l.41-1.259a2.819 2.819 0 0 0-.948-.168zm-35.634.643c-.64-.424-1.521-.643-2.493-.643-1.55 0-2.546.746-2.546 1.967 0 1.002.742 1.62 2.11 1.812l.627.09c.73.103 1.073.296 1.073.643 0 .475-.486.746-1.393.746-.921 0-1.586-.296-2.034-.643l-.626 1.04c.729.54 1.65.797 2.647.797 1.765 0 2.788-.835 2.788-2.005 0-1.08-.805-1.644-2.136-1.837l-.626-.091c-.575-.077-1.037-.192-1.037-.603 0-.45.435-.72 1.164-.72.78 0 1.536.296 1.906.527l.576-1.08zm17.152-.643c-.767 0-1.267.36-1.61.9v-.745h-1.318v6.143h1.329v-3.444c0-1.016.435-1.581 1.304-1.581.27 0 .55.038.832.154l.41-1.259a2.819 2.819 0 0 0-.947-.168zm-11.345.155h-2.174V50.41h-1.344v1.864h-1.24v1.22h1.24v2.803c0 1.425.55 2.274 2.123 2.274.577 0 1.242-.18 1.663-.475l-.383-1.144c-.397.23-.832.347-1.177.347-.665 0-.882-.412-.882-1.029v-2.775h2.174v-1.221zm-19.876 6.143V54.56c0-1.452-.921-2.428-2.405-2.442-.78-.013-1.586.231-2.15 1.093-.421-.68-1.086-1.093-2.02-1.093-.653 0-1.291.193-1.79.912v-.757H3.84v6.143h1.342V55.01c0-1.066.589-1.633 1.498-1.633.883 0 1.33.579 1.33 1.62v3.419h1.343V55.01c0-1.066.614-1.633 1.496-1.633.908 0 1.343.579 1.343 1.62v3.419h1.344zM73.943 37.306v-.897h-.233l-.27.616-.268-.616h-.234v.897h.166v-.676l.251.584h.172l.252-.586v.678h.164zm-1.478 0v-.744h.299v-.152h-.761v.152h.298v.744h.164zM37.391 41.745a23.138 23.138 0 0 1-8.78-18.18c0-7.38 3.44-13.953 8.795-18.19l-.015-.011h.329l-.015.011a23.135 23.135 0 0 1 8.796 18.19 23.135 23.135 0 0 1-8.781 18.18h-.329z"/>
        <path d="M28.786 23.371c0-7.38 3.439-13.953 8.794-18.19A22.857 22.857 0 0 0 23.35.234C10.634.234.326 10.593.326 23.371c0 12.78 10.308 23.138 23.024 23.138 5.372 0 10.314-1.85 14.23-4.947a23.138 23.138 0 0 1-8.794-18.19" opacity=".2"/>
        <path d="M74.825 23.371c0 12.78-10.308 23.138-23.024 23.138a22.864 22.864 0 0 1-14.231-4.947 23.135 23.135 0 0 0 8.796-18.19c0-7.38-3.44-13.954-8.796-18.191A22.864 22.864 0 0 1 51.801.234c12.716 0 23.024 10.359 23.024 23.137"/>
    </g>
</svg>
