<svg xmlns="http://www.w3.org/2000/svg" xmlns:xlink="http://www.w3.org/1999/xlink" width="85" height="32" viewBox="0 0 85 32">
    <defs>
        <path id="a" d="M0 0h84.983v31.074H0z"/>
    </defs>
    <g fill="none" fill-rule="evenodd" opacity=".5">
        <g transform="translate(0 .013)">
            <mask id="b" fill="#fff">
                <use xlink:href="#a"/>
            </mask>
            <path fill="#677381" d="M80.482 26.362c-.446.504-1.015.768-1.696.793-.143.005-.286 0-.429 0H9.682c-1.108 0-2.217 0-3.325-.002-1-.002-1.84-.566-2.2-1.477a2.472 2.472 0 0 1-.158-.918V12.364c0-2.066-.01-4.132.002-6.197.006-.957.466-1.66 1.344-2.088.288-.14.6-.206.923-.21h51.711a113727.333 113727.333 0 0 0 20.641-.002c.547 0 1.045.131 1.48.459.547.411.857.95.915 1.632.021.255.023.509.023.763.002 6.024.003 12.049.006 18.073 0 .59-.167 1.12-.562 1.568m4.353-21.69C84.234 2.29 82.17.432 79.704.069A6.524 6.524 0 0 0 78.752 0C54.6 0 30.447 0 6.295.002c-1.62 0-3.034.549-4.23 1.622C.893 2.678.236 3.991.057 5.539c-.045.392-.054.785-.054 1.179.002 6.05-.01 12.099.01 18.148.004 1.572.547 2.975 1.64 4.153 1.13 1.218 2.543 1.868 4.204 2.026.066.006.131.02.196.03H79.14c.351-.069.71-.095 1.058-.188 2.463-.658 4.009-2.206 4.665-4.62.069-.254.048-.52.12-.773V5.544c-.072-.287-.075-.584-.148-.872" mask="url(#b)"/>
        </g>
        <path fill="#677381" d="M43.604 11.574c-.282.55-.547 1.07-.815 1.59-1.171 2.273-2.344 4.546-3.516 6.818-.166.323-.34.643-.498.969-.057.118-.12.169-.263.168-1.418-.006-2.837-.004-4.255-.004-.198 0-.183.004-.183-.194v-3.845c-.101.072-.119.154-.154.224-.619 1.211-1.238 2.423-1.852 3.637-.063.124-.126.184-.281.182-1.209-.007-2.418-.004-3.626-.004-.042 0-.083-.004-.126-.006-.017-.097.047-.16.083-.23 1.564-3.036 3.13-6.07 4.69-9.11.085-.166.18-.214.363-.213 1.326.007 2.652.004 3.978.004.05 0 .101.003.151 0 .083-.006.126.022.12.11-.004.057 0 .115 0 .172v3.248c.1-.03.108-.114.138-.172a648.864 648.864 0 0 0 1.65-3.187c.058-.112.112-.176.26-.175 1.334.007 2.668.004 4.003.005.033 0 .066.006.133.013M69.237 11.56c-.026.095-.103.118-.157.154a2435.29 2435.29 0 0 1-5.377 3.61c-.13.086-.187.156-.155.332.328 1.802.641 3.607.958 5.411.002.008 0 .016-.001.025-.07.038-.148.022-.222.022h-4.18c-.224 0-.223 0-.26-.222l-.42-2.48c-.01-.055-.03-.109-.053-.189-.265.183-.518.355-.768.532-.07.05-.092.136-.13.208-.345.667-.693 1.333-1.031 2.003-.057.113-.122.152-.248.151-1.544-.003-3.089-.002-4.634-.003-.024 0-.049-.005-.112-.013l.239-.46c1.523-2.956 3.048-5.91 4.565-8.87.085-.165.178-.216.362-.215 1.46.007 2.921.004 4.382.004h.29l-1.493 2.901.023.028c.055-.036.114-.069.167-.109 1.176-.888 2.353-1.776 3.526-2.668a.701.701 0 0 1 .457-.156c1.334.007 2.67.004 4.004.004h.268zM55.776 13.026c-.148.286-.301.569-.445.857-.042.083-.09.121-.19.121-1.56-.002-3.122-.002-4.722-.002.143-.27.267-.501.387-.735.038-.072.076-.147.1-.225.048-.163-.015-.302-.173-.36-.448-.165-.994.007-1.164.367-.126.268-.294.517-.44.776-.215.385-.115.71.291.896.227.103.47.173.708.252.627.207 1.255.41 1.883.616.303.099.596.22.86.401.365.251.623.574.673 1.023.037.33-.054.638-.208.926-.307.574-.626 1.144-.94 1.714-.128.232-.327.394-.553.527-.43.255-.905.387-1.39.483-.617.123-1.242.177-1.87.213-.924.052-1.845.015-2.766-.03-.854-.043-1.703-.144-2.529-.38a4.347 4.347 0 0 1-.86-.338c-.208-.11-.401-.242-.555-.42-.3-.347-.362-.736-.159-1.147.23-.466.478-.923.713-1.386.046-.09.097-.137.209-.137 1.544.005 3.088.006 4.632.008.008 0 .016.006.025.01.048.062-.01.107-.033.152-.173.338-.35.674-.526 1.01a.842.842 0 0 0-.089.23c-.036.188.023.326.203.4.23.095.472.115.712.032a.554.554 0 0 0 .298-.254c.179-.307.36-.613.53-.924.194-.354.095-.653-.269-.85-.192-.104-.405-.154-.61-.223-.761-.255-1.525-.502-2.287-.752-.302-.1-.598-.212-.863-.391-.235-.158-.417-.357-.511-.624-.106-.3-.045-.588.102-.856.307-.566.625-1.126.939-1.689.196-.351.5-.594.847-.787.606-.337 1.268-.513 1.945-.638 1.135-.21 2.28-.256 3.433-.208.915.039 1.824.11 2.72.307.4.088.792.208 1.16.392.225.114.433.25.606.434.326.344.393.789.176 1.209M17.043 13.445a.953.953 0 0 1-.092.228c-.402.793-.81 1.584-1.21 2.379-.218.436-.558.66-1.06.64-.173-.006-.347 0-.564 0l1.292-2.507c.158-.307.322-.613.472-.924.057-.119.122-.178.264-.168.217.016.436 0 .653.019.227.019.291.113.245.333m4.799-1.385a1.82 1.82 0 0 0-.67-.377 2.883 2.883 0 0 0-.918-.123c-2.618 0-5.237.004-7.855-.004-.206-.001-.29.074-.373.238-1.42 2.766-2.847 5.53-4.272 8.293-.17.329-.337.658-.52 1.014.056.009.08.015.106.015 1.443 0 2.886 0 4.33.004.13 0 .188-.052.242-.159.43-.844.873-1.683 1.299-2.53.079-.158.171-.206.344-.205 1.427.007 2.854.005 4.28.003.285 0 .568-.032.843-.113.713-.21 1.195-.685 1.526-1.312.627-1.189 1.237-2.387 1.852-3.583.223-.434.148-.827-.214-1.16M32.376 11.75c-.23.456-.47.909-.693 1.368-.067.137-.147.187-.304.186-1.117-.006-2.233 0-3.35-.008-.177 0-.264.054-.34.21-.233.483-.486.956-.73 1.433-.03.058-.055.119-.098.214.326.018.632.007.937.009.31.002.62 0 .931 0h1.85c.014.08-.022.12-.044.162-.24.47-.488.937-.72 1.41-.065.134-.145.173-.29.172-1.108-.006-2.216.002-3.324-.008-.186-.001-.28.054-.363.217-.342.677-.7 1.347-1.052 2.02-.037.07-.07.145-.118.245h3.72c.028.058.011.087-.004.116-.253.49-.51.98-.759 1.474-.056.111-.126.149-.251.148-2.762-.003-5.523-.002-8.285-.003-.032 0-.064-.006-.098-.01-.011-.096.05-.159.087-.23 1.563-3.036 3.128-6.072 4.69-9.11.07-.137.137-.21.316-.21 2.727.008 5.455.005 8.183.005h.154c.028.097-.02.14-.045.19M78.47 11.789c-.216.427-.448.847-.646 1.282-.087.193-.203.235-.4.233-1.092-.008-2.183 0-3.274-.008-.174-.001-.267.046-.343.206-.229.475-.48.94-.719 1.41-.035.07-.092.136-.09.247h3.687c.028.107-.032.164-.064.227-.229.448-.468.891-.688 1.344-.07.144-.16.176-.311.176-1.108-.006-2.216 0-3.324-.007-.162-.001-.253.038-.329.188-.354.7-.723 1.391-1.085 2.086-.03.057-.076.108-.074.201h3.695c.042.088-.011.133-.036.18-.24.47-.489.937-.725 1.408-.055.111-.116.156-.245.156-2.77-.004-5.54-.003-8.31-.003-.024 0-.048-.007-.083-.012 0-.094.046-.146.076-.203 1.564-3.036 3.13-6.07 4.688-9.11.095-.186.204-.234.403-.234 2.669.006 5.338.004 8.007.005.089 0 .182-.022.268.02.009.087-.046.144-.079.208"/>
    </g>
</svg>
