<svg xmlns="http://www.w3.org/2000/svg" xmlns:xlink="http://www.w3.org/1999/xlink" width="63" height="28" viewBox="0 0 63 28">
    <defs>
        <path id="a" d="M.002.023H24.81v27.96H.002z"/>
    </defs>
    <g fill="none" fill-rule="evenodd" opacity=".5">
        <path fill="#677381" d="M19.986 8.142c-.408 1.546-.954 3.031-1.9 4.333-1.09 1.5-2.504 2.47-4.358 2.7a6.035 6.035 0 0 1-1.635-.034c-.177-.026-.193-.105-.143-.264 1.268-4.088 2.533-8.178 3.794-12.269.047-.152.112-.213.273-.203.246.015.494.004.828.004.416-.013.92.004 1.412.116 1.15.262 1.879 1.08 2.048 2.277.161 1.14-.03 2.246-.319 3.34m5.152-6.53c-1.394-.918-2.959-1.29-4.6-1.3C16.515.293 12.49.306 8.465.307c-.054 0-.123-.036-.167.045.711.552.853 1.263.594 2.105-2.35 7.615-4.696 15.232-7.041 22.85a3.215 3.215 0 0 1-.73 1.23c-.311.34-.663.626-1.12.868h9.54c-.826-.59-1.08-1.192-.83-2.01.82-2.67 1.65-5.337 2.473-8.007.043-.142.09-.194.252-.179 2.437.227 4.845.062 7.213-.589 1.96-.539 3.755-1.403 5.26-2.807 2.09-1.951 3.234-4.406 3.517-7.25.207-2.076-.52-3.786-2.287-4.95"/>
        <g transform="translate(38.268)">
            <mask id="b" fill="#fff">
                <use xlink:href="#a"/>
            </mask>
            <path fill="#677381" d="M6.951 15.71c-.393 1.677-.68 3.368-.633 5.1.021.814.127 1.614.401 2.384.593 1.662 1.847 2.597 3.58 2.666.442.017.878-.026 1.317-.085.216-.029.294-.127.352-.319.865-2.84 1.736-5.678 2.606-8.517.097-.317.195-.634.29-.952.276-.914-.016-1.705-.815-2.206-.109-.068-.222-.13-.38-.223h10.39c-.206.1-.362.173-.515.251-.874.444-1.45 1.138-1.745 2.095-.993 3.231-1.998 6.46-2.994 9.69a.566.566 0 0 1-.325.384c-2.896 1.38-5.923 2.14-9.135 1.984-1.815-.088-3.553-.524-5.178-1.371-1.839-.958-2.927-2.544-3.561-4.494-.524-1.61-.668-3.274-.58-4.958.16-3.068.934-5.97 2.462-8.62 2.23-3.87 5.509-6.424 9.706-7.729 2.55-.792 5.162-.918 7.803-.617 1.573.179 3.108.528 4.622.99.182.055.227.115.165.311-.33 1.044-.645 2.092-.957 3.14-.058.197-.1.243-.279.092-.967-.808-2.016-1.48-3.196-1.92-2.492-.927-4.783-.503-6.89 1.09C11.815 5.12 10.617 6.757 9.6 8.547c-1.271 2.238-2.062 4.662-2.65 7.163" mask="url(#b)"/>
        </g>
        <path fill="#677381" d="M30.594 13.85l-.038-.644c.03-1.404.253-2.647.943-3.764.32-.517.716-.962 1.271-1.23.452-.216.916-.263 1.335.058.404.311.366.774.296 1.214-.124.782-.503 1.45-.965 2.073a9.86 9.86 0 0 1-2.572 2.434c-.249.16-.253.152-.27-.142m-.178 10.294c-1.275.656-2.575 1.226-4.053 1.086-1.713-.163-2.67-1.187-2.774-2.988-.036-1.044.416-1.947 1.12-2.742.708-.8 1.565-1.4 2.508-1.883.149-.076.215-.082.272.114.643 2.232 1.601 4.313 2.943 6.206.056.079.112.141-.016.207m10.433 3.391a16.603 16.603 0 0 1-2.835-1.41c-1.172-.717-2.298-1.497-3.274-2.48-.152-.153-.187-.247-.014-.425 1.33-1.366 2.11-2.998 2.291-4.918.02-.212-.015-.258-.22-.256-.976.01-1.953.004-2.93.007-.062 0-.138-.039-.191.034.417.403.58.654.592 1.018.03.989-.292 1.866-.873 2.693l-.363-.556c-.965-1.471-1.713-3.037-2.043-4.787-.082-.436-.086-.436.31-.627l.794-.379c1.036-.491 2.062-1.003 2.985-1.698.806-.607 1.52-1.3 1.98-2.222.423-.846.547-1.73.216-2.633-.42-1.147-1.302-1.793-2.416-2.126-2.487-.744-5.356.492-6.662 2.863-.89 1.616-1.16 3.379-1.14 5.2.005.554.024.553-.488.735-1.246.441-2.49.886-3.625 1.591-1.87 1.165-3.177 2.708-3.352 5.037-.175 2.34.867 4.295 2.941 5.223 1.433.64 2.942.71 4.462.413 1.734-.34 3.279-1.133 4.727-2.131.154-.106.236-.112.376.02.642.608 1.293 1.207 2.02 1.713.174.121.351.18.568.179 1.98-.007 3.96-.005 5.939-.005h.27c.013-.07-.025-.065-.045-.073"/>
    </g>
</svg>
