<svg xmlns="http://www.w3.org/2000/svg" xmlns:xlink="http://www.w3.org/1999/xlink" width="24" height="21" viewBox="0 0 24 21">
    <defs>
        <path id="a" d="M12.922 8.589c0 1.58 1.236 2.864 2.765 2.869h3.265c.763 0 1.382.637 1.387 1.425v.481c0 2.108-1.65 3.818-3.687 3.823h-.965c-.507.005-.917.429-.922.953v1.907c.005.524.415.948.922.953h.93c4.074-.01 7.374-3.423 7.383-7.636V2.86C23.995 1.279 22.755 0 21.226 0h-5.539c-1.527 0-2.765 1.28-2.765 2.86v5.729zM0 8.589c0 1.58 1.237 2.864 2.765 2.869H6.03c.763 0 1.382.637 1.387 1.425v.481c0 2.108-1.65 3.818-3.687 3.823h-.965c-.507.005-.917.429-.921.953v1.907c.004.524.414.948.921.953h.93c4.074-.01 7.374-3.423 7.383-7.636V2.86C11.074 1.279 9.833 0 8.304 0H2.765C1.238 0 0 1.28 0 2.86v5.729z"/>
    </defs>
    <use fill="#E43A15" fill-rule="nonzero" xlink:href="#a"/>
</svg>
