<svg xmlns="http://www.w3.org/2000/svg" width="36" height="16" viewBox="0 0 36 16">
    <path fill="#FFF" fill-rule="evenodd" d="M29.353 7.53h-1.087V3.523h1.087c1.451 0 2.606.482 2.606 1.979 0 1.545-1.155 2.03-2.606 2.03m-11.701 2.866a4.482 4.482 0 0 1-1.582-.283l1.566-4.98h.034l1.533 4.994c-.462.166-.987.269-1.55.269M29.065.265h-4.936V12.1L19.815.265H15.54l-3.685 9.896c-.389-2.494-2.951-3.358-4.966-4.002-1.328-.43-2.741-1.064-2.728-1.765.01-.574.759-1.105 2.234-1.026.995.05 1.872.132 3.613.98l1.715-3.012C10.134.518 7.933.004 6.132 0H6.12C4.02 0 2.27.69 1.183 1.821A4.23 4.23 0 0 0 0 4.726C-.027 6.252.53 7.334 1.696 8.2c.986.729 2.245 1.198 3.357 1.55 1.371.426 2.49.798 2.478 1.592-.011.289-.118.56-.325.774-.342.358-.866.49-1.592.506-1.399.029-2.436-.191-4.088-1.176L0 14.501A11.318 11.318 0 0 0 5.589 16h.258c1.731-.034 3.13-.532 4.248-1.438l.181-.16-.494 1.339h4.483l.753-2.31c.788.27 1.685.42 2.635.42.927 0 1.801-.14 2.575-.397l.724 2.287h7.315v-4.783h1.596C33.717 10.958 36 8.98 36 5.66 36 1.965 33.783.27 29.064.27"/>
</svg>
