<svg xmlns="http://www.w3.org/2000/svg" width="32" height="30" viewBox="0 0 32 30">
    <g fill="#FFF" fill-rule="nonzero">
        <path d="M30 12h-1v2h1v14h-8V14h1.1v-2H22c-1.1 0-2 .9-2 2v14c0 1.1.9 2 2 2h8c1.1 0 2-.9 2-2V14c0-1.1-.9-2-2-2z"/>
        <path d="M25.604 24.104c-.1 0-.2.1-.3.2-.3.3-.4.7-.2 1.1.2.5.8.8 1.3.5.2-.1.4-.3.5-.5.2-.4.1-.8-.2-1.1-.3-.3-.7-.4-1.1-.2zM2 24h9v2H9v2h9v-2h-5v-2h5.2v-2H2v-2h16v-2H2V2h28v8.2h2V2c0-1.1-.9-2-2-2H2C.9 0 0 .9 0 2v20c0 1.1.9 2 2 2z"/>
        <path d="M12 11V5H6v6h6zM8 7h2v2H8V7zM27 7H14v2h11v6h2zM25 17h2v2h-2z"/>
    </g>
</svg>
