<svg xmlns="http://www.w3.org/2000/svg" width="32" height="32" viewBox="0 0 32 32">
    <g fill="#FFF" fill-rule="nonzero">
        <path d="M27.7 21h.3c2.2 0 4-1.8 4-4s-1.8-4-4-4h-.1l-.1-1.2C27.8 5.3 22.6 0 16 0 9.5 0 4.2 5.2 4.2 11.7L4.1 13H4c-2.2 0-4 1.8-4 4s1.8 4 4 4h2v-7l.2-2.2C6.2 6.4 10.6 2 16 2s9.8 4.4 9.8 9.8v.1L26 14v5.8l-1.7 4.3-9.4 1.9H14v2h1.1l10.6-2.1 2-4.9zm.3-6c1.1 0 2 .9 2 2s-.9 2-2 2v-4zM4 19c-1.1 0-2-.9-2-2s.9-2 2-2v4z"/>
        <path d="M10 12c0-3.3 2.7-6 6-6s6 2.7 6 6c0 .6.4 1 1 1s1-.4 1-1c0-4.4-3.6-8-8-8s-8 3.6-8 8c0 .6.4 1 1 1s1-.4 1-1zM6 21c0 1.5.3 2.9.9 4.2l.7 1.6c.4 1.2 1.9 2.4 3.2 3.4.3.2.5.4.8.6.8.7 1.9 1.1 3 1.1h2.6c1.1 0 2.2-.4 3.1-1.1l.3-.3s.1-.1.2-.1L19.5 29c-.1.1-.3.2-.4.3l-.1.1c-.5.4-1.2.6-1.8.6h-2.5c-.6 0-1.3-.2-1.8-.7-.2-.2-.5-.4-.8-.7-1-.7-1.9-1.6-2.6-2.6l-.8-1.6C8.3 23.3 8 22.2 8 21H6z"/>
    </g>
</svg>
