<svg xmlns="http://www.w3.org/2000/svg" xmlns:xlink="http://www.w3.org/1999/xlink" width="121" height="27" viewBox="0 0 121 27">
    <defs>
        <path id="a" d="M0 .096h33.542V27H0z"/>
    </defs>
    <g fill="none" fill-rule="evenodd" opacity=".5">
        <g>
            <mask id="b" fill="#fff">
                <use xlink:href="#a"/>
            </mask>
            <path fill="#677381" d="M17.916 15.546c-.138.322-.263.365-.57.223a18.492 18.492 0 0 1-2.699-1.548l-.006-.005a20.11 20.11 0 0 1-1.13-.84c.033.127.076.25.125.371l.03.075.026.06a3.7 3.7 0 0 0 .11.232 1.751 1.751 0 0 0 .066.127c.188.354.404.694.585 1.051.465.917.959 1.82 1.459 2.72.138.247.084.395-.11.575-1.58 1.472-3.436 2.295-5.608 2.416-1.969.108-3.77-.368-5.435-1.416-.412-.26-.513-.48-.288-.954 1.126-2.36 2.499-4.566 4.013-6.693 1.747-2.453 3.696-4.742 5.75-6.946.164-.175.28-.246.522-.084 3.379 2.253 4.758 6.897 3.16 10.636m-14.87 1.498c-.106.197-.22.39-.367.65C1.504 16.165.844 14.514.766 12.638c-.112-2.708.81-4.995 2.764-6.885 2.475-2.391 6.482-3.108 9.644-1.713.278.122.352.196.074.439C9.126 8.088 5.65 12.218 3.046 17.044m29.439 1.645c-2.3-.188-4.6-.339-6.885-.678-2.288-.339-4.534-.824-6.713-1.61-.4-.144-.432-.281-.28-.643a9.01 9.01 0 0 0 .572-5.185c-.46-2.55-1.74-4.6-3.846-6.13-.277-.202-.264-.31-.036-.534 1.112-1.099 2.228-2.193 3.417-3.21.207-.177.4-.368.65-.6-.267-.022-.37.09-.49.164a39.652 39.652 0 0 0-4.357 3.129c-.278.228-.49.26-.816.101-1.33-.648-2.758-.922-4.225-.898-1.639.027-3.181.47-4.62 1.272C1.326 5.83-.606 9.997.17 13.94c.301 1.53.912 2.905 1.885 4.12.214.266.274.478.104.808-.256.497-.452 1.03-.64 1.558-.493 1.384-.864 2.795-.734 4.283.061.703.273 1.35.85 1.825.754.62 1.606.525 2.44.272 1.925-.584 3.38-1.845 4.663-3.324.211-.244.471-.47.566-.81-.182-.037-.243.103-.339.175-1.083.816-2.18 1.619-3.543 1.92-1.66.368-2.224-.603-2.182-1.91.028-.884.292-1.735.566-2.576.103-.317.184-.35.479-.152 1.462.983 3.082 1.541 4.85 1.621 2.697.12 5.053-.72 7.055-2.522.163-.145.3-.227.386.038.115.357.37.398.684.36.256-.032.512-.066.77-.08 1.985-.098 3.968-.212 5.953-.283 2.617-.092 5.235-.146 7.852-.224.531-.015 1.061-.058 1.707-.096-.414-.231-.747-.23-1.057-.254" mask="url(#b)"/>
        </g>
        <path fill="#677381" d="M42.247 8.121c-.469.808-1.109 1.248-2.1 1.116-.475-.063-.966-.01-1.578-.01.463-.61.86-1.128 1.251-1.649.093-.122.22-.114.35-.114h1.742c.162 0 .332-.001.423.17.095.181.005.326-.088.487m-2.932 3.863c-.2.252-.387.513-.588.764-.21.261-.477.44-.823.445-.74.007-1.481.001-2.349.001.489-.644.905-1.189 1.316-1.738.089-.119.202-.143.337-.143.597.002 1.195 0 1.793.002.164.001.335.007.416.181.085.18.014.34-.102.488m8.665-6.269c-.341-.29-.749-.344-1.18-.344-3.446.004-6.89.008-10.335-.007-.337 0-.526.124-.714.374-2.156 2.849-4.32 5.692-6.482 8.536-.239.315-.47.634-.755 1.018h.56c3.606 0 7.213.003 10.82-.002 1.438-.002 2.644-.533 3.572-1.634.363-.43.695-.886 1.037-1.333.526-.688.534-1.039.038-1.738.258-.097.516-.185.766-.29 1.435-.592 2.195-1.852 2.993-3.053.32-.48.116-1.153-.32-1.527M58.922 8.125c-1.17 1.537-2.34 3.074-3.506 4.614-.434.574-1.056.454-1.646.461-.227 0-.453.004-.68 0-.173-.005-.36.025-.47-.17-.122-.218.015-.369.13-.52.865-1.142 1.733-2.282 2.6-3.423l.148-.19c1.288-1.69.865-1.408 3.1-1.433.165-.001.336.003.422.174.09.181.017.337-.098.487m6.043-1.997c-.286-.599-.825-.759-1.451-.757-2.784.006-5.567.001-8.35.003-1.608 0-2.916.612-3.892 1.897-1.46 1.924-2.92 3.847-4.386 5.768-.361.475-.497.975-.204 1.523.288.538.763.74 1.367.734 1.44-.013 2.88-.004 4.32-.004 1.359 0 2.718-.009 4.077.002 1.657.014 2.97-.638 3.964-1.948 1.42-1.874 2.836-3.75 4.27-5.612.387-.502.566-1.018.285-1.606M120.656 7.648c-.512.893-1.184 1.23-2.237 1.143-1.315-.107-2.644-.026-4.078-.026.226-.303.388-.501.527-.714.198-.304.093-.56-.26-.575a19.895 19.895 0 0 0-1.746.012c-.325.015-.564.225-.755.476-1.162 1.525-2.32 3.05-3.48 4.575-.111.145-.21.297-.113.484.099.19.29.175.468.177h.048c2.176-.024 1.734.252 3.067-1.498.156-.205.348-.392.462-.618.498-.986 1.28-1.244 2.365-1.172 1.546.101 3.105.026 4.658.026h.576c-.54.712-1.017 1.349-1.503 1.979-.156.201-.4.127-.592.102-.541-.071-.91.108-1.196.58-1.231 2.036-3.044 2.834-5.43 2.719-2.47-.12-4.951-.034-7.426-.022-.637.004-1.16-.171-1.446-.762-.274-.568-.108-1.08.267-1.566 1.471-1.915 2.924-3.845 4.392-5.763.91-1.189 2.138-1.809 3.631-1.823 2.88-.027 5.76-.008 8.64-.01.595 0 1.086.197 1.365.745.281.55.09 1.019-.204 1.53M105.438 5.373a5362.514 5362.514 0 0 1-3.074 4.053c-1.383 1.82-2.774 3.635-4.143 5.467-.227.304-.465.415-.841.407a95.033 95.033 0 0 0-3.398-.001c-.3.003-.414-.083-.48-.382-.334-1.503-.696-2.998-1.048-4.5-.19.032-.235.185-.318.293-1.074 1.41-2.151 2.815-3.209 4.236-.195.26-.399.36-.723.353-1.017-.02-2.035-.007-3.054-.007-.04-.191.1-.279.181-.386C87.657 11.84 89.99 8.78 92.31 5.71c.183-.243.364-.35.678-.345 1.132.02 2.264.024 3.397 0 .37-.01.485.116.562.464.327 1.5.693 2.992 1.063 4.561 1.048-1.376 2.107-2.656 3.031-4.024.531-.787 1.117-1.116 2.06-1.01.73.083 1.478.017 2.337.017M80.534 5.373c-.535.705-1.01 1.326-1.48 1.953-.132.175-.314.136-.486.136-1.553.002-3.106.01-4.659-.007-.328-.004-.536.094-.72.362-.314.458-.667.89-1.047 1.392h5.479c-.562.733-1.057 1.39-1.568 2.035-.11.14-.306.067-.463.067-1.536.004-3.072.013-4.609-.005-.329-.004-.535.099-.72.365-.343.496-.724.968-1.153 1.536h5.472c-.551.726-1.034 1.36-1.515 1.996-.082.108-.2.088-.31.088-3.494 0-6.988-.001-10.482-.004-.028 0-.056-.02-.09-.032-.044-.171.105-.257.184-.362 2.323-3.067 4.65-6.13 6.976-9.194.137-.18.256-.334.537-.333 3.51.01 7.02.007 10.654.007M89.093 5.373c-.998 1.316-1.927 2.546-2.858 3.773-1.46 1.922-2.925 3.838-4.374 5.768-.203.27-.405.39-.755.386-1.63-.019-3.26-.008-4.893-.008-.037-.192.103-.279.183-.386 2.323-3.064 4.653-6.122 6.97-9.189.181-.24.358-.356.675-.352 1.645.018 3.292.008 5.052.008M13.507 13.364c0 .005.002.009.004.014l-.01-.008-.006-.016.012.01"/>
        <path fill="#677381" d="M13.484 13.333c.006.007.01.015.012.023a.795.795 0 0 1-.04-.029c.01.003.024 0 .028.006"/>
        <path fill="#677381" d="M13.507 13.364l-.006.006-.006-.016.012.01"/>
    </g>
</svg>
