<svg xmlns="http://www.w3.org/2000/svg" width="23" height="18" viewBox="0 0 23 18">
    <path fill="#E5462E" fill-rule="nonzero" d="M22.966 2.125a9.353 9.353 0 0 1-2.349 2.346c.008.195.015.39.015.59 0 5.996-4.742 12.914-13.406 12.914-2.66 0-5.136-.748-7.226-2.039a9.65 9.65 0 0 0 1.126.065c2.21 0 4.24-.726 5.853-1.944-2.06-.04-3.801-1.352-4.401-3.156.292.05.581.083.889.083.431 0 .848-.057 1.242-.159C2.548 10.41.923 8.573.923 6.372v-.058a4.866 4.866 0 0 0 2.135.568C1.793 6.072.964 4.68.964 3.108c0-.83.233-1.612.638-2.28 2.323 2.747 5.797 4.554 9.71 4.745a4.288 4.288 0 0 1-.12-1.033c0-2.509 2.109-4.54 4.71-4.54a4.8 4.8 0 0 1 3.44 1.431A9.68 9.68 0 0 0 22.332.33a4.606 4.606 0 0 1-2.071 2.512 9.51 9.51 0 0 0 2.705-.716z"/>
</svg>
