<svg xmlns="http://www.w3.org/2000/svg" width="32" height="17" viewBox="0 0 32 17">
    <g fill="none" fill-rule="nonzero">
        <path fill="#BD3D44" d="M0 0h32v1.308H0V0zm0 2.616h32v1.309H0V2.616zM0 5.23h32v1.312H0V5.229zm0 2.617h32v1.308H0V7.846zm0 2.616h32v1.309H0v-1.309zm0 2.613h32v1.309H0v-1.309zm0 2.617h32V17H0v-1.308z"/>
        <path fill="#FFF" d="M0 1.308h32v1.308H0V1.308zm0 2.617h32v1.304H0V3.925zm0 2.613h32v1.308H0V6.538zm0 2.616h32v1.308H0V9.154zm0 2.617h32v1.308H0V11.77zm0 2.613h32v1.308H0v-1.308z"/>
        <path fill="#192F5D" d="M0 0h12.8v9.154H0z"/>
        <path fill="#FFF" d="M1.066.392l.118.362h.375l-.302.222.115.365-.306-.225-.303.222.115-.362L.572.754h.382l.112-.362zm2.135 0l.115.362h.378l-.306.222.115.365-.302-.225-.306.222.115-.362-.303-.222h.375l.119-.362zm2.131 0l.119.362h.371L5.52.976l.115.365-.306-.225-.303.222.115-.362-.305-.222h.378l.118-.362zm2.135 0l.115.362h.379l-.306.222.118.365-.306-.225-.306.222.119-.362-.306-.222h.375l.118-.362zm2.132 0l.118.362h.375L9.79.976l.116.365-.306-.225-.303.222.115-.362L9.11.754h.375l.115-.362zm2.135 0l.115.362h.378l-.306.222.118.365-.305-.225-.306.222.118-.362-.306-.222h.378l.116-.362zm-9.6.916l.116.362h.378l-.306.223.112.361-.296-.222-.306.222.109-.361-.296-.223h.375l.115-.362zm2.132 0l.119.362h.375l-.306.223.118.361-.306-.222-.305.222.118-.361-.306-.223h.378l.115-.362zm2.135 0l.115.362h.379l-.306.223.115.361-.303-.222-.306.222.116-.361-.303-.223h.375l.118-.362zm2.132 0l.118.362h.375l-.306.223.119.361-.306-.222-.303.222.115-.361-.306-.223h.382l.112-.362zm2.135 0l.115.362h.378l-.306.223.115.361-.302-.222-.306.222.115-.361-.303-.223h.375l.119-.362zm-9.602.913l.118.369h.375l-.302.222.115.362-.306-.226-.303.226.115-.365-.306-.222h.382l.112-.366zm2.135 0l.115.366h.378l-.306.222.115.362-.302-.226-.306.226.115-.365-.303-.223h.375l.119-.362zm2.131 0l.119.366h.371l-.302.222.115.362-.306-.226-.303.226.115-.365-.305-.223h.378l.118-.362zm2.135 0l.115.366h.379l-.306.222.118.362-.306-.226-.306.226.119-.365-.306-.223h.375l.118-.362zm2.132 0l.118.366h.375l-.303.222.116.362-.306-.226-.303.226.115-.365-.302-.223h.375l.115-.362zm2.135 0l.115.366h.378l-.306.222.118.362-.305-.226-.306.226.118-.365-.306-.223h.378l.116-.362zm-9.6.917l.116.362h.378l-.306.222.115.365-.302-.225-.306.222.115-.362-.303-.222h.375l.119-.362zm2.132 0l.119.362h.375l-.306.222.118.365-.306-.225-.305.222.118-.362-.306-.222h.378l.115-.362zm2.135 0l.115.362h.379l-.306.222.115.365-.303-.225-.306.222.116-.362-.303-.222h.375l.118-.362zm2.132 0l.118.362h.375l-.302.222.115.365-.306-.225-.303.222.115-.362L8.04 3.5h.382l.112-.362zm2.135 0l.115.362h.378l-.306.222.115.365-.302-.225-.306.222.115-.362-.303-.222h.375l.119-.362zm-9.602.916l.118.362h.375l-.302.222.115.366-.306-.226L.763 5l.115-.362-.306-.222h.382l.112-.362zm2.135 0l.115.362h.378l-.306.222.115.362-.302-.222L2.895 5l.115-.362-.303-.222h.375l.119-.362zm2.131 0l.119.362h.371l-.302.222.115.366-.306-.226L5.026 5l.115-.362-.305-.222h.378l.118-.362zm2.135 0l.115.362h.379l-.306.222.118.366-.306-.226L7.161 5l.119-.362-.306-.222h.375l.118-.362zm2.132 0l.118.362h.375l-.303.222.116.366-.306-.226L9.296 5l.115-.362-.302-.222h.375l.115-.362zm2.135 0l.115.362h.378l-.306.222.118.366-.305-.226-.306.222.118-.362-.306-.222h.378l.116-.362zm-9.6.917l.116.361h.378l-.306.223.115.362-.302-.226-.306.226.115-.365-.303-.223h.375l.119-.358zm2.132 0l.119.361h.375l-.306.223.118.362-.306-.226-.305.226.118-.365-.306-.223h.378l.115-.358zm2.135 0l.115.361h.379l-.306.223.115.362L6.4 5.69l-.306.226.116-.365-.303-.223h.375l.118-.358zm2.132 0l.118.361h.375l-.302.223.115.362-.306-.226-.303.226.115-.365-.306-.223h.382l.112-.358zm2.135 0l.115.361h.378l-.306.223.115.362-.302-.226-.306.226.115-.365-.303-.223h.375l.119-.358zm-9.602.913l.118.365h.375l-.302.222.115.359-.306-.223-.303.223.115-.362-.306-.222h.382l.112-.362zm2.135 0l.115.365h.378l-.306.222.119.359-.306-.223-.306.223.118-.362-.306-.222h.375l.119-.362zm2.131 0l.119.365h.371l-.302.222.115.359-.306-.223-.303.223.115-.362-.305-.222h.378l.118-.362zm2.135 0l.115.365h.379l-.306.222.118.359-.306-.223-.306.223.119-.362-.306-.222h.375l.118-.362zm2.132 0l.118.365h.375l-.303.222.116.359-.306-.223-.303.223.115-.362-.302-.222h.375l.115-.362zm2.135 0l.115.365h.378l-.306.222.118.359-.305-.223-.306.223.118-.362-.306-.222h.378l.116-.362zm-9.6.916l.116.362h.378l-.306.222.115.366-.302-.226-.306.222.115-.362-.303-.222h.375l.119-.362zm2.132 0l.119.362h.375l-.306.222.118.366-.306-.226-.305.222.118-.362-.306-.222h.378l.115-.362zm2.135 0l.115.362h.379l-.306.222.115.366-.303-.226-.306.222.116-.362-.303-.222h.375L6.4 6.8zm2.132 0l.118.362h.375l-.302.222.115.366-.306-.226-.303.222.115-.362-.306-.222h.382l.112-.362zm2.135 0l.115.362h.378l-.306.222.115.366-.302-.226-.306.222.115-.362-.303-.222h.375l.119-.362zm-9.602.916l.118.362h.375l-.302.223.115.362-.306-.223-.303.223.115-.366-.306-.222h.382l.112-.359zm2.135 0l.115.362h.378l-.306.223.119.362L3.2 8.44l-.306.223.118-.366-.306-.222h.375l.119-.359zm2.131 0l.119.362h.371l-.296.223.115.362-.305-.223-.303.223.115-.366-.306-.222h.378l.112-.359zm2.135 0l.115.362h.379l-.306.223.118.362-.306-.223-.306.223.119-.366-.306-.222h.375l.118-.359zm2.132 0l.118.362h.375l-.303.223.116.362-.306-.223-.303.223.115-.366-.302-.222h.375l.115-.359zm2.135 0l.115.362h.378l-.306.223.118.362-.305-.223-.306.223.118-.366-.306-.222h.378l.116-.359z"/>
    </g>
</svg>
