<svg xmlns="http://www.w3.org/2000/svg" width="20" height="15" viewBox="0 0 20 15">
    <path fill="#FFF" fill-rule="nonzero" d="M7.79 10.086l-.001-5.887 5.305 2.954-5.304 2.933zm11.647-6.907s-.192-1.444-.78-2.08C17.91.265 17.073.261 16.69.212 13.942 0 9.82 0 9.82 0h-.009s-4.12 0-6.868.212C2.56.261 1.724.265.976 1.1c-.588.636-.78 2.08-.78 2.08S0 4.875 0 6.569v1.59c0 1.697.196 3.392.196 3.392s.192 1.444.78 2.08c.747.834 1.728.808 2.165.895 1.571.161 6.676.21 6.676.21s4.125-.006 6.873-.218c.383-.049 1.22-.053 1.967-.888.588-.635.78-2.08.78-2.08s.196-1.694.196-3.39V6.57c0-1.695-.196-3.391-.196-3.391z"/>
</svg>
